<?xml version="1.0" standalone="no"?>
 <!DOCTYPE svg PUBLIC "-//W3C//DTD SVG 1.1//EN" 
 "http://www.w3.org/Graphics/SVG/1.1/DTD/svg11.dtd"> 
<svg
  xmlns:svg="http://www.w3.org/2000/svg"
  xmlns="http://www.w3.org/2000/svg"
  xmlns:xlink="http://www.w3.org/1999/xlink"
  version="1.1"
  width="29.700220cm" height="21.000720cm" viewBox="0 0 116930 82680">
<title>SVG Picture created as audioamplifier-B_Cu.svg date 2020/12/31 15:42:50 </title>
  <desc>Picture generated by PCBNEW </desc>
<g style="fill:#000000; fill-opacity:1;stroke:#000000; stroke-opacity:1;
stroke-linecap:round; stroke-linejoin:round;"
 transform="translate(0 0) scale(1 1)">
</g>
<g style="fill:#000000; fill-opacity:0.0; 
stroke:#000000; stroke-width:-0.000393701; stroke-opacity:1; 
stroke-linecap:round; stroke-linejoin:round;">
<g >
</g>
<g style="fill:#000000; fill-opacity:0.0; 
stroke:#000000; stroke-width:475.591; stroke-opacity:1; 
stroke-linecap:round; stroke-linejoin:round;">
<path d="M56022 32736
L56497 32736
" />
<path d="M56022 34192
L56497 34192
" />
<path d="M55472 33226
L55472 33702
" />
</g>
<g >
</g>
<g style="fill:#000000; fill-opacity:0.0; 
stroke:#000000; stroke-width:475.591; stroke-opacity:1; 
stroke-linecap:round; stroke-linejoin:round;">
</g>
<g style="fill:#000000; fill-opacity:0.0; 
stroke:#000000; stroke-width:0; stroke-opacity:1; 
stroke-linecap:round; stroke-linejoin:round;">
</g>
<g style="fill:#000000; fill-opacity:1.0; 
stroke:#000000; stroke-width:0; stroke-opacity:1; 
stroke-linecap:round; stroke-linejoin:round;">
<path style="fill:#000000; fill-opacity:1.0; 
stroke:#000000; stroke-width:0; stroke-opacity:1; 
stroke-linecap:round; stroke-linejoin:round;fill-rule:evenodd;"
d="M 29891.7,18277.6
29891.7,17942.9
30226.4,17942.9
30226.4,18277.6
Z" /> 
</g>
<g >
</g>
<g style="fill:#000000; fill-opacity:1.0; 
stroke:#000000; stroke-width:0; stroke-opacity:1; 
stroke-linecap:round; stroke-linejoin:round;">
<path style="fill:#000000; fill-opacity:1.0; 
stroke:#000000; stroke-width:0; stroke-opacity:1; 
stroke-linecap:round; stroke-linejoin:round;fill-rule:evenodd;"
d="M 28966.5,18277.6
28966.5,17942.9
29301.2,17942.9
29301.2,18277.6
Z" /> 
</g>
<g >
</g>
<g style="fill:#000000; fill-opacity:1.0; 
stroke:#000000; stroke-width:0; stroke-opacity:1; 
stroke-linecap:round; stroke-linejoin:round;">
<path style="fill:#000000; fill-opacity:1.0; 
stroke:#000000; stroke-width:0; stroke-opacity:1; 
stroke-linecap:round; stroke-linejoin:round;fill-rule:evenodd;"
d="M 23789.4,45108.3
23789.4,45442.9
23454.7,45442.9
23454.7,45108.3
Z" /> 
</g>
<g >
</g>
<g style="fill:#000000; fill-opacity:1.0; 
stroke:#000000; stroke-width:0; stroke-opacity:1; 
stroke-linecap:round; stroke-linejoin:round;">
<path style="fill:#000000; fill-opacity:1.0; 
stroke:#000000; stroke-width:0; stroke-opacity:1; 
stroke-linecap:round; stroke-linejoin:round;fill-rule:evenodd;"
d="M 24970.5,45108.3
24970.5,45442.9
24635.8,45442.9
24635.8,45108.3
Z" /> 
</g>
<g >
</g>
<g style="fill:#000000; fill-opacity:1.0; 
stroke:#000000; stroke-width:0; stroke-opacity:1; 
stroke-linecap:round; stroke-linejoin:round;">
<path style="fill:#000000; fill-opacity:1.0; 
stroke:#000000; stroke-width:0; stroke-opacity:1; 
stroke-linecap:round; stroke-linejoin:round;fill-rule:evenodd;"
d="M 28513.8,45108.3
28513.8,45442.9
28179.1,45442.9
28179.1,45108.3
Z" /> 
</g>
<g >
</g>
<g style="fill:#000000; fill-opacity:1.0; 
stroke:#000000; stroke-width:0; stroke-opacity:1; 
stroke-linecap:round; stroke-linejoin:round;">
<path style="fill:#000000; fill-opacity:1.0; 
stroke:#000000; stroke-width:0; stroke-opacity:1; 
stroke-linecap:round; stroke-linejoin:round;fill-rule:evenodd;"
d="M 29694.9,45108.3
29694.9,45442.9
29360.2,45442.9
29360.2,45108.3
Z" /> 
</g>
<g >
</g>
<g style="fill:#000000; fill-opacity:1.0; 
stroke:#000000; stroke-width:0; stroke-opacity:1; 
stroke-linecap:round; stroke-linejoin:round;">
<path style="fill:#000000; fill-opacity:1.0; 
stroke:#000000; stroke-width:0; stroke-opacity:1; 
stroke-linecap:round; stroke-linejoin:round;fill-rule:evenodd;"
d="M 39143.7,45895.7
39143.7,46230.3
38809.1,46230.3
38809.1,45895.7
Z" /> 
</g>
<g >
</g>
<g style="fill:#000000; fill-opacity:1.0; 
stroke:#000000; stroke-width:0; stroke-opacity:1; 
stroke-linecap:round; stroke-linejoin:round;">
<path style="fill:#000000; fill-opacity:1.0; 
stroke:#000000; stroke-width:0; stroke-opacity:1; 
stroke-linecap:round; stroke-linejoin:round;fill-rule:evenodd;"
d="M 37568.9,45895.7
37568.9,46230.3
37234.3,46230.3
37234.3,45895.7
Z" /> 
</g>
<g >
</g>
<g style="fill:#000000; fill-opacity:1.0; 
stroke:#000000; stroke-width:0; stroke-opacity:1; 
stroke-linecap:round; stroke-linejoin:round;">
<path style="fill:#000000; fill-opacity:1.0; 
stroke:#000000; stroke-width:0; stroke-opacity:1; 
stroke-linecap:round; stroke-linejoin:round;fill-rule:evenodd;"
d="M 41899.6,45895.7
41899.6,46230.3
41565,46230.3
41565,45895.7
Z" /> 
</g>
<g >
</g>
<g style="fill:#000000; fill-opacity:1.0; 
stroke:#000000; stroke-width:0; stroke-opacity:1; 
stroke-linecap:round; stroke-linejoin:round;">
<path style="fill:#000000; fill-opacity:1.0; 
stroke:#000000; stroke-width:0; stroke-opacity:1; 
stroke-linecap:round; stroke-linejoin:round;fill-rule:evenodd;"
d="M 43080.7,45895.7
43080.7,46230.3
42746.1,46230.3
42746.1,45895.7
Z" /> 
</g>
<g >
</g>
<g style="fill:#000000; fill-opacity:1.0; 
stroke:#000000; stroke-width:0; stroke-opacity:1; 
stroke-linecap:round; stroke-linejoin:round;">
<path style="fill:#000000; fill-opacity:1.0; 
stroke:#000000; stroke-width:0; stroke-opacity:1; 
stroke-linecap:round; stroke-linejoin:round;fill-rule:evenodd;"
d="M 36870.1,27421.3
36358.3,27421.3
36358.3,26909.4
36870.1,26909.4
Z" /> 
<circle cx="37614.2" cy="27165.4" r="255.906" /> 
</g>
<g style="fill:#000000; fill-opacity:1.0; 
stroke:#000000; stroke-width:39.3701; stroke-opacity:1; 
stroke-linecap:round; stroke-linejoin:round;">
</g>
<g style="fill:#000000; fill-opacity:1.0; 
stroke:#000000; stroke-width:0; stroke-opacity:1; 
stroke-linecap:round; stroke-linejoin:round;">
<circle cx="37114.2" cy="26665.4" r="255.906" /> 
</g>
<g style="fill:#000000; fill-opacity:1.0; 
stroke:#000000; stroke-width:39.3701; stroke-opacity:1; 
stroke-linecap:round; stroke-linejoin:round;">
</g>
<g >
</g>
<g style="fill:#000000; fill-opacity:1.0; 
stroke:#000000; stroke-width:39.3701; stroke-opacity:1; 
stroke-linecap:round; stroke-linejoin:round;">
</g>
<g style="fill:#000000; fill-opacity:1.0; 
stroke:#000000; stroke-width:0; stroke-opacity:1; 
stroke-linecap:round; stroke-linejoin:round;">
<circle cx="24606.3" cy="32283.5" r="236.22" /> 
</g>
<g style="fill:#000000; fill-opacity:1.0; 
stroke:#000000; stroke-width:39.3701; stroke-opacity:1; 
stroke-linecap:round; stroke-linejoin:round;">
</g>
<g style="fill:#000000; fill-opacity:1.0; 
stroke:#000000; stroke-width:0; stroke-opacity:1; 
stroke-linecap:round; stroke-linejoin:round;">
<path style="fill:#000000; fill-opacity:1.0; 
stroke:#000000; stroke-width:0; stroke-opacity:1; 
stroke-linecap:round; stroke-linejoin:round;fill-rule:evenodd;"
d="M 23779.5,32519.7
23779.5,32047.2
24252,32047.2
24252,32519.7
Z" /> 
</g>
<g >
</g>
<g style="fill:#000000; fill-opacity:1.0; 
stroke:#000000; stroke-width:0; stroke-opacity:1; 
stroke-linecap:round; stroke-linejoin:round;">
<circle cx="51378" cy="32677.2" r="236.22" /> 
</g>
<g style="fill:#000000; fill-opacity:1.0; 
stroke:#000000; stroke-width:39.3701; stroke-opacity:1; 
stroke-linecap:round; stroke-linejoin:round;">
</g>
<g style="fill:#000000; fill-opacity:1.0; 
stroke:#000000; stroke-width:0; stroke-opacity:1; 
stroke-linecap:round; stroke-linejoin:round;">
<path style="fill:#000000; fill-opacity:1.0; 
stroke:#000000; stroke-width:0; stroke-opacity:1; 
stroke-linecap:round; stroke-linejoin:round;fill-rule:evenodd;"
d="M 50551.2,32913.4
50551.2,32440.9
51023.6,32440.9
51023.6,32913.4
Z" /> 
</g>
<g >
</g>
<g style="fill:#000000; fill-opacity:1.0; 
stroke:#000000; stroke-width:0; stroke-opacity:1; 
stroke-linecap:round; stroke-linejoin:round;">
<circle cx="35039.4" cy="46259.8" r="236.22" /> 
</g>
<g style="fill:#000000; fill-opacity:1.0; 
stroke:#000000; stroke-width:39.3701; stroke-opacity:1; 
stroke-linecap:round; stroke-linejoin:round;">
</g>
<g style="fill:#000000; fill-opacity:1.0; 
stroke:#000000; stroke-width:0; stroke-opacity:1; 
stroke-linecap:round; stroke-linejoin:round;">
<path style="fill:#000000; fill-opacity:1.0; 
stroke:#000000; stroke-width:0; stroke-opacity:1; 
stroke-linecap:round; stroke-linejoin:round;fill-rule:evenodd;"
d="M 34803.1,45433.1
35275.6,45433.1
35275.6,45905.5
34803.1,45905.5
Z" /> 
</g>
<g >
</g>
<g style="fill:#000000; fill-opacity:1.0; 
stroke:#000000; stroke-width:0; stroke-opacity:1; 
stroke-linecap:round; stroke-linejoin:round;">
<circle cx="35039.4" cy="37598.4" r="236.22" /> 
</g>
<g style="fill:#000000; fill-opacity:1.0; 
stroke:#000000; stroke-width:39.3701; stroke-opacity:1; 
stroke-linecap:round; stroke-linejoin:round;">
</g>
<g style="fill:#000000; fill-opacity:1.0; 
stroke:#000000; stroke-width:0; stroke-opacity:1; 
stroke-linecap:round; stroke-linejoin:round;">
<path style="fill:#000000; fill-opacity:1.0; 
stroke:#000000; stroke-width:0; stroke-opacity:1; 
stroke-linecap:round; stroke-linejoin:round;fill-rule:evenodd;"
d="M 34803.1,36771.7
35275.6,36771.7
35275.6,37244.1
34803.1,37244.1
Z" /> 
</g>
<g >
</g>
<g style="fill:#000000; fill-opacity:1.0; 
stroke:#000000; stroke-width:0; stroke-opacity:1; 
stroke-linecap:round; stroke-linejoin:round;">
<circle cx="28346.5" cy="42322.8" r="236.22" /> 
</g>
<g style="fill:#000000; fill-opacity:1.0; 
stroke:#000000; stroke-width:39.3701; stroke-opacity:1; 
stroke-linecap:round; stroke-linejoin:round;">
</g>
<g style="fill:#000000; fill-opacity:1.0; 
stroke:#000000; stroke-width:0; stroke-opacity:1; 
stroke-linecap:round; stroke-linejoin:round;">
<path style="fill:#000000; fill-opacity:1.0; 
stroke:#000000; stroke-width:0; stroke-opacity:1; 
stroke-linecap:round; stroke-linejoin:round;fill-rule:evenodd;"
d="M 28110.2,41496.1
28582.7,41496.1
28582.7,41968.5
28110.2,41968.5
Z" /> 
</g>
<g >
</g>
<g style="fill:#000000; fill-opacity:1.0; 
stroke:#000000; stroke-width:0; stroke-opacity:1; 
stroke-linecap:round; stroke-linejoin:round;">
</g>
<g style="fill:#000000; fill-opacity:1.0; 
stroke:#000000; stroke-width:551.181; stroke-opacity:1; 
stroke-linecap:round; stroke-linejoin:round;">
</g>
<g style="fill:#000000; fill-opacity:0.0; 
stroke:#000000; stroke-width:551.181; stroke-opacity:1; 
stroke-linecap:round; stroke-linejoin:round;">
<path d="M50787 37826
L50787 37826
" />
</g>
<g style="fill:#000000; fill-opacity:1.0; 
stroke:#000000; stroke-width:0; stroke-opacity:1; 
stroke-linecap:round; stroke-linejoin:round;">
<circle cx="50787.4" cy="35826.8" r="275.591" /> 
</g>
<g style="fill:#000000; fill-opacity:1.0; 
stroke:#000000; stroke-width:39.3701; stroke-opacity:1; 
stroke-linecap:round; stroke-linejoin:round;">
</g>
<g >
</g>
<g style="fill:#000000; fill-opacity:1.0; 
stroke:#000000; stroke-width:39.3701; stroke-opacity:1; 
stroke-linecap:round; stroke-linejoin:round;">
</g>
<g style="fill:#000000; fill-opacity:1.0; 
stroke:#000000; stroke-width:551.181; stroke-opacity:1; 
stroke-linecap:round; stroke-linejoin:round;">
</g>
<g style="fill:#000000; fill-opacity:0.0; 
stroke:#000000; stroke-width:551.181; stroke-opacity:1; 
stroke-linecap:round; stroke-linejoin:round;">
<path d="M50787 29165
L50787 29165
" />
</g>
<g style="fill:#000000; fill-opacity:1.0; 
stroke:#000000; stroke-width:0; stroke-opacity:1; 
stroke-linecap:round; stroke-linejoin:round;">
<circle cx="50787.4" cy="27165.4" r="275.591" /> 
</g>
<g style="fill:#000000; fill-opacity:1.0; 
stroke:#000000; stroke-width:39.3701; stroke-opacity:1; 
stroke-linecap:round; stroke-linejoin:round;">
</g>
<g >
</g>
<g style="fill:#000000; fill-opacity:1.0; 
stroke:#000000; stroke-width:39.3701; stroke-opacity:1; 
stroke-linecap:round; stroke-linejoin:round;">
</g>
<g style="fill:#000000; fill-opacity:1.0; 
stroke:#000000; stroke-width:551.181; stroke-opacity:1; 
stroke-linecap:round; stroke-linejoin:round;">
</g>
<g style="fill:#000000; fill-opacity:0.0; 
stroke:#000000; stroke-width:551.181; stroke-opacity:1; 
stroke-linecap:round; stroke-linejoin:round;">
<path d="M47637 37826
L47637 37826
" />
</g>
<g style="fill:#000000; fill-opacity:1.0; 
stroke:#000000; stroke-width:0; stroke-opacity:1; 
stroke-linecap:round; stroke-linejoin:round;">
<circle cx="47637.8" cy="35826.8" r="275.591" /> 
</g>
<g style="fill:#000000; fill-opacity:1.0; 
stroke:#000000; stroke-width:39.3701; stroke-opacity:1; 
stroke-linecap:round; stroke-linejoin:round;">
</g>
<g >
</g>
<g style="fill:#000000; fill-opacity:1.0; 
stroke:#000000; stroke-width:39.3701; stroke-opacity:1; 
stroke-linecap:round; stroke-linejoin:round;">
</g>
<g style="fill:#000000; fill-opacity:1.0; 
stroke:#000000; stroke-width:551.181; stroke-opacity:1; 
stroke-linecap:round; stroke-linejoin:round;">
</g>
<g style="fill:#000000; fill-opacity:0.0; 
stroke:#000000; stroke-width:551.181; stroke-opacity:1; 
stroke-linecap:round; stroke-linejoin:round;">
<path d="M47637 29165
L47637 29165
" />
</g>
<g style="fill:#000000; fill-opacity:1.0; 
stroke:#000000; stroke-width:0; stroke-opacity:1; 
stroke-linecap:round; stroke-linejoin:round;">
<circle cx="47637.8" cy="27165.4" r="275.591" /> 
</g>
<g style="fill:#000000; fill-opacity:1.0; 
stroke:#000000; stroke-width:39.3701; stroke-opacity:1; 
stroke-linecap:round; stroke-linejoin:round;">
</g>
<g >
</g>
<g style="fill:#000000; fill-opacity:1.0; 
stroke:#000000; stroke-width:39.3701; stroke-opacity:1; 
stroke-linecap:round; stroke-linejoin:round;">
</g>
<g style="fill:#000000; fill-opacity:1.0; 
stroke:#000000; stroke-width:551.181; stroke-opacity:1; 
stroke-linecap:round; stroke-linejoin:round;">
</g>
<g style="fill:#000000; fill-opacity:0.0; 
stroke:#000000; stroke-width:551.181; stroke-opacity:1; 
stroke-linecap:round; stroke-linejoin:round;">
<path d="M24803 42157
L24803 42157
" />
</g>
<g style="fill:#000000; fill-opacity:1.0; 
stroke:#000000; stroke-width:0; stroke-opacity:1; 
stroke-linecap:round; stroke-linejoin:round;">
<circle cx="24803.1" cy="40157.5" r="275.591" /> 
</g>
<g style="fill:#000000; fill-opacity:1.0; 
stroke:#000000; stroke-width:39.3701; stroke-opacity:1; 
stroke-linecap:round; stroke-linejoin:round;">
</g>
<g >
</g>
<g style="fill:#000000; fill-opacity:1.0; 
stroke:#000000; stroke-width:39.3701; stroke-opacity:1; 
stroke-linecap:round; stroke-linejoin:round;">
</g>
<g style="fill:#000000; fill-opacity:1.0; 
stroke:#000000; stroke-width:551.181; stroke-opacity:1; 
stroke-linecap:round; stroke-linejoin:round;">
</g>
<g style="fill:#000000; fill-opacity:0.0; 
stroke:#000000; stroke-width:551.181; stroke-opacity:1; 
stroke-linecap:round; stroke-linejoin:round;">
<path d="M27559 37433
L27559 37433
" />
</g>
<g style="fill:#000000; fill-opacity:1.0; 
stroke:#000000; stroke-width:0; stroke-opacity:1; 
stroke-linecap:round; stroke-linejoin:round;">
<circle cx="27559.1" cy="35433.1" r="275.591" /> 
</g>
<g style="fill:#000000; fill-opacity:1.0; 
stroke:#000000; stroke-width:39.3701; stroke-opacity:1; 
stroke-linecap:round; stroke-linejoin:round;">
</g>
<g >
</g>
<g style="fill:#000000; fill-opacity:1.0; 
stroke:#000000; stroke-width:39.3701; stroke-opacity:1; 
stroke-linecap:round; stroke-linejoin:round;">
</g>
<g style="fill:#000000; fill-opacity:1.0; 
stroke:#000000; stroke-width:551.181; stroke-opacity:1; 
stroke-linecap:round; stroke-linejoin:round;">
</g>
<g style="fill:#000000; fill-opacity:0.0; 
stroke:#000000; stroke-width:551.181; stroke-opacity:1; 
stroke-linecap:round; stroke-linejoin:round;">
<path d="M27559 23259
L27559 23259
" />
</g>
<g style="fill:#000000; fill-opacity:1.0; 
stroke:#000000; stroke-width:0; stroke-opacity:1; 
stroke-linecap:round; stroke-linejoin:round;">
<circle cx="27559.1" cy="21259.8" r="275.591" /> 
</g>
<g style="fill:#000000; fill-opacity:1.0; 
stroke:#000000; stroke-width:39.3701; stroke-opacity:1; 
stroke-linecap:round; stroke-linejoin:round;">
</g>
<g >
</g>
<g style="fill:#000000; fill-opacity:1.0; 
stroke:#000000; stroke-width:39.3701; stroke-opacity:1; 
stroke-linecap:round; stroke-linejoin:round;">
</g>
<g style="fill:#000000; fill-opacity:1.0; 
stroke:#000000; stroke-width:551.181; stroke-opacity:1; 
stroke-linecap:round; stroke-linejoin:round;">
</g>
<g style="fill:#000000; fill-opacity:0.0; 
stroke:#000000; stroke-width:551.181; stroke-opacity:1; 
stroke-linecap:round; stroke-linejoin:round;">
<path d="M31496 46094
L31496 46094
" />
</g>
<g style="fill:#000000; fill-opacity:1.0; 
stroke:#000000; stroke-width:0; stroke-opacity:1; 
stroke-linecap:round; stroke-linejoin:round;">
<circle cx="31496.1" cy="44094.5" r="275.591" /> 
</g>
<g style="fill:#000000; fill-opacity:1.0; 
stroke:#000000; stroke-width:39.3701; stroke-opacity:1; 
stroke-linecap:round; stroke-linejoin:round;">
</g>
<g >
</g>
<g style="fill:#000000; fill-opacity:1.0; 
stroke:#000000; stroke-width:39.3701; stroke-opacity:1; 
stroke-linecap:round; stroke-linejoin:round;">
</g>
<g style="fill:#000000; fill-opacity:1.0; 
stroke:#000000; stroke-width:551.181; stroke-opacity:1; 
stroke-linecap:round; stroke-linejoin:round;">
</g>
<g style="fill:#000000; fill-opacity:0.0; 
stroke:#000000; stroke-width:551.181; stroke-opacity:1; 
stroke-linecap:round; stroke-linejoin:round;">
<path d="M35039 42070
L35039 42070
" />
</g>
<g style="fill:#000000; fill-opacity:1.0; 
stroke:#000000; stroke-width:0; stroke-opacity:1; 
stroke-linecap:round; stroke-linejoin:round;">
<circle cx="35039.4" cy="40070.9" r="275.591" /> 
</g>
<g style="fill:#000000; fill-opacity:1.0; 
stroke:#000000; stroke-width:39.3701; stroke-opacity:1; 
stroke-linecap:round; stroke-linejoin:round;">
</g>
<g >
</g>
<g style="fill:#000000; fill-opacity:1.0; 
stroke:#000000; stroke-width:39.3701; stroke-opacity:1; 
stroke-linecap:round; stroke-linejoin:round;">
</g>
<g style="fill:#000000; fill-opacity:1.0; 
stroke:#000000; stroke-width:551.181; stroke-opacity:1; 
stroke-linecap:round; stroke-linejoin:round;">
</g>
<g style="fill:#000000; fill-opacity:0.0; 
stroke:#000000; stroke-width:551.181; stroke-opacity:1; 
stroke-linecap:round; stroke-linejoin:round;">
<path d="M37795 32314
L37795 32314
" />
</g>
<g style="fill:#000000; fill-opacity:1.0; 
stroke:#000000; stroke-width:0; stroke-opacity:1; 
stroke-linecap:round; stroke-linejoin:round;">
<circle cx="37795.3" cy="30315" r="275.591" /> 
</g>
<g style="fill:#000000; fill-opacity:1.0; 
stroke:#000000; stroke-width:39.3701; stroke-opacity:1; 
stroke-linecap:round; stroke-linejoin:round;">
</g>
<g >
</g>
<g style="fill:#000000; fill-opacity:1.0; 
stroke:#000000; stroke-width:39.3701; stroke-opacity:1; 
stroke-linecap:round; stroke-linejoin:round;">
</g>
<g style="fill:#000000; fill-opacity:1.0; 
stroke:#000000; stroke-width:551.181; stroke-opacity:1; 
stroke-linecap:round; stroke-linejoin:round;">
</g>
<g style="fill:#000000; fill-opacity:0.0; 
stroke:#000000; stroke-width:551.181; stroke-opacity:1; 
stroke-linecap:round; stroke-linejoin:round;">
<path d="M33858 28771
L33858 28771
" />
</g>
<g style="fill:#000000; fill-opacity:1.0; 
stroke:#000000; stroke-width:0; stroke-opacity:1; 
stroke-linecap:round; stroke-linejoin:round;">
<circle cx="33858.3" cy="26771.7" r="275.591" /> 
</g>
<g style="fill:#000000; fill-opacity:1.0; 
stroke:#000000; stroke-width:39.3701; stroke-opacity:1; 
stroke-linecap:round; stroke-linejoin:round;">
</g>
<g >
</g>
<g style="fill:#000000; fill-opacity:1.0; 
stroke:#000000; stroke-width:39.3701; stroke-opacity:1; 
stroke-linecap:round; stroke-linejoin:round;">
</g>
<g style="fill:#000000; fill-opacity:1.0; 
stroke:#000000; stroke-width:551.181; stroke-opacity:1; 
stroke-linecap:round; stroke-linejoin:round;">
</g>
<g style="fill:#000000; fill-opacity:0.0; 
stroke:#000000; stroke-width:551.181; stroke-opacity:1; 
stroke-linecap:round; stroke-linejoin:round;">
<path d="M33858 23259
L33858 23259
" />
</g>
<g style="fill:#000000; fill-opacity:1.0; 
stroke:#000000; stroke-width:0; stroke-opacity:1; 
stroke-linecap:round; stroke-linejoin:round;">
<circle cx="33858.3" cy="21259.8" r="275.591" /> 
</g>
<g style="fill:#000000; fill-opacity:1.0; 
stroke:#000000; stroke-width:39.3701; stroke-opacity:1; 
stroke-linecap:round; stroke-linejoin:round;">
</g>
<g >
</g>
<g style="fill:#000000; fill-opacity:1.0; 
stroke:#000000; stroke-width:39.3701; stroke-opacity:1; 
stroke-linecap:round; stroke-linejoin:round;">
</g>
<g style="fill:#000000; fill-opacity:1.0; 
stroke:#000000; stroke-width:551.181; stroke-opacity:1; 
stroke-linecap:round; stroke-linejoin:round;">
</g>
<g style="fill:#000000; fill-opacity:0.0; 
stroke:#000000; stroke-width:551.181; stroke-opacity:1; 
stroke-linecap:round; stroke-linejoin:round;">
<path d="M31496 42157
L31496 42157
" />
</g>
<g style="fill:#000000; fill-opacity:1.0; 
stroke:#000000; stroke-width:0; stroke-opacity:1; 
stroke-linecap:round; stroke-linejoin:round;">
<circle cx="31496.1" cy="40157.5" r="275.591" /> 
</g>
<g style="fill:#000000; fill-opacity:1.0; 
stroke:#000000; stroke-width:39.3701; stroke-opacity:1; 
stroke-linecap:round; stroke-linejoin:round;">
</g>
<g >
</g>
<g style="fill:#000000; fill-opacity:1.0; 
stroke:#000000; stroke-width:39.3701; stroke-opacity:1; 
stroke-linecap:round; stroke-linejoin:round;">
</g>
<g style="fill:#000000; fill-opacity:1.0; 
stroke:#000000; stroke-width:551.181; stroke-opacity:1; 
stroke-linecap:round; stroke-linejoin:round;">
</g>
<g style="fill:#000000; fill-opacity:0.0; 
stroke:#000000; stroke-width:551.181; stroke-opacity:1; 
stroke-linecap:round; stroke-linejoin:round;">
<path d="M31496 28771
L31496 28771
" />
</g>
<g style="fill:#000000; fill-opacity:1.0; 
stroke:#000000; stroke-width:0; stroke-opacity:1; 
stroke-linecap:round; stroke-linejoin:round;">
<circle cx="31496.1" cy="26771.7" r="275.591" /> 
</g>
<g style="fill:#000000; fill-opacity:1.0; 
stroke:#000000; stroke-width:39.3701; stroke-opacity:1; 
stroke-linecap:round; stroke-linejoin:round;">
</g>
<g >
</g>
<g style="fill:#000000; fill-opacity:1.0; 
stroke:#000000; stroke-width:39.3701; stroke-opacity:1; 
stroke-linecap:round; stroke-linejoin:round;">
</g>
<g style="fill:#000000; fill-opacity:1.0; 
stroke:#000000; stroke-width:551.181; stroke-opacity:1; 
stroke-linecap:round; stroke-linejoin:round;">
</g>
<g style="fill:#000000; fill-opacity:0.0; 
stroke:#000000; stroke-width:551.181; stroke-opacity:1; 
stroke-linecap:round; stroke-linejoin:round;">
<path d="M31496 37433
L31496 37433
" />
</g>
<g style="fill:#000000; fill-opacity:1.0; 
stroke:#000000; stroke-width:0; stroke-opacity:1; 
stroke-linecap:round; stroke-linejoin:round;">
<circle cx="31496.1" cy="35433.1" r="275.591" /> 
</g>
<g style="fill:#000000; fill-opacity:1.0; 
stroke:#000000; stroke-width:39.3701; stroke-opacity:1; 
stroke-linecap:round; stroke-linejoin:round;">
</g>
<g >
</g>
<g style="fill:#000000; fill-opacity:1.0; 
stroke:#000000; stroke-width:39.3701; stroke-opacity:1; 
stroke-linecap:round; stroke-linejoin:round;">
</g>
<g style="fill:#000000; fill-opacity:1.0; 
stroke:#000000; stroke-width:551.181; stroke-opacity:1; 
stroke-linecap:round; stroke-linejoin:round;">
</g>
<g style="fill:#000000; fill-opacity:0.0; 
stroke:#000000; stroke-width:551.181; stroke-opacity:1; 
stroke-linecap:round; stroke-linejoin:round;">
<path d="M24803 37433
L24803 37433
" />
</g>
<g style="fill:#000000; fill-opacity:1.0; 
stroke:#000000; stroke-width:0; stroke-opacity:1; 
stroke-linecap:round; stroke-linejoin:round;">
<circle cx="24803.1" cy="35433.1" r="275.591" /> 
</g>
<g style="fill:#000000; fill-opacity:1.0; 
stroke:#000000; stroke-width:39.3701; stroke-opacity:1; 
stroke-linecap:round; stroke-linejoin:round;">
</g>
<g >
</g>
<g style="fill:#000000; fill-opacity:1.0; 
stroke:#000000; stroke-width:39.3701; stroke-opacity:1; 
stroke-linecap:round; stroke-linejoin:round;">
</g>
<g style="fill:#000000; fill-opacity:1.0; 
stroke:#000000; stroke-width:551.181; stroke-opacity:1; 
stroke-linecap:round; stroke-linejoin:round;">
</g>
<g style="fill:#000000; fill-opacity:0.0; 
stroke:#000000; stroke-width:551.181; stroke-opacity:1; 
stroke-linecap:round; stroke-linejoin:round;">
<path d="M24803 28771
L24803 28771
" />
</g>
<g style="fill:#000000; fill-opacity:1.0; 
stroke:#000000; stroke-width:0; stroke-opacity:1; 
stroke-linecap:round; stroke-linejoin:round;">
<circle cx="24803.1" cy="26771.7" r="275.591" /> 
</g>
<g style="fill:#000000; fill-opacity:1.0; 
stroke:#000000; stroke-width:39.3701; stroke-opacity:1; 
stroke-linecap:round; stroke-linejoin:round;">
</g>
<g >
</g>
<g style="fill:#000000; fill-opacity:1.0; 
stroke:#000000; stroke-width:39.3701; stroke-opacity:1; 
stroke-linecap:round; stroke-linejoin:round;">
</g>
<g style="fill:#000000; fill-opacity:1.0; 
stroke:#000000; stroke-width:0; stroke-opacity:1; 
stroke-linecap:round; stroke-linejoin:round;">
<circle cx="50100.4" cy="45850.4" r="529.528" /> 
</g>
<g style="fill:#000000; fill-opacity:1.0; 
stroke:#000000; stroke-width:39.3701; stroke-opacity:1; 
stroke-linecap:round; stroke-linejoin:round;">
</g>
<g style="fill:#000000; fill-opacity:1.0; 
stroke:#000000; stroke-width:0; stroke-opacity:1; 
stroke-linecap:round; stroke-linejoin:round;">
<circle cx="50100.4" cy="43700.8" r="529.528" /> 
</g>
<g style="fill:#000000; fill-opacity:1.0; 
stroke:#000000; stroke-width:39.3701; stroke-opacity:1; 
stroke-linecap:round; stroke-linejoin:round;">
</g>
<g style="fill:#000000; fill-opacity:1.0; 
stroke:#000000; stroke-width:0; stroke-opacity:1; 
stroke-linecap:round; stroke-linejoin:round;">
<path style="fill:#000000; fill-opacity:1.0; 
stroke:#000000; stroke-width:0; stroke-opacity:1; 
stroke-linecap:round; stroke-linejoin:round;fill-rule:evenodd;"
d="M 49570.9,41021.7
50629.9,41021.7
50629.9,42080.7
49570.9,42080.7
Z" /> 
</g>
<g >
</g>
<g style="fill:#000000; fill-opacity:1.0; 
stroke:#000000; stroke-width:0; stroke-opacity:1; 
stroke-linecap:round; stroke-linejoin:round;">
<circle cx="49899.6" cy="19897.6" r="529.528" /> 
</g>
<g style="fill:#000000; fill-opacity:1.0; 
stroke:#000000; stroke-width:39.3701; stroke-opacity:1; 
stroke-linecap:round; stroke-linejoin:round;">
</g>
<g style="fill:#000000; fill-opacity:1.0; 
stroke:#000000; stroke-width:0; stroke-opacity:1; 
stroke-linecap:round; stroke-linejoin:round;">
<circle cx="49899.6" cy="22047.2" r="529.528" /> 
</g>
<g style="fill:#000000; fill-opacity:1.0; 
stroke:#000000; stroke-width:39.3701; stroke-opacity:1; 
stroke-linecap:round; stroke-linejoin:round;">
</g>
<g style="fill:#000000; fill-opacity:1.0; 
stroke:#000000; stroke-width:0; stroke-opacity:1; 
stroke-linecap:round; stroke-linejoin:round;">
<path style="fill:#000000; fill-opacity:1.0; 
stroke:#000000; stroke-width:0; stroke-opacity:1; 
stroke-linecap:round; stroke-linejoin:round;fill-rule:evenodd;"
d="M 50429.1,24726.4
49370.1,24726.4
49370.1,23667.3
50429.1,23667.3
Z" /> 
</g>
<g >
</g>
<g style="fill:#000000; fill-opacity:1.0; 
stroke:#000000; stroke-width:0; stroke-opacity:1; 
stroke-linecap:round; stroke-linejoin:round;">
<circle cx="43013.8" cy="41519.7" r="529.528" /> 
</g>
<g style="fill:#000000; fill-opacity:1.0; 
stroke:#000000; stroke-width:39.3701; stroke-opacity:1; 
stroke-linecap:round; stroke-linejoin:round;">
</g>
<g style="fill:#000000; fill-opacity:1.0; 
stroke:#000000; stroke-width:0; stroke-opacity:1; 
stroke-linecap:round; stroke-linejoin:round;">
<circle cx="43013.8" cy="39370.1" r="529.528" /> 
</g>
<g style="fill:#000000; fill-opacity:1.0; 
stroke:#000000; stroke-width:39.3701; stroke-opacity:1; 
stroke-linecap:round; stroke-linejoin:round;">
</g>
<g style="fill:#000000; fill-opacity:1.0; 
stroke:#000000; stroke-width:0; stroke-opacity:1; 
stroke-linecap:round; stroke-linejoin:round;">
<path style="fill:#000000; fill-opacity:1.0; 
stroke:#000000; stroke-width:0; stroke-opacity:1; 
stroke-linecap:round; stroke-linejoin:round;fill-rule:evenodd;"
d="M 42484.3,36690.9
43543.3,36690.9
43543.3,37750
42484.3,37750
Z" /> 
</g>
<g >
</g>
<g style="fill:#000000; fill-opacity:1.0; 
stroke:#000000; stroke-width:0; stroke-opacity:1; 
stroke-linecap:round; stroke-linejoin:round;">
<circle cx="42813" cy="22259.8" r="529.528" /> 
</g>
<g style="fill:#000000; fill-opacity:1.0; 
stroke:#000000; stroke-width:39.3701; stroke-opacity:1; 
stroke-linecap:round; stroke-linejoin:round;">
</g>
<g style="fill:#000000; fill-opacity:1.0; 
stroke:#000000; stroke-width:0; stroke-opacity:1; 
stroke-linecap:round; stroke-linejoin:round;">
<circle cx="42813" cy="24409.4" r="529.528" /> 
</g>
<g style="fill:#000000; fill-opacity:1.0; 
stroke:#000000; stroke-width:39.3701; stroke-opacity:1; 
stroke-linecap:round; stroke-linejoin:round;">
</g>
<g style="fill:#000000; fill-opacity:1.0; 
stroke:#000000; stroke-width:0; stroke-opacity:1; 
stroke-linecap:round; stroke-linejoin:round;">
<path style="fill:#000000; fill-opacity:1.0; 
stroke:#000000; stroke-width:0; stroke-opacity:1; 
stroke-linecap:round; stroke-linejoin:round;fill-rule:evenodd;"
d="M 43342.5,27088.6
42283.5,27088.6
42283.5,26029.5
43342.5,26029.5
Z" /> 
</g>
<g >
</g>
<g style="fill:#000000; fill-opacity:1.0; 
stroke:#000000; stroke-width:0; stroke-opacity:1; 
stroke-linecap:round; stroke-linejoin:round;">
<path style="fill:#000000; fill-opacity:1.0; 
stroke:#000000; stroke-width:0; stroke-opacity:1; 
stroke-linecap:round; stroke-linejoin:round;fill-rule:evenodd;"
d="M 33720.5,32539.4
33208.7,32539.4
33208.7,32027.6
33720.5,32027.6
Z" /> 
<circle cx="34464.6" cy="32283.5" r="255.906" /> 
</g>
<g style="fill:#000000; fill-opacity:1.0; 
stroke:#000000; stroke-width:39.3701; stroke-opacity:1; 
stroke-linecap:round; stroke-linejoin:round;">
</g>
<g style="fill:#000000; fill-opacity:1.0; 
stroke:#000000; stroke-width:0; stroke-opacity:1; 
stroke-linecap:round; stroke-linejoin:round;">
<circle cx="33964.6" cy="31783.5" r="255.906" /> 
</g>
<g style="fill:#000000; fill-opacity:1.0; 
stroke:#000000; stroke-width:39.3701; stroke-opacity:1; 
stroke-linecap:round; stroke-linejoin:round;">
</g>
<g >
</g>
<g style="fill:#000000; fill-opacity:1.0; 
stroke:#000000; stroke-width:39.3701; stroke-opacity:1; 
stroke-linecap:round; stroke-linejoin:round;">
</g>
<g style="fill:#000000; fill-opacity:1.0; 
stroke:#000000; stroke-width:0; stroke-opacity:1; 
stroke-linecap:round; stroke-linejoin:round;">
<path style="fill:#000000; fill-opacity:1.0; 
stroke:#000000; stroke-width:0; stroke-opacity:1; 
stroke-linecap:round; stroke-linejoin:round;fill-rule:evenodd;"
d="M 27815,28602.4
27303.1,28602.4
27303.1,28090.6
27815,28090.6
Z" /> 
<circle cx="28559.1" cy="28346.5" r="255.906" /> 
</g>
<g style="fill:#000000; fill-opacity:1.0; 
stroke:#000000; stroke-width:39.3701; stroke-opacity:1; 
stroke-linecap:round; stroke-linejoin:round;">
</g>
<g style="fill:#000000; fill-opacity:1.0; 
stroke:#000000; stroke-width:0; stroke-opacity:1; 
stroke-linecap:round; stroke-linejoin:round;">
<circle cx="28059.1" cy="27846.5" r="255.906" /> 
</g>
<g style="fill:#000000; fill-opacity:1.0; 
stroke:#000000; stroke-width:39.3701; stroke-opacity:1; 
stroke-linecap:round; stroke-linejoin:round;">
</g>
<g >
</g>
<g style="fill:#000000; fill-opacity:1.0; 
stroke:#000000; stroke-width:39.3701; stroke-opacity:1; 
stroke-linecap:round; stroke-linejoin:round;">
</g>
<g style="fill:#000000; fill-opacity:1.0; 
stroke:#000000; stroke-width:0; stroke-opacity:1; 
stroke-linecap:round; stroke-linejoin:round;">
<path style="fill:#000000; fill-opacity:1.0; 
stroke:#000000; stroke-width:0; stroke-opacity:1; 
stroke-linecap:round; stroke-linejoin:round;fill-rule:evenodd;"
d="M 27815,32539.4
27303.1,32539.4
27303.1,32027.6
27815,32027.6
Z" /> 
<circle cx="28559.1" cy="32283.5" r="255.906" /> 
</g>
<g style="fill:#000000; fill-opacity:1.0; 
stroke:#000000; stroke-width:39.3701; stroke-opacity:1; 
stroke-linecap:round; stroke-linejoin:round;">
</g>
<g style="fill:#000000; fill-opacity:1.0; 
stroke:#000000; stroke-width:0; stroke-opacity:1; 
stroke-linecap:round; stroke-linejoin:round;">
<circle cx="28059.1" cy="31783.5" r="255.906" /> 
</g>
<g style="fill:#000000; fill-opacity:1.0; 
stroke:#000000; stroke-width:39.3701; stroke-opacity:1; 
stroke-linecap:round; stroke-linejoin:round;">
</g>
<g >
</g>
<g style="fill:#000000; fill-opacity:1.0; 
stroke:#000000; stroke-width:39.3701; stroke-opacity:1; 
stroke-linecap:round; stroke-linejoin:round;">
</g>
<g style="fill:#000000; fill-opacity:1.0; 
stroke:#000000; stroke-width:0; stroke-opacity:1; 
stroke-linecap:round; stroke-linejoin:round;">
<path style="fill:#000000; fill-opacity:1.0; 
stroke:#000000; stroke-width:0; stroke-opacity:1; 
stroke-linecap:round; stroke-linejoin:round;fill-rule:evenodd;"
d="M 18882.2,33446.5
18915.6,33451.5
18948.4,33459.7
18980.3,33471.1
19010.8,33485.6
19039.8,33502.9
19067,33523.1
19092,33545.8
19114.7,33570.8
19134.9,33598
19152.2,33627
19166.7,33657.5
19178.1,33689.4
19186.3,33722.2
19191.3,33755.6
19192.9,33789.4
19192.9,34478.3
19191.3,34512.1
19186.3,34545.6
19178.1,34578.3
19166.7,34610.2
19152.2,34640.7
19134.9,34669.7
19114.7,34696.9
19092,34721.9
19067,34744.6
19039.8,34764.8
19010.8,34782.2
18980.3,34796.6
18948.4,34808
18915.6,34816.2
18882.2,34821.2
18848.4,34822.8
18159.4,34822.8
18125.7,34821.2
18092.2,34816.2
18059.4,34808
18027.6,34796.6
17997.1,34782.2
17968.1,34764.8
17940.9,34744.6
17915.9,34721.9
17893.2,34696.9
17873,34669.7
17855.6,34640.7
17841.2,34610.2
17829.8,34578.3
17821.6,34545.6
17816.6,34512.1
17815,34478.3
17815,33789.4
17816.6,33755.6
17821.6,33722.2
17829.8,33689.4
17841.2,33657.5
17855.6,33627
17873,33598
17893.2,33570.8
17915.9,33545.8
17940.9,33523.1
17968.1,33502.9
17997.1,33485.6
18027.6,33471.1
18059.4,33459.7
18092.2,33451.5
18125.7,33446.5
18159.4,33444.9
18848.4,33444.9
Z" /> 
<path style="fill:#000000; fill-opacity:1.0; 
stroke:#000000; stroke-width:0; stroke-opacity:1; 
stroke-linecap:round; stroke-linejoin:round;fill-rule:evenodd;"
d="M 17647.1,31595.9
17675.7,31600.2
17703.8,31607.2
17731.1,31617
17757.3,31629.4
17782.2,31644.3
17805.4,31661.5
17826.9,31681
17846.4,31702.4
17863.6,31725.7
17878.5,31750.6
17890.9,31776.8
17900.7,31804
17907.7,31832.2
17912,31860.8
17913.4,31889.8
17913.4,32677.2
17912,32706.1
17907.7,32734.8
17900.7,32762.9
17890.9,32790.2
17878.5,32816.4
17863.6,32841.2
17846.4,32864.5
17826.9,32886
17805.4,32905.4
17782.2,32922.7
17757.3,32937.6
17731.1,32950
17703.8,32959.7
17675.7,32966.8
17647.1,32971
17618.1,32972.4
17027.6,32972.4
16998.6,32971
16970,32966.8
16941.8,32959.7
16914.6,32950
16888.4,32937.6
16863.5,32922.7
16840.2,32905.4
16818.8,32886
16799.3,32864.5
16782,32841.2
16767.1,32816.4
16754.8,32790.2
16745,32762.9
16738,32734.8
16733.7,32706.1
16732.3,32677.2
16732.3,31889.8
16733.7,31860.8
16738,31832.2
16745,31804
16754.8,31776.8
16767.1,31750.6
16782,31725.7
16799.3,31702.4
16818.8,31681
16840.2,31661.5
16863.5,31644.3
16888.4,31629.4
16914.6,31617
16941.8,31607.2
16970,31600.2
16998.6,31595.9
17027.6,31594.5
17618.1,31594.5
Z" /> 
<path style="fill:#000000; fill-opacity:1.0; 
stroke:#000000; stroke-width:0; stroke-opacity:1; 
stroke-linecap:round; stroke-linejoin:round;fill-rule:evenodd;"
d="M 18996.1,32972.4
18996.1,31594.5
20374,31594.5
20374,32972.4
Z" /> 
</g>
<g >
</g>
<g style="fill:#000000; fill-opacity:1.0; 
stroke:#000000; stroke-width:0; stroke-opacity:1; 
stroke-linecap:round; stroke-linejoin:round;">
<path style="fill:#000000; fill-opacity:1.0; 
stroke:#000000; stroke-width:0; stroke-opacity:1; 
stroke-linecap:round; stroke-linejoin:round;fill-rule:evenodd;"
d="M 56677.5,23446.5
56710.9,23451.5
56743.7,23459.7
56775.5,23471.1
56806.1,23485.6
56835.1,23502.9
56862.2,23523.1
56887.3,23545.8
56910,23570.8
56930.1,23598
56947.5,23627
56962,23657.5
56973.4,23689.4
56981.6,23722.2
56986.5,23755.6
56988.2,23789.4
56988.2,24478.3
56986.5,24512.1
56981.6,24545.6
56973.4,24578.3
56962,24610.2
56947.5,24640.7
56930.1,24669.7
56910,24696.9
56887.3,24721.9
56862.2,24744.6
56835.1,24764.8
56806.1,24782.2
56775.5,24796.6
56743.7,24808
56710.9,24816.2
56677.5,24821.2
56643.7,24822.8
55954.7,24822.8
55921,24821.2
55887.5,24816.2
55854.7,24808
55822.9,24796.6
55792.3,24782.2
55763.3,24764.8
55736.2,24744.6
55711.1,24721.9
55688.4,24696.9
55668.3,24669.7
55650.9,24640.7
55636.5,24610.2
55625.1,24578.3
55616.9,24545.6
55611.9,24512.1
55610.2,24478.3
55610.2,23789.4
55611.9,23755.6
55616.9,23722.2
55625.1,23689.4
55636.5,23657.5
55650.9,23627
55668.3,23598
55688.4,23570.8
55711.1,23545.8
55736.2,23523.1
55763.3,23502.9
55792.3,23485.6
55822.9,23471.1
55854.7,23459.7
55887.5,23451.5
55921,23446.5
55954.7,23444.9
56643.7,23444.9
Z" /> 
<path style="fill:#000000; fill-opacity:1.0; 
stroke:#000000; stroke-width:0; stroke-opacity:1; 
stroke-linecap:round; stroke-linejoin:round;fill-rule:evenodd;"
d="M 57804.5,25296.7
57833.2,25300.9
57861.3,25308
57888.6,25317.8
57914.8,25330.1
57939.6,25345
57962.9,25362.3
57984.4,25381.8
58003.8,25403.2
58021.1,25426.5
58036,25451.4
58048.4,25477.6
58058.2,25504.8
58065.2,25532.9
58069.4,25561.6
58070.9,25590.6
58070.9,26378
58069.4,26406.9
58065.2,26435.6
58058.2,26463.7
58048.4,26491
58036,26517.1
58021.1,26542
58003.8,26565.3
57984.4,26586.7
57962.9,26606.2
57939.6,26623.5
57914.8,26638.4
57888.6,26650.8
57861.3,26660.5
57833.2,26667.6
57804.5,26671.8
57775.6,26673.2
57185,26673.2
57156.1,26671.8
57127.4,26667.6
57099.3,26660.5
57072,26650.8
57045.8,26638.4
57021,26623.5
56997.7,26606.2
56976.2,26586.7
56956.8,26565.3
56939.5,26542
56924.6,26517.1
56912.2,26491
56902.5,26463.7
56895.4,26435.6
56891.2,26406.9
56889.8,26378
56889.8,25590.6
56891.2,25561.6
56895.4,25532.9
56902.5,25504.8
56912.2,25477.6
56924.6,25451.4
56939.5,25426.5
56956.8,25403.2
56976.2,25381.8
56997.7,25362.3
57021,25345
57045.8,25330.1
57072,25317.8
57099.3,25308
57127.4,25300.9
57156.1,25296.7
57185,25295.3
57775.6,25295.3
Z" /> 
<path style="fill:#000000; fill-opacity:1.0; 
stroke:#000000; stroke-width:0; stroke-opacity:1; 
stroke-linecap:round; stroke-linejoin:round;fill-rule:evenodd;"
d="M 55807.1,25295.3
55807.1,26673.2
54429.1,26673.2
54429.1,25295.3
Z" /> 
</g>
<g >
</g>
<g >
</g>
<g >
</g>
<g >
</g>
<g >
</g>
<g >
</g>
<g style="fill:#000000; fill-opacity:1.0; 
stroke:#000000; stroke-width:0; stroke-opacity:1; 
stroke-linecap:round; stroke-linejoin:round;">
</g>
<g style="fill:#000000; fill-opacity:1.0; 
stroke:#000000; stroke-width:196.85; stroke-opacity:1; 
stroke-linecap:round; stroke-linejoin:round;">
</g>
<g style="fill:#000000; fill-opacity:0.0; 
stroke:#000000; stroke-width:196.85; stroke-opacity:1; 
stroke-linecap:round; stroke-linejoin:round;">
<path d="M28346 45275
L29527 45275
" />
<path d="M23228 33070
L24015 32283
" />
<path d="M24803 44094
L23228 42519
" />
<path d="M23228 42519
L23228 33070
" />
<path d="M27165 44094
L28346 45275
" />
<path d="M24803 44094
L27165 44094
" />
<path d="M24803 37433
L24803 37401
" />
<path d="M42913 46062
L41732 46062
" />
<path d="M39763 44094
L41732 46062
" />
<path d="M33858 42913
L35039 44094
" />
<path d="M35039 44094
L39763 44094
" />
<path d="M33858 41338
L33858 42913
" />
<path d="M32283 39763
L33858 41338
" />
<path d="M31496 26771
L32283 27559
" />
<path d="M32283 27559
L32283 39763
" />
<path d="M29133 18322
L29133 18110
" />
<path d="M29133 21685
L27559 23259
" />
<path d="M29133 18110
L29133 21685
" />
</g>
<g style="fill:#000000; fill-opacity:0.0; 
stroke:#000000; stroke-width:295.276; stroke-opacity:1; 
stroke-linecap:round; stroke-linejoin:round;">
<path d="M49031 41551
L50100 41551
" />
<path d="M43013 37220
L44700 37220
" />
<path d="M44700 37220
L49031 41551
" />
</g>
<g style="fill:#000000; fill-opacity:0.0; 
stroke:#000000; stroke-width:196.85; stroke-opacity:1; 
stroke-linecap:round; stroke-linejoin:round;">
<path d="M38188 26590
L37614 27165
" />
<path d="M38188 21653
L38188 26590
" />
<path d="M30059 18110
L34645 18110
" />
<path d="M34645 18110
L38188 21653
" />
</g>
<g style="fill:#000000; fill-opacity:0.0; 
stroke:#000000; stroke-width:295.276; stroke-opacity:1; 
stroke-linecap:round; stroke-linejoin:round;">
<path d="M42812 26559
L44307 26559
" />
<path d="M46669 24196
L49899 24196
" />
<path d="M44307 26559
L46669 24196
" />
</g>
<g >
</g>
<g style="fill:#000000; fill-opacity:0.0; 
stroke:#000000; stroke-width:295.276; stroke-opacity:1; 
stroke-linecap:round; stroke-linejoin:round;">
</g>
<g style="fill:#000000; fill-opacity:1.0; 
stroke:#000000; stroke-width:100; stroke-opacity:1; 
stroke-linecap:round; stroke-linejoin:round;">
<path style="fill:#000000; fill-opacity:1.0; 
stroke:#000000; stroke-width:100; stroke-opacity:1; 
stroke-linecap:round; stroke-linejoin:round;fill-rule:evenodd;"
d="M 58795.3,47771.7
18906.8,47771.7
18490.6,47742.2
18091.6,47656.3
17708.7,47515
17349.6,47321.2
17021.3,47078.8
16730.5,46792.5
16482.9,46468.1
16347.2,46225.7
30987.1,46225.7
31022.5,46322.5
31076.1,46410.5
31145.8,46486.4
31229,46547.2
31322.4,46590.6
31364.8,46603.4
31446.1,46554.9
31446.1,46144.5
31546.1,46144.5
31546.1,46554.9
31627.3,46603.4
31657.1,46594.4
34775.5,46594.4
34794.2,46682.4
34881.3,46722.1
34974.5,46744.1
35070.3,46747.4
35164.8,46732
35254.5,46698.5
35284.6,46682.4
35303.2,46594.4
35039.4,46330.6
34775.5,46594.4
31657.1,46594.4
31669.7,46590.6
31763.1,46547.2
31846.3,46486.4
31916,46410.5
31969.6,46322.5
31981.2,46290.7
34551.8,46290.7
34567.2,46385.3
34600.7,46475
34616.8,46505.1
34704.8,46523.7
34968.7,46259.8
34963.1,46254.3
35033.8,46183.6
35039.4,46189.1
35044.9,46183.6
35115.6,46254.3
35110.1,46259.8
35373.9,46523.7
35461.9,46505.1
35501.7,46417.9
35523.6,46324.7
35526.9,46230.3
36983,46230.3
36987.9,46279.3
37002.2,46326.4
37025.4,46369.9
37056.6,46407.9
37094.7,46439.2
37138.1,46462.4
37185.2,46476.7
37234.3,46481.5
37289.1,46480.3
37351.6,46417.8
37351.6,46113
37451.6,46113
37451.6,46417.8
37514.1,46480.3
37568.9,46481.5
37617.9,46476.7
37665,46462.4
37708.5,46439.2
37746.5,46407.9
37777.8,46369.9
37801,46326.4
37815.3,46279.3
37820.1,46230.3
38557.8,46230.3
38562.7,46279.3
38577,46326.4
38600.2,46369.9
38631.4,46407.9
38669.5,46439.2
38712.9,46462.4
38760,46476.7
38809.1,46481.5
38863.9,46480.3
38926.4,46417.8
38926.4,46113
39026.4,46113
39026.4,46417.8
39088.9,46480.3
39143.7,46481.5
39192.7,46476.7
39239.8,46462.4
39283.3,46439.2
39321.3,46407.9
39352.6,46369.9
39375.8,46326.4
39390.1,46279.3
39394.9,46230.3
39393.7,46175.5
39331.2,46113
39026.4,46113
38926.4,46113
38621.6,46113
38559.1,46175.5
38557.8,46230.3
37820.1,46230.3
37818.9,46175.5
37756.4,46113
37451.6,46113
37351.6,46113
37046.8,46113
36984.3,46175.5
36983,46230.3
35526.9,46230.3
35527,46229
35511.6,46134.4
35480.1,46050.3
35484.5,46045.1
35507.7,46001.6
35522,45954.5
35526.8,45905.5
35526.8,45895.7
36983,45895.7
36984.3,45950.5
37046.8,46013
37351.6,46013
37351.6,45708.2
37451.6,45708.2
37451.6,46013
37756.4,46013
37818.9,45950.5
37820.1,45895.7
38557.8,45895.7
38559.1,45950.5
38621.6,46013
38926.4,46013
38926.4,45708.2
39026.4,45708.2
39026.4,46013
39331.2,46013
39393.7,45950.5
39394.9,45895.7
39390.1,45846.7
39375.8,45799.5
39352.6,45756.1
39321.3,45718
39283.3,45686.8
39239.8,45663.6
39192.7,45649.3
39143.7,45644.5
39088.9,45645.7
39026.4,45708.2
38926.4,45708.2
38863.9,45645.7
38809.1,45644.5
38760,45649.3
38712.9,45663.6
38669.5,45686.8
38631.4,45718
38600.2,45756.1
38577,45799.5
38562.7,45846.7
38557.8,45895.7
37820.1,45895.7
37815.3,45846.7
37801,45799.5
37777.8,45756.1
37746.5,45718
37708.5,45686.8
37665,45663.6
37617.9,45649.3
37568.9,45644.5
37514.1,45645.7
37451.6,45708.2
37351.6,45708.2
37289.1,45645.7
37234.3,45644.5
37185.2,45649.3
37138.1,45663.6
37094.7,45686.8
37056.6,45718
37025.4,45756.1
37002.2,45799.5
36987.9,45846.7
36983,45895.7
35526.8,45895.7
35526.8,45433.1
35522,45384.1
35507.7,45336.9
35484.5,45293.5
35453.2,45255.4
35415.2,45224.2
35371.7,45201
35324.6,45186.7
35275.6,45181.9
34803.1,45181.9
34754.1,45186.7
34707,45201
34663.6,45224.2
34625.5,45255.4
34594.3,45293.5
34571.1,45336.9
34556.8,45384.1
34551.9,45433.1
34551.9,45905.5
34556.8,45954.5
34571.1,46001.6
34594.3,46045.1
34599.8,46051.8
34577.1,46101.8
34555.1,46195
34551.8,46290.7
31981.2,46290.7
32005,46225.7
31956.8,46144.5
31546.1,46144.5
31446.1,46144.5
31035.4,46144.5
30987.1,46225.7
16347.2,46225.7
16283.5,46112
16225.9,45963.3
30987.1,45963.3
31035.4,46044.5
31446.1,46044.5
31446.1,45634.1
31546.1,45634.1
31546.1,46044.5
31956.8,46044.5
32005,45963.3
31969.6,45866.5
31916,45778.5
31846.3,45702.6
31763.1,45641.8
31669.7,45598.4
31627.3,45585.5
31546.1,45634.1
31446.1,45634.1
31364.8,45585.5
31322.4,45598.4
31229,45641.8
31145.8,45702.6
31076.1,45778.5
31022.5,45866.5
30987.1,45963.3
16225.9,45963.3
16136.2,45731.4
16044.1,45333.8
16008.2,44919.1
16007.9,44880.9
16007.9,44795.2
17624,44795.2
17624,44968.6
17657.8,45138.6
17724.2,45298.7
17820.5,45442.8
17943,45565.4
18087.1,45661.7
18247.3,45728
18417.3,45761.8
18590.6,45761.8
18760.6,45728
18920.7,45661.7
19064.9,45565.4
19187.3,45442.9
23203.5,45442.9
23208.3,45491.9
23222.6,45539
23245.9,45582.5
23277.1,45620.5
23315.2,45651.8
23358.6,45675
23405.7,45689.3
23454.7,45694.1
23509.5,45692.9
23572,45630.4
23572,45325.6
23672,45325.6
23672,45630.4
23734.5,45692.9
23789.4,45694.1
23838.4,45689.3
23885.5,45675
23928.9,45651.8
23967,45620.5
23998.2,45582.5
24021.5,45539
24035.8,45491.9
24040.6,45442.9
24384.6,45442.9
24389.4,45491.9
24403.7,45539
24427,45582.5
24458.2,45620.5
24496.3,45651.8
24539.7,45675
24586.8,45689.3
24635.8,45694.1
24690.6,45692.9
24753.1,45630.4
24753.1,45325.6
24853.1,45325.6
24853.1,45630.4
24915.6,45692.9
24970.5,45694.1
25019.5,45689.3
25066.6,45675
25110,45651.8
25148.1,45620.5
25179.3,45582.5
25202.6,45539
25216.9,45491.9
25221.7,45442.9
25220.5,45388.1
25158,45325.6
24853.1,45325.6
24753.1,45325.6
24448.3,45325.6
24385.8,45388.1
24384.6,45442.9
24040.6,45442.9
24039.4,45388.1
23976.9,45325.6
23672,45325.6
23572,45325.6
23267.2,45325.6
23204.7,45388.1
23203.5,45442.9
19187.3,45442.9
19187.4,45442.8
19283.7,45298.7
19350,45138.6
19356.1,45108.3
23203.5,45108.3
23204.7,45163.1
23267.2,45225.6
23572,45225.6
23572,44920.8
23672,44920.8
23672,45225.6
23976.9,45225.6
24039.4,45163.1
24040.6,45108.3
24384.6,45108.3
24385.8,45163.1
24448.3,45225.6
24753.1,45225.6
24753.1,44920.8
24853.1,44920.8
24853.1,45225.6
25158,45225.6
25220.5,45163.1
25221.7,45108.3
25216.9,45059.3
25202.6,45012.1
25179.3,44968.7
25148.1,44930.6
25110,44899.4
25066.6,44876.2
25019.5,44861.9
24970.5,44857.1
24915.6,44858.3
24853.1,44920.8
24753.1,44920.8
24690.6,44858.3
24635.8,44857.1
24586.8,44861.9
24539.7,44876.2
24496.3,44899.4
24458.2,44930.6
24427,44968.7
24403.7,45012.1
24389.4,45059.3
24384.6,45108.3
24040.6,45108.3
24035.8,45059.3
24021.5,45012.1
23998.2,44968.7
23967,44930.6
23928.9,44899.4
23885.5,44876.2
23838.4,44861.9
23789.4,44857.1
23734.5,44858.3
23672,44920.8
23572,44920.8
23509.5,44858.3
23454.7,44857.1
23405.7,44861.9
23358.6,44876.2
23315.2,44899.4
23277.1,44930.6
23245.9,44968.7
23222.6,45012.1
23208.3,45059.3
23203.5,45108.3
19356.1,45108.3
19383.9,44968.6
19383.9,44795.2
19350,44625.2
19283.7,44465.1
19187.4,44321
19064.9,44198.4
18920.7,44102.1
18760.6,44035.8
18590.6,44002
18417.3,44002
18247.3,44035.8
18087.1,44102.1
17943,44198.4
17820.5,44321
17724.2,44465.1
17657.8,44625.2
17624,44795.2
16007.9,44795.2
16007.9,33789.4
17563.8,33789.4
17563.8,34478.3
17575.2,34594.6
17609.1,34706.3
17664.1,34809.3
17738.2,34899.6
17828.5,34973.7
17931.5,35028.7
18043.2,35062.6
18159.4,35074
18848.4,35074
18964.6,35062.6
19076.4,35028.7
19179.4,34973.7
19269.6,34899.6
19343.7,34809.3
19398.8,34706.3
19432.7,34594.6
19444.1,34478.3
19444.1,33789.4
19432.7,33673.2
19398.8,33561.4
19343.7,33458.4
19269.6,33368.1
19179.4,33294.1
19076.4,33239
19025.7,33223.7
20374,33223.7
20423,33218.8
20470.1,33204.5
20513.6,33181.3
20551.6,33150.1
20582.9,33112
20604.9,33070.9
22878.2,33070.9
22879.9,33088
22879.9,42502.6
22878.2,42519.7
22879.9,42536.8
22879.9,42536.8
22885,42588
22904.9,42653.7
22937.2,42714.2
22980.8,42767.3
22994.1,42778.2
24544.7,44328.8
24555.6,44342.1
24568.9,44353
24568.9,44353
24597,44376.1
24608.6,44385.6
24669.2,44417.9
24734.8,44437.9
24786,44442.9
24786,44442.9
24803.1,44444.6
24820.3,44442.9
27021,44442.9
27927.9,45349.8
27927.9,45442.9
27932.8,45491.9
27947,45539
27970.3,45582.5
28001.5,45620.5
28039.6,45651.8
28083,45675
28130.1,45689.3
28179.1,45694.1
28513.8,45694.1
28562.8,45689.3
28609.9,45675
28653.3,45651.8
28687.2,45624
29186.8,45624
29220.7,45651.8
29264.1,45675
29311.2,45689.3
29360.2,45694.1
29694.9,45694.1
29743.9,45689.3
29791,45675
29834.4,45651.8
29872.5,45620.5
29903.8,45582.5
29927,45539
29941.3,45491.9
29946.1,45442.9
29946.1,45108.3
29941.3,45059.3
29927,45012.1
29903.8,44968.7
29872.5,44930.6
29834.4,44899.4
29791,44876.2
29743.9,44861.9
29694.9,44857.1
29360.2,44857.1
29311.2,44861.9
29264.1,44876.2
29220.7,44899.4
29186.8,44927.2
28687.2,44927.2
28653.3,44899.4
28609.9,44876.2
28562.8,44861.9
28513.8,44857.1
28420.7,44857.1
27606.3,44042.7
30970.5,44042.7
30970.5,44146.3
30990.7,44247.8
31030.3,44343.4
31087.8,44429.5
31161,44502.7
31247.1,44560.3
31342.8,44599.9
31444.3,44620.1
31547.8,44620.1
31649.4,44599.9
31745,44560.3
31831.1,44502.7
31904.3,44429.5
31961.8,44343.4
32001.5,44247.8
32021.7,44146.3
32021.7,44042.7
32001.5,43941.2
31961.8,43845.5
31904.3,43759.4
31831.1,43686.2
31745,43628.7
31649.4,43589.1
31547.8,43568.9
31444.3,43568.9
31342.8,43589.1
31247.1,43628.7
31161,43686.2
31087.8,43759.4
31030.3,43845.5
30990.7,43941.2
30970.5,44042.7
27606.3,44042.7
27423.8,43860.2
27412.9,43846.9
27359.9,43803.4
27299.3,43771
27233.7,43751.1
27182.5,43746.1
27182.5,43746.1
27165.4,43744.4
27148.2,43746.1
24947.5,43746.1
23576.8,42375.4
23576.8,42288.7
24294.2,42288.7
24329.6,42385.5
24383.2,42473.5
24452.9,42549.4
24536.1,42610.2
24629.5,42653.6
24671.9,42666.4
24753.1,42617.9
24753.1,42207.5
24853.1,42207.5
24853.1,42617.9
24934.4,42666.4
24964.2,42657.4
28082.6,42657.4
28101.2,42745.4
28188.4,42785.1
28281.6,42807.1
28377.3,42810.4
28471.9,42795
28561.6,42761.5
28591.7,42745.4
28610.3,42657.4
28346.5,42393.5
28082.6,42657.4
24964.2,42657.4
24976.8,42653.6
25070.2,42610.2
25153.4,42549.4
25223.1,42473.5
25276.7,42385.5
25288.3,42353.7
27858.9,42353.7
27874.3,42448.2
27907.8,42538
27923.9,42568.1
28011.9,42586.7
28275.7,42322.8
28270.2,42317.3
28340.9,42246.6
28346.5,42252.1
28352,42246.6
28422.7,42317.3
28417.2,42322.8
28681,42586.7
28769,42568.1
28808.8,42480.9
28830.7,42387.7
28834.1,42292
28833.5,42288.7
30987.1,42288.7
31022.5,42385.5
31076.1,42473.5
31145.8,42549.4
31229,42610.2
31322.4,42653.6
31364.8,42666.4
31446.1,42617.9
31446.1,42207.5
31546.1,42207.5
31546.1,42617.9
31627.3,42666.4
31669.7,42653.6
31763.1,42610.2
31846.3,42549.4
31916,42473.5
31969.6,42385.5
32005,42288.7
31956.8,42207.5
31546.1,42207.5
31446.1,42207.5
31035.4,42207.5
30987.1,42288.7
28833.5,42288.7
28818.7,42197.4
28787.2,42113.3
28791.5,42108.1
28814.8,42064.6
28826.4,42026.2
30987.1,42026.2
31035.4,42107.5
31446.1,42107.5
31446.1,41697.1
31546.1,41697.1
31546.1,42107.5
31956.8,42107.5
32005,42026.2
31969.6,41929.5
31916,41841.5
31846.3,41765.6
31763.1,41704.8
31669.7,41661.4
31627.3,41648.5
31546.1,41697.1
31446.1,41697.1
31364.8,41648.5
31322.4,41661.4
31229,41704.8
31145.8,41765.6
31076.1,41841.5
31022.5,41929.5
30987.1,42026.2
28826.4,42026.2
28829.1,42017.5
28833.9,41968.5
28833.9,41496.1
28829.1,41447.1
28814.8,41399.9
28791.5,41356.5
28760.3,41318.4
28722.2,41287.2
28678.8,41264
28631.7,41249.7
28582.7,41244.9
28110.2,41244.9
28061.2,41249.7
28014.1,41264
27970.7,41287.2
27932.6,41318.4
27901.4,41356.5
27878.1,41399.9
27863.9,41447.1
27859,41496.1
27859,41968.5
27863.9,42017.5
27878.1,42064.6
27901.4,42108.1
27906.9,42114.8
27884.2,42164.8
27862.2,42258
27858.9,42353.7
25288.3,42353.7
25312.1,42288.7
25263.9,42207.5
24853.1,42207.5
24753.1,42207.5
24342.4,42207.5
24294.2,42288.7
23576.8,42288.7
23576.8,42026.2
24294.2,42026.2
24342.4,42107.5
24753.1,42107.5
24753.1,41697.1
24853.1,41697.1
24853.1,42107.5
25263.9,42107.5
25312.1,42026.2
25276.7,41929.5
25223.1,41841.5
25153.4,41765.6
25070.2,41704.8
24976.8,41661.4
24934.4,41648.5
24853.1,41697.1
24753.1,41697.1
24671.9,41648.5
24629.5,41661.4
24536.1,41704.8
24452.9,41765.6
24383.2,41841.5
24329.6,41929.5
24294.2,42026.2
23576.8,42026.2
23576.8,40105.7
24277.6,40105.7
24277.6,40209.2
24297.8,40310.8
24337.4,40406.4
24394.9,40492.5
24468.1,40565.7
24554.2,40623.3
24649.8,40662.9
24751.4,40683.1
24854.9,40683.1
24956.5,40662.9
25052.1,40623.3
25138.2,40565.7
25211.4,40492.5
25268.9,40406.4
25308.5,40310.8
25328.7,40209.2
25328.7,40105.7
30970.5,40105.7
30970.5,40209.2
30990.7,40310.8
31030.3,40406.4
31087.8,40492.5
31161,40565.7
31247.1,40623.3
31342.8,40662.9
31444.3,40683.1
31547.8,40683.1
31649.4,40662.9
31745,40623.3
31831.1,40565.7
31904.3,40492.5
31961.8,40406.4
32001.5,40310.8
32021.7,40209.2
32021.7,40105.7
32001.5,40004.2
31961.8,39908.5
31904.3,39822.4
31831.1,39749.2
31745,39691.7
31649.4,39652.1
31547.8,39631.9
31444.3,39631.9
31342.8,39652.1
31247.1,39691.7
31161,39749.2
31087.8,39822.4
31030.3,39908.5
30990.7,40004.2
30970.5,40105.7
25328.7,40105.7
25308.5,40004.2
25268.9,39908.5
25211.4,39822.4
25138.2,39749.2
25052.1,39691.7
24956.5,39652.1
24854.9,39631.9
24751.4,39631.9
24649.8,39652.1
24554.2,39691.7
24468.1,39749.2
24394.9,39822.4
24337.4,39908.5
24297.8,40004.2
24277.6,40105.7
23576.8,40105.7
23576.8,37564.3
24294.2,37564.3
24329.6,37661.1
24383.2,37749.1
24452.9,37824.9
24536.1,37885.7
24629.5,37929.2
24671.9,37942
24753.1,37893.5
24753.1,37483.1
24853.1,37483.1
24853.1,37893.5
24934.4,37942
24976.8,37929.2
25070.2,37885.7
25153.4,37824.9
25223.1,37749.1
25276.7,37661.1
25312.1,37564.3
25263.9,37483.1
24853.1,37483.1
24753.1,37483.1
24342.4,37483.1
24294.2,37564.3
23576.8,37564.3
23576.8,37301.8
24294.2,37301.8
24342.4,37383.1
24753.1,37383.1
24753.1,36972.7
24853.1,36972.7
24853.1,37383.1
25263.9,37383.1
25264.9,37381.3
27033.5,37381.3
27033.5,37484.8
27053.7,37586.4
27093.3,37682
27150.8,37768.1
27224,37841.3
27310.1,37898.8
27405.7,37938.5
27507.3,37958.7
27610.8,37958.7
27712.4,37938.5
27808,37898.8
27894.1,37841.3
27967.3,37768.1
28024.8,37682
28064.4,37586.4
28068.8,37564.3
30987.1,37564.3
31022.5,37661.1
31076.1,37749.1
31145.8,37824.9
31229,37885.7
31322.4,37929.2
31364.8,37942
31446.1,37893.5
31446.1,37483.1
31035.4,37483.1
30987.1,37564.3
28068.8,37564.3
28084.6,37484.8
28084.6,37381.3
28068.8,37301.8
30987.1,37301.8
31035.4,37383.1
31446.1,37383.1
31446.1,36972.7
31364.8,36924.1
31322.4,36937
31229,36980.4
31145.8,37041.2
31076.1,37117.1
31022.5,37205.1
30987.1,37301.8
28068.8,37301.8
28064.4,37279.8
28024.8,37184.1
27967.3,37098
27894.1,37024.8
27808,36967.3
27712.4,36927.7
27610.8,36907.5
27507.3,36907.5
27405.7,36927.7
27310.1,36967.3
27224,37024.8
27150.8,37098
27093.3,37184.1
27053.7,37279.8
27033.5,37381.3
25264.9,37381.3
25312.1,37301.8
25276.7,37205.1
25223.1,37117.1
25153.4,37041.2
25070.2,36980.4
24976.8,36937
24934.4,36924.1
24853.1,36972.7
24753.1,36972.7
24671.9,36924.1
24629.5,36937
24536.1,36980.4
24452.9,37041.2
24383.2,37117.1
24329.6,37205.1
24294.2,37301.8
23576.8,37301.8
23576.8,35381.3
24277.6,35381.3
24277.6,35484.8
24297.8,35586.4
24337.4,35682
24394.9,35768.1
24468.1,35841.3
24554.2,35898.8
24649.8,35938.5
24751.4,35958.7
24854.9,35958.7
24956.5,35938.5
25052.1,35898.8
25138.2,35841.3
25211.4,35768.1
25268.9,35682
25308.5,35586.4
25328.7,35484.8
25328.7,35381.3
27033.5,35381.3
27033.5,35484.8
27053.7,35586.4
27093.3,35682
27150.8,35768.1
27224,35841.3
27310.1,35898.8
27405.7,35938.5
27507.3,35958.7
27610.8,35958.7
27712.4,35938.5
27808,35898.8
27894.1,35841.3
27967.3,35768.1
28024.8,35682
28064.4,35586.4
28084.6,35484.8
28084.6,35381.3
28064.4,35279.8
28024.8,35184.1
27967.3,35098
27894.1,35024.8
27808,34967.3
27712.4,34927.7
27610.8,34907.5
27507.3,34907.5
27405.7,34927.7
27310.1,34967.3
27224,35024.8
27150.8,35098
27093.3,35184.1
27053.7,35279.8
27033.5,35381.3
25328.7,35381.3
25308.5,35279.8
25268.9,35184.1
25211.4,35098
25138.2,35024.8
25052.1,34967.3
24956.5,34927.7
24854.9,34907.5
24751.4,34907.5
24649.8,34927.7
24554.2,34967.3
24468.1,35024.8
24394.9,35098
24337.4,35184.1
24297.8,35279.8
24277.6,35381.3
23576.8,35381.3
23576.8,33215.2
24021.1,32770.9
24252,32770.9
24301,32766.1
24348.1,32751.8
24391.5,32728.6
24397.8,32723.4
24464.5,32751
24558.4,32769.7
24654.2,32769.7
24748.1,32751
24836.6,32714.3
24916.2,32661.1
24984,32593.4
25037.2,32513.8
25073.8,32425.3
25092.5,32331.4
25092.5,32235.6
25073.8,32141.6
25037.2,32053.2
25020.1,32027.6
27051.9,32027.6
27051.9,32539.4
27056.8,32588.4
27071.1,32635.5
27094.3,32678.9
27125.5,32717
27163.6,32748.2
27207,32771.5
27254.1,32785.8
27303.1,32790.6
27815,32790.6
27864,32785.8
27911.1,32771.5
27954.5,32748.2
27992.6,32717
28023.8,32678.9
28047,32635.5
28061.3,32588.4
28066.2,32539.4
28066.2,32398.8
28072.6,32431
28110.7,32523.1
28166.1,32606
28236.6,32676.4
28319.4,32731.8
28411.5,32769.9
28509.2,32789.4
28608.9,32789.4
28706.6,32769.9
28798.7,32731.8
28881.6,32676.4
28952,32606
29007.4,32523.1
29045.5,32431
29065,32333.3
29065,32233.6
29045.5,32135.9
29007.4,32043.8
28952,31961
28881.6,31890.5
28798.7,31835.1
28706.6,31797
28608.9,31777.6
28565,31777.6
28565,31733.6
28545.5,31635.9
28507.4,31543.8
28452,31461
28381.6,31390.5
28298.7,31335.1
28206.6,31297
28108.9,31277.6
28009.2,31277.6
27911.5,31297
27819.4,31335.1
27736.6,31390.5
27666.1,31461
27610.7,31543.8
27572.6,31635.9
27553.1,31733.6
27553.1,31776.3
27303.1,31776.3
27254.1,31781.2
27207,31795.5
27163.6,31818.7
27125.5,31849.9
27094.3,31888
27071.1,31931.4
27056.8,31978.6
27051.9,32027.6
25020.1,32027.6
24984,31973.5
24916.2,31905.8
24836.6,31852.6
24748.1,31815.9
24654.2,31797.2
24558.4,31797.2
24464.5,31815.9
24397.8,31843.5
24391.5,31838.4
24348.1,31815.2
24301,31800.9
24252,31796
23779.5,31796
23730.5,31800.9
23683.4,31815.2
23640,31838.4
23601.9,31869.6
23570.7,31907.7
23547.4,31951.1
23533.1,31998.2
23528.3,32047.2
23528.3,32278.1
22994.1,32812.4
22980.8,32823.3
22969.9,32836.6
22969.9,32836.6
22937.2,32876.4
22904.9,32936.9
22885,33002.6
22878.2,33070.9
20604.9,33070.9
20606.1,33068.6
20620.4,33021.4
20625.2,32972.4
20625.2,31594.5
20620.4,31545.5
20606.1,31498.4
20582.9,31454.9
20551.6,31416.9
20513.6,31385.6
20470.1,31362.4
20423,31348.1
20374,31343.3
18996.1,31343.3
18947.1,31348.1
18899.9,31362.4
18856.5,31385.6
18818.4,31416.9
18787.2,31454.9
18764,31498.4
18749.7,31545.5
18744.9,31594.5
18744.9,32972.4
18749.7,33021.4
18764,33068.6
18787.2,33112
18818.4,33150.1
18856.5,33181.3
18886.7,33197.4
18848.4,33193.7
18159.4,33193.7
18043.2,33205.1
17931.5,33239
17828.5,33294.1
17738.2,33368.1
17664.1,33458.4
17609.1,33561.4
17575.2,33673.2
17563.8,33789.4
16007.9,33789.4
16007.9,32972.4
16481.1,32972.4
16485.9,33021.4
16500.2,33068.6
16523.4,33112
16554.7,33150.1
16592.7,33181.3
16636.1,33204.5
16683.3,33218.8
16732.3,33223.7
17210.3,33222.4
17272.8,33159.9
17272.8,32333.5
17372.8,32333.5
17372.8,33159.9
17435.3,33222.4
17913.4,33223.7
17962.4,33218.8
18009.5,33204.5
18053,33181.3
18091,33150.1
18122.3,33112
18145.5,33068.6
18159.8,33021.4
18164.6,32972.4
18163.4,32396
18100.9,32333.5
17372.8,32333.5
17272.8,32333.5
16544.8,32333.5
16482.3,32396
16481.1,32972.4
16007.9,32972.4
16007.9,31594.5
16481.1,31594.5
16482.3,32171
16544.8,32233.5
17272.8,32233.5
17272.8,31407
17372.8,31407
17372.8,32233.5
18100.9,32233.5
18163.4,32171
18164.6,31594.5
18159.8,31545.5
18145.5,31498.4
18122.3,31454.9
18091,31416.9
18053,31385.6
18009.5,31362.4
17962.4,31348.1
17913.4,31343.3
17435.3,31344.5
17372.8,31407
17272.8,31407
17210.3,31344.5
16732.3,31343.3
16683.3,31348.1
16636.1,31362.4
16592.7,31385.6
16554.7,31416.9
16523.4,31454.9
16500.2,31498.4
16485.9,31545.5
16481.1,31594.5
16007.9,31594.5
16007.9,28719.9
24277.6,28719.9
24277.6,28823.4
24297.8,28925
24337.4,29020.6
24394.9,29106.7
24468.1,29179.9
24554.2,29237.4
24649.8,29277
24751.4,29297.2
24854.9,29297.2
24956.5,29277
25052.1,29237.4
25138.2,29179.9
25211.4,29106.7
25268.9,29020.6
25308.5,28925
25328.7,28823.4
25328.7,28719.9
25308.5,28618.3
25268.9,28522.7
25211.4,28436.6
25138.2,28363.4
25052.1,28305.9
24956.5,28266.3
24854.9,28246.1
24751.4,28246.1
24649.8,28266.3
24554.2,28305.9
24468.1,28363.4
24394.9,28436.6
24337.4,28522.7
24297.8,28618.3
24277.6,28719.9
16007.9,28719.9
16007.9,28090.6
27051.9,28090.6
27051.9,28602.4
27056.8,28651.4
27071.1,28698.5
27094.3,28741.9
27125.5,28780
27163.6,28811.2
27207,28834.4
27254.1,28848.7
27303.1,28853.6
27815,28853.6
27864,28848.7
27911.1,28834.4
27954.5,28811.2
27992.6,28780
28023.8,28741.9
28047,28698.5
28061.3,28651.4
28066.2,28602.4
28066.2,28461.7
28072.6,28494
28110.7,28586.1
28166.1,28669
28236.6,28739.4
28319.4,28794.8
28411.5,28832.9
28509.2,28852.4
28608.9,28852.4
28706.6,28832.9
28798.7,28794.8
28881.6,28739.4
28952,28669
29007.4,28586.1
29045.5,28494
29065,28396.3
29065,28296.6
29045.5,28198.9
29007.4,28106.8
28952,28024
28881.6,27953.5
28798.7,27898.1
28706.6,27860
28608.9,27840.6
28565,27840.6
28565,27796.6
28545.5,27698.9
28507.4,27606.8
28452,27524
28381.6,27453.5
28298.7,27398.1
28206.6,27360
28108.9,27340.6
28009.2,27340.6
27911.5,27360
27819.4,27398.1
27736.6,27453.5
27666.1,27524
27610.7,27606.8
27572.6,27698.9
27553.1,27796.6
27553.1,27839.3
27303.1,27839.3
27254.1,27844.2
27207,27858.5
27163.6,27881.7
27125.5,27912.9
27094.3,27951
27071.1,27994.4
27056.8,28041.5
27051.9,28090.6
16007.9,28090.6
16007.9,26719.9
24277.6,26719.9
24277.6,26823.4
24297.8,26925
24337.4,27020.6
24394.9,27106.7
24468.1,27179.9
24554.2,27237.4
24649.8,27277
24751.4,27297.2
24854.9,27297.2
24956.5,27277
25052.1,27237.4
25138.2,27179.9
25211.4,27106.7
25268.9,27020.6
25308.5,26925
25328.7,26823.4
25328.7,26719.9
30970.5,26719.9
30970.5,26823.4
30990.7,26925
31030.3,27020.6
31087.8,27106.7
31161,27179.9
31247.1,27237.4
31342.8,27277
31444.3,27297.2
31528.9,27297.2
31935,27703.4
31935,28482.6
31904.3,28436.6
31831.1,28363.4
31745,28305.9
31649.4,28266.3
31547.8,28246.1
31444.3,28246.1
31342.8,28266.3
31247.1,28305.9
31161,28363.4
31087.8,28436.6
31030.3,28522.7
30990.7,28618.3
30970.5,28719.9
30970.5,28823.4
30990.7,28925
31030.3,29020.6
31087.8,29106.7
31161,29179.9
31247.1,29237.4
31342.8,29277
31444.3,29297.2
31547.8,29297.2
31649.4,29277
31745,29237.4
31831.1,29179.9
31904.3,29106.7
31935,29060.7
31935,35144
31904.3,35098
31831.1,35024.8
31745,34967.3
31649.4,34927.7
31547.8,34907.5
31444.3,34907.5
31342.8,34927.7
31247.1,34967.3
31161,35024.8
31087.8,35098
31030.3,35184.1
30990.7,35279.8
30970.5,35381.3
30970.5,35484.8
30990.7,35586.4
31030.3,35682
31087.8,35768.1
31161,35841.3
31247.1,35898.8
31342.8,35938.5
31444.3,35958.7
31547.8,35958.7
31649.4,35938.5
31745,35898.8
31831.1,35841.3
31904.3,35768.1
31935,35722.1
31935,37148.3
31916,37117.1
31846.3,37041.2
31763.1,36980.4
31669.7,36937
31627.3,36924.1
31546.1,36972.7
31546.1,37383.1
31553.9,37383.1
31553.9,37483.1
31546.1,37483.1
31546.1,37893.5
31627.3,37942
31669.7,37929.2
31763.1,37885.7
31846.3,37824.9
31916,37749.1
31935,37717.9
31935,39746.7
31933.4,39763.8
31940.1,39832.1
31960,39897.8
31992.4,39958.3
32025,39998
32025,39998.1
32035.9,40011.3
32049.2,40022.3
33509.8,41482.9
33509.8,42896.3
33508.2,42913.4
33514.9,42981.7
33534.8,43047.4
33567.2,43107.9
33599.8,43147.7
33599.8,43147.7
33610.7,43161
33624,43171.9
34780.9,44328.8
34791.8,44342.1
34805.1,44353
34805.1,44353
34844.9,44385.6
34905.4,44417.9
34943.6,44429.5
34971.1,44437.9
35022.3,44442.9
35022.3,44442.9
35039.4,44444.6
35056.5,44442.9
39619.5,44442.9
41313.8,46137.2
41313.8,46230.3
41318.6,46279.3
41332.9,46326.4
41356.1,46369.9
41387.3,46407.9
41425.4,46439.2
41468.8,46462.4
41516,46476.7
41565,46481.5
41899.6,46481.5
41948.6,46476.7
41995.7,46462.4
42039.2,46439.2
42073,46411.4
42572.7,46411.4
42606.5,46439.2
42649.9,46462.4
42697.1,46476.7
42746.1,46481.5
43080.7,46481.5
43129.7,46476.7
43176.8,46462.4
43220.3,46439.2
43258.3,46407.9
43269.6,46394.2
49627.3,46394.2
49681.4,46512.2
49818.5,46581.2
49966.5,46622.2
50119.7,46633.5
50272.1,46614.6
50417.9,46566.5
50519.4,46512.2
50573.5,46394.2
50100.4,45921.1
49627.3,46394.2
43269.6,46394.2
43289.6,46369.9
43312.8,46326.4
43327.1,46279.3
43331.9,46230.3
43331.9,45895.7
43329.4,45869.7
49317.3,45869.7
49336.1,46022.1
49384.3,46167.9
49438.6,46269.4
49556.6,46323.5
50029.7,45850.4
50171.1,45850.4
50644.2,46323.5
50762.2,46269.4
50831.2,46132.3
50872.2,45984.3
50883.5,45831.1
50864.6,45678.7
50816.5,45532.9
50762.2,45431.4
50644.2,45377.3
50171.1,45850.4
50029.7,45850.4
49556.6,45377.3
49438.6,45431.4
49369.6,45568.5
49328.6,45716.5
49317.3,45869.7
43329.4,45869.7
43327.1,45846.7
43312.8,45799.5
43289.6,45756.1
43258.3,45718
43220.3,45686.8
43176.8,45663.6
43129.7,45649.3
43080.7,45644.5
42746.1,45644.5
42697.1,45649.3
42649.9,45663.6
42606.5,45686.8
42572.7,45714.6
42073,45714.6
42039.2,45686.8
41995.7,45663.6
41948.6,45649.3
41899.6,45644.5
41806.5,45644.5
41468.6,45306.6
49627.3,45306.6
50100.4,45779.7
50573.5,45306.6
50519.4,45188.6
50382.3,45119.6
50234.3,45078.6
50081.1,45067.3
49928.7,45086.1
49782.9,45134.3
49681.4,45188.6
49627.3,45306.6
41468.6,45306.6
40957.3,44795.2
54631.9,44795.2
54631.9,44968.6
54665.7,45138.6
54732,45298.7
54828.3,45442.8
54950.9,45565.4
55095,45661.7
55255.1,45728
55425.1,45761.8
55598.5,45761.8
55768.5,45728
55928.6,45661.7
56072.7,45565.4
56195.3,45442.8
56291.6,45298.7
56357.9,45138.6
56391.7,44968.6
56391.7,44795.2
56357.9,44625.2
56291.6,44465.1
56195.3,44321
56072.7,44198.4
55928.6,44102.1
55768.5,44035.8
55598.5,44002
55425.1,44002
55255.1,44035.8
55095,44102.1
54950.9,44198.4
54828.3,44321
54732,44465.1
54665.7,44625.2
54631.9,44795.2
40957.3,44795.2
40022.3,43860.2
40011.3,43846.9
39958.3,43803.4
39897.8,43771
39832.1,43751.1
39780.9,43746.1
39780.9,43746.1
39763.8,43744.4
39746.7,43746.1
35183.7,43746.1
35061.6,43624
49320.9,43624
49320.9,43777.6
49350.8,43928.2
49409.6,44070
49494.9,44197.7
49603.5,44306.3
49731.1,44391.6
49873,44450.4
50023.6,44480.3
50177.2,44480.3
50327.8,44450.4
50469.6,44391.6
50597.3,44306.3
50705.9,44197.7
50791.2,44070
50850,43928.2
50879.9,43777.6
50879.9,43624
50850,43473.4
50791.2,43331.5
50705.9,43203.9
50597.3,43095.3
50469.6,43010
50327.8,42951.2
50177.2,42921.3
50023.6,42921.3
49873,42951.2
49731.1,43010
49603.5,43095.3
49494.9,43203.9
49409.6,43331.5
49350.8,43473.4
49320.9,43624
35061.6,43624
34206.7,42769.1
34206.7,42019.1
34513.8,42019.1
34513.8,42122.6
34534,42224.2
34573.6,42319.8
34631.1,42405.9
34704.3,42479.1
34790.4,42536.6
34886.1,42576.3
34987.6,42596.5
35091.1,42596.5
35192.7,42576.3
35288.3,42536.6
35374.4,42479.1
35447.6,42405.9
35505.1,42319.8
35544.8,42224.2
35565,42122.6
35565,42063.5
42540.7,42063.5
42594.8,42181.5
42731.9,42250.5
42879.9,42291.5
43033.1,42302.7
43185.4,42283.9
43331.2,42235.8
43432.8,42181.5
43486.9,42063.5
43013.8,41590.4
42540.7,42063.5
35565,42063.5
35565,42019.1
35544.8,41917.6
35505.1,41821.9
35447.6,41735.8
35374.4,41662.6
35288.3,41605.1
35192.7,41565.5
35091.1,41545.3
34987.6,41545.3
34886.1,41565.5
34790.4,41605.1
34704.3,41662.6
34631.1,41735.8
34573.6,41821.9
34534,41917.6
34513.8,42019.1
34206.7,42019.1
34206.7,41539
42230.7,41539
42249.5,41691.4
42297.7,41837.2
42352,41938.7
42470,41992.8
42943.1,41519.7
43084.5,41519.7
43557.6,41992.8
43675.6,41938.7
43744.6,41801.5
43785.6,41653.6
43796.8,41500.4
43778,41348
43729.9,41202.2
43675.6,41100.7
43557.6,41046.6
43084.5,41519.7
42943.1,41519.7
42470,41046.6
42352,41100.7
42282.9,41237.8
42242,41385.8
42230.7,41539
34206.7,41539
34206.7,41355.7
34208.4,41338.6
34206.7,41321.5
34206.7,41321.5
34201.7,41270.3
34181.7,41204.6
34149.4,41144.1
34105.8,41091
34092.5,41080.1
33988.3,40975.9
42540.7,40975.9
43013.8,41449
43486.9,40975.9
43432.8,40857.9
43295.6,40788.9
43147.6,40747.9
42994.5,40736.6
42842.1,40755.4
42696.3,40803.6
42594.8,40857.9
42540.7,40975.9
33988.3,40975.9
33031.5,40019.1
34513.8,40019.1
34513.8,40122.6
34534,40224.2
34573.6,40319.8
34631.1,40405.9
34704.3,40479.1
34790.4,40536.6
34886.1,40576.3
34987.6,40596.5
35091.1,40596.5
35192.7,40576.3
35288.3,40536.6
35374.4,40479.1
35447.6,40405.9
35505.1,40319.8
35544.8,40224.2
35565,40122.6
35565,40019.1
35544.8,39917.6
35505.1,39821.9
35447.6,39735.8
35374.4,39662.6
35288.3,39605.1
35192.7,39565.5
35091.1,39545.3
34987.6,39545.3
34886.1,39565.5
34790.4,39605.1
34704.3,39662.6
34631.1,39735.8
34573.6,39821.9
34534,39917.6
34513.8,40019.1
33031.5,40019.1
32631.9,39619.5
32631.9,39293.3
42234.3,39293.3
42234.3,39446.9
42264.2,39597.5
42323,39739.3
42408.3,39867
42516.9,39975.6
42644.5,40060.9
42786.4,40119.6
42937,40149.6
43090.6,40149.6
43241.2,40119.6
43383,40060.9
43510.7,39975.6
43619.3,39867
43704.6,39739.3
43763.3,39597.5
43793.3,39446.9
43793.3,39293.3
43763.3,39142.7
43704.6,39000.8
43619.3,38873.2
43510.7,38764.6
43383,38679.3
43241.2,38620.5
43090.6,38590.6
42937,38590.6
42786.4,38620.5
42644.5,38679.3
42516.9,38764.6
42408.3,38873.2
42323,39000.8
42264.2,39142.7
42234.3,39293.3
32631.9,39293.3
32631.9,36771.7
34551.9,36771.7
34551.9,37244.1
34556.8,37293.1
34571.1,37340.2
34594.3,37383.7
34599.4,37390
34571.8,37456.6
34553.1,37550.5
34553.1,37646.3
34571.8,37740.3
34608.5,37828.7
34661.7,37908.4
34729.4,37976.1
34809.1,38029.3
34897.5,38066
34991.5,38084.6
35087.3,38084.6
35181.2,38066
35269.7,38029.3
35349.3,37976.1
35417,37908.4
35470.3,37828.7
35506.9,37740.3
35525.6,37646.3
35525.6,37550.5
35506.9,37456.6
35479.3,37390
35484.5,37383.7
35507.7,37340.2
35522,37293.1
35526.8,37244.1
35526.8,36771.7
35522,36722.6
35512.4,36690.9
42233,36690.9
42233,37750
42237.9,37799
42252.2,37846.1
42275.4,37889.6
42306.6,37927.6
42344.7,37958.9
42388.1,37982.1
42435.2,37996.4
42484.3,38001.2
43543.3,38001.2
43592.3,37996.4
43639.4,37982.1
43682.9,37958.9
43720.9,37927.6
43752.2,37889.6
43775.4,37846.1
43789.7,37799
43794.5,37750
43794.5,37618.1
44536.1,37618.1
48736.5,41818.5
48749,41833.7
48809.5,41883.4
48878.6,41920.3
48953.5,41943.1
49012,41948.8
49012,41948.8
49031.5,41950.7
49051,41948.8
49319.7,41948.8
49319.7,42080.7
49324.5,42129.7
49338.8,42176.8
49362,42220.3
49393.2,42258.3
49431.3,42289.6
49474.7,42312.8
49521.9,42327.1
49570.9,42331.9
50629.9,42331.9
50678.9,42327.1
50726.1,42312.8
50769.5,42289.6
50807.6,42258.3
50838.8,42220.3
50862,42176.8
50876.3,42129.7
50881.1,42080.7
50881.1,41021.7
50876.3,40972.6
50862,40925.5
50838.8,40882.1
50807.6,40844
50769.5,40812.8
50726.1,40789.6
50678.9,40775.3
50629.9,40770.4
49570.9,40770.4
49521.9,40775.3
49474.7,40789.6
49431.3,40812.8
49393.2,40844
49362,40882.1
49338.8,40925.5
49324.5,40972.6
49319.7,41021.7
49319.7,41153.5
49196.2,41153.5
45817.7,37775
47112.2,37775
47112.2,37878.5
47132.4,37980.1
47172,38075.7
47229.5,38161.8
47302.8,38235
47388.8,38292.5
47484.5,38332.2
47586,38352.4
47689.6,38352.4
47791.1,38332.2
47886.8,38292.5
47972.8,38235
48046,38161.8
48103.6,38075.7
48143.2,37980.1
48163.4,37878.5
48163.4,37775
50261.8,37775
50261.8,37878.5
50282,37980.1
50321.6,38075.7
50379.1,38161.8
50452.4,38235
50538.4,38292.5
50634.1,38332.2
50735.6,38352.4
50839.2,38352.4
50940.7,38332.2
51036.4,38292.5
51122.4,38235
51195.7,38161.8
51253.2,38075.7
51292.8,37980.1
51313,37878.5
51313,37775
51292.8,37673.5
51253.2,37577.8
51195.7,37491.7
51122.4,37418.5
51036.4,37361
50940.7,37321.4
50839.2,37301.2
50735.6,37301.2
50634.1,37321.4
50538.4,37361
50452.4,37418.5
50379.1,37491.7
50321.6,37577.8
50282,37673.5
50261.8,37775
48163.4,37775
48143.2,37673.5
48103.6,37577.8
48046,37491.7
47972.8,37418.5
47886.8,37361
47791.1,37321.4
47689.6,37301.2
47586,37301.2
47484.5,37321.4
47388.8,37361
47302.8,37418.5
47229.5,37491.7
47172,37577.8
47132.4,37673.5
47112.2,37775
45817.7,37775
44995.8,36953.1
44983.3,36937.9
44922.8,36888.2
44853.7,36851.3
44778.7,36828.6
44720.3,36822.8
44700.8,36820.9
44681.3,36822.8
43794.5,36822.8
43794.5,36690.9
43789.7,36641.9
43775.4,36594.8
43752.2,36551.4
43720.9,36513.3
43682.9,36482.1
43639.4,36458.9
43592.3,36444.6
43543.3,36439.7
42484.3,36439.7
42435.2,36444.6
42388.1,36458.9
42344.7,36482.1
42306.6,36513.3
42275.4,36551.4
42252.2,36594.8
42237.9,36641.9
42233,36690.9
35512.4,36690.9
35507.7,36675.5
35484.5,36632.1
35453.2,36594
35415.2,36562.8
35371.7,36539.6
35324.6,36525.3
35275.6,36520.4
34803.1,36520.4
34754.1,36525.3
34707,36539.6
34663.6,36562.8
34625.5,36594
34594.3,36632.1
34571.1,36675.5
34556.8,36722.6
34551.9,36771.7
32631.9,36771.7
32631.9,35775
47112.2,35775
47112.2,35878.5
47132.4,35980.1
47172,36075.7
47229.5,36161.8
47302.8,36235
47388.8,36292.5
47484.5,36332.2
47586,36352.4
47689.6,36352.4
47791.1,36332.2
47886.8,36292.5
47972.8,36235
48046,36161.8
48103.6,36075.7
48143.2,35980.1
48163.4,35878.5
48163.4,35775
50261.8,35775
50261.8,35878.5
50282,35980.1
50321.6,36075.7
50379.1,36161.8
50452.4,36235
50538.4,36292.5
50634.1,36332.2
50735.6,36352.4
50839.2,36352.4
50940.7,36332.2
51036.4,36292.5
51122.4,36235
51195.7,36161.8
51253.2,36075.7
51292.8,35980.1
51313,35878.5
51313,35775
51292.8,35673.5
51253.2,35577.8
51195.7,35491.7
51122.4,35418.5
51036.4,35361
50940.7,35321.4
50839.2,35301.2
50735.6,35301.2
50634.1,35321.4
50538.4,35361
50452.4,35418.5
50379.1,35491.7
50321.6,35577.8
50282,35673.5
50261.8,35775
48163.4,35775
48143.2,35673.5
48103.6,35577.8
48046,35491.7
47972.8,35418.5
47886.8,35361
47791.1,35321.4
47689.6,35301.2
47586,35301.2
47484.5,35321.4
47388.8,35361
47302.8,35418.5
47229.5,35491.7
47172,35577.8
47132.4,35673.5
47112.2,35775
32631.9,35775
32631.9,33514.6
54984.6,33514.6
54984.6,33752.4
55003.8,33846.6
55040.9,33935.2
55094.6,34014.9
55162.9,34082.6
55243,34135.7
55332,34172.2
55347.2,34173.8
55422.4,34124.7
55422.4,33514.6
55522.4,33514.6
55522.4,34124.7
55537.6,34134.6
55531.9,34192.9
55541.3,34288.5
55569.2,34380.5
55614.5,34465.2
55675.5,34539.5
55749.7,34600.5
55834.5,34645.8
55926.4,34673.7
55998.1,34680.7
56521.6,34680.7
56593.3,34673.7
56685.2,34645.8
56770,34600.5
56844.2,34539.5
56905.2,34465.2
56950.5,34380.5
56978.4,34288.5
56987.8,34192.9
56978.4,34097.3
56950.5,34005.3
56905.2,33920.6
56844.2,33846.3
56770,33785.4
56685.2,33740.1
56593.3,33712.2
56521.6,33705.1
55998.1,33705.1
55960.2,33708.8
55960.2,33514.6
55522.4,33514.6
55422.4,33514.6
54984.6,33514.6
32631.9,33514.6
32631.9,33416.7
56757.9,33416.7
56757.9,33512.5
56776.6,33606.4
56813.2,33694.9
56866.4,33774.5
56934.1,33842.2
57013.8,33895.4
57102.3,33932.1
57196.2,33950.8
57292,33950.8
57385.9,33932.1
57474.4,33895.4
57554,33842.2
57621.8,33774.5
57675,33694.9
57711.6,33606.4
57730.3,33512.5
57730.3,33416.7
57711.6,33322.7
57675,33234.3
57621.8,33154.6
57554,33086.9
57474.4,33033.7
57385.9,32997
57292,32978.3
57196.2,32978.3
57102.3,32997
57013.8,33033.7
56934.1,33086.9
56866.4,33154.6
56813.2,33234.3
56776.6,33322.7
56757.9,33416.7
32631.9,33416.7
32631.9,33176.8
54984.6,33176.8
54984.6,33414.6
55422.4,33414.6
55422.4,32804.4
55522.4,32804.4
55522.4,33414.6
55960.2,33414.6
55960.2,33220.3
55998.1,33224
56521.6,33224
56593.3,33217
56685.2,33189.1
56770,33143.8
56844.2,33082.8
56905.2,33008.5
56950.5,32923.8
56978.4,32831.8
56987.8,32736.2
56978.4,32640.6
56950.5,32548.6
56905.2,32463.9
56844.2,32389.6
56770,32328.7
56685.2,32283.4
56593.3,32255.5
56521.6,32248.4
55998.1,32248.4
55926.4,32255.5
55834.5,32283.4
55749.7,32328.7
55675.5,32389.6
55614.5,32463.9
55569.2,32548.6
55541.3,32640.6
55531.9,32736.2
55537.6,32794.5
55522.4,32804.4
55422.4,32804.4
55347.2,32755.3
55332,32757
55243,32793.4
55162.9,32846.5
55094.6,32914.2
55040.9,32993.9
55003.8,33082.6
54984.6,33176.8
32631.9,33176.8
32631.9,32027.6
32957.5,32027.6
32957.5,32539.4
32962.3,32588.4
32976.6,32635.5
32999.8,32678.9
33031,32717
33069.1,32748.2
33112.5,32771.5
33159.7,32785.8
33208.7,32790.6
33720.5,32790.6
33769.5,32785.8
33816.6,32771.5
33860,32748.2
33898.1,32717
33929.3,32678.9
33952.6,32635.5
33966.9,32588.4
33971.7,32539.4
33971.7,32398.8
33978.1,32431
34016.2,32523.1
34071.6,32606
34142.1,32676.4
34224.9,32731.8
34317,32769.9
34414.7,32789.4
34514.4,32789.4
34612.1,32769.9
34704.2,32731.8
34787.1,32676.4
34857.5,32606
34912.9,32523.1
34951,32431
34970.5,32333.3
34970.5,32263.2
37269.7,32263.2
37269.7,32366.7
37289.9,32468.3
37329.5,32563.9
37387,32650
37460.2,32723.2
37546.3,32780.7
37642,32820.4
37743.5,32840.6
37847,32840.6
37948.6,32820.4
38044.2,32780.7
38130.3,32723.2
38203.5,32650
38261,32563.9
38300.7,32468.3
38306.1,32440.9
50300,32440.9
50300,32913.4
50304.8,32962.4
50319.1,33009.5
50342.3,33053
50373.5,33091
50411.6,33122.3
50455,33145.5
50502.2,33159.8
50551.2,33164.6
51023.6,33164.6
51072.6,33159.8
51119.8,33145.5
51163.2,33122.3
51169.5,33117.1
51236.1,33144.7
51330.1,33163.4
51425.8,33163.4
51519.8,33144.7
51608.3,33108
51687.9,33054.8
51755.6,32987.1
51808.8,32907.5
51845.5,32819
51864.2,32725.1
51864.2,32629.3
51845.5,32535.3
51808.8,32446.9
51755.6,32367.2
51687.9,32299.5
51608.3,32246.3
51519.8,32209.6
51425.8,32190.9
51330.1,32190.9
51236.1,32209.6
51169.5,32237.2
51163.2,32232.1
51119.8,32208.9
51072.6,32194.6
51023.6,32189.7
50551.2,32189.7
50502.2,32194.6
50455,32208.9
50411.6,32232.1
50373.5,32263.3
50342.3,32301.4
50319.1,32344.8
50304.8,32391.9
50300,32440.9
38306.1,32440.9
38320.9,32366.7
38320.9,32263.2
38300.7,32161.7
38261,32066
38203.5,31979.9
38130.3,31906.7
38044.2,31849.2
37948.6,31809.6
37847,31789.4
37743.5,31789.4
37642,31809.6
37546.3,31849.2
37460.2,31906.7
37387,31979.9
37329.5,32066
37289.9,32161.7
37269.7,32263.2
34970.5,32263.2
34970.5,32233.6
34951,32135.9
34912.9,32043.8
34857.5,31961
34787.1,31890.5
34704.2,31835.1
34612.1,31797
34514.4,31777.6
34470.5,31777.6
34470.5,31733.6
34451,31635.9
34412.9,31543.8
34357.5,31461
34287.1,31390.5
34204.2,31335.1
34112.1,31297
34014.4,31277.6
33914.7,31277.6
33817,31297
33724.9,31335.1
33642.1,31390.5
33571.6,31461
33516.2,31543.8
33478.1,31635.9
33458.7,31733.6
33458.7,31776.3
33208.7,31776.3
33159.7,31781.2
33112.5,31795.5
33069.1,31818.7
33031,31849.9
32999.8,31888
32976.6,31931.4
32962.3,31978.6
32957.5,32027.6
32631.9,32027.6
32631.9,30263.2
37269.7,30263.2
37269.7,30366.7
37289.9,30468.3
37329.5,30563.9
37387,30650
37460.2,30723.2
37546.3,30780.7
37642,30820.4
37743.5,30840.6
37847,30840.6
37948.6,30820.4
38044.2,30780.7
38130.3,30723.2
38203.5,30650
38261,30563.9
38300.7,30468.3
38320.9,30366.7
38320.9,30263.2
38300.7,30161.7
38261,30066
38203.5,29979.9
38130.3,29906.7
38044.2,29849.2
37948.6,29809.6
37847,29789.4
37743.5,29789.4
37642,29809.6
37546.3,29849.2
37460.2,29906.7
37387,29979.9
37329.5,30066
37289.9,30161.7
37269.7,30263.2
32631.9,30263.2
32631.9,28719.9
33332.7,28719.9
33332.7,28823.4
33352.9,28925
33392.5,29020.6
33450,29106.7
33523.2,29179.9
33609.3,29237.4
33705,29277
33806.5,29297.2
33910,29297.2
34011.6,29277
34107.2,29237.4
34193.3,29179.9
34259.6,29113.6
47112.2,29113.6
47112.2,29217.1
47132.4,29318.7
47172,29414.3
47229.5,29500.4
47302.8,29573.6
47388.8,29631.1
47484.5,29670.7
47586,29690.9
47689.6,29690.9
47791.1,29670.7
47886.8,29631.1
47972.8,29573.6
48046,29500.4
48103.6,29414.3
48143.2,29318.7
48163.4,29217.1
48163.4,29113.6
50261.8,29113.6
50261.8,29217.1
50282,29318.7
50321.6,29414.3
50379.1,29500.4
50452.4,29573.6
50538.4,29631.1
50634.1,29670.7
50735.6,29690.9
50839.2,29690.9
50940.7,29670.7
51036.4,29631.1
51122.4,29573.6
51195.7,29500.4
51253.2,29414.3
51292.8,29318.7
51313,29217.1
51313,29113.6
51292.8,29012
51253.2,28916.4
51195.7,28830.3
51122.4,28757.1
51036.4,28699.6
50940.7,28660
50839.2,28639.8
50735.6,28639.8
50634.1,28660
50538.4,28699.6
50452.4,28757.1
50379.1,28830.3
50321.6,28916.4
50282,29012
50261.8,29113.6
48163.4,29113.6
48143.2,29012
48103.6,28916.4
48046,28830.3
47972.8,28757.1
47886.8,28699.6
47791.1,28660
47689.6,28639.8
47586,28639.8
47484.5,28660
47388.8,28699.6
47302.8,28757.1
47229.5,28830.3
47172,28916.4
47132.4,29012
47112.2,29113.6
34259.6,29113.6
34266.5,29106.7
34324,29020.6
34363.7,28925
34383.9,28823.4
34383.9,28719.9
34363.7,28618.3
34324,28522.7
34266.5,28436.6
34193.3,28363.4
34107.2,28305.9
34011.6,28266.3
33910,28246.1
33806.5,28246.1
33705,28266.3
33609.3,28305.9
33523.2,28363.4
33450,28436.6
33392.5,28522.7
33352.9,28618.3
33332.7,28719.9
32631.9,28719.9
32631.9,27576.2
32633.6,27559.1
32631.9,27541.9
32631.9,27541.9
32626.8,27490.8
32606.9,27425.1
32574.6,27364.5
32531,27311.5
32517.7,27300.6
32021.7,26804.5
32021.7,26719.9
33332.7,26719.9
33332.7,26823.4
33352.9,26925
33392.5,27020.6
33450,27106.7
33523.2,27179.9
33609.3,27237.4
33705,27277
33806.5,27297.2
33910,27297.2
34011.6,27277
34107.2,27237.4
34193.3,27179.9
34266.5,27106.7
34324,27020.6
34363.7,26925
34383.9,26823.4
34383.9,26719.9
34363.7,26618.3
34324,26522.7
34266.5,26436.6
34193.3,26363.4
34107.2,26305.9
34011.6,26266.3
33910,26246.1
33806.5,26246.1
33705,26266.3
33609.3,26305.9
33523.2,26363.4
33450,26436.6
33392.5,26522.7
33352.9,26618.3
33332.7,26719.9
32021.7,26719.9
32001.5,26618.3
31961.8,26522.7
31904.3,26436.6
31831.1,26363.4
31745,26305.9
31649.4,26266.3
31547.8,26246.1
31444.3,26246.1
31342.8,26266.3
31247.1,26305.9
31161,26363.4
31087.8,26436.6
31030.3,26522.7
30990.7,26618.3
30970.5,26719.9
25328.7,26719.9
25308.5,26618.3
25268.9,26522.7
25211.4,26436.6
25138.2,26363.4
25052.1,26305.9
24956.5,26266.3
24854.9,26246.1
24751.4,26246.1
24649.8,26266.3
24554.2,26305.9
24468.1,26363.4
24394.9,26436.6
24337.4,26522.7
24297.8,26618.3
24277.6,26719.9
16007.9,26719.9
16007.9,23208.1
27033.5,23208.1
27033.5,23311.6
27053.7,23413.2
27093.3,23508.8
27150.8,23594.9
27224,23668.1
27310.1,23725.6
27405.7,23765.2
27507.3,23785.4
27610.8,23785.4
27712.4,23765.2
27808,23725.6
27894.1,23668.1
27967.3,23594.9
28024.8,23508.8
28064.4,23413.2
28084.6,23311.6
28084.6,23227
28103.6,23208.1
33332.7,23208.1
33332.7,23311.6
33352.9,23413.2
33392.5,23508.8
33450,23594.9
33523.2,23668.1
33609.3,23725.6
33705,23765.2
33806.5,23785.4
33910,23785.4
34011.6,23765.2
34107.2,23725.6
34193.3,23668.1
34266.5,23594.9
34324,23508.8
34363.7,23413.2
34383.9,23311.6
34383.9,23208.1
34363.7,23106.5
34324,23010.9
34266.5,22924.8
34193.3,22851.6
34107.2,22794.1
34011.6,22754.5
33910,22734.3
33806.5,22734.3
33705,22754.5
33609.3,22794.1
33523.2,22851.6
33450,22924.8
33392.5,23010.9
33352.9,23106.5
33332.7,23208.1
28103.6,23208.1
29368.1,21943.5
29381.4,21932.6
29425,21879.6
29457.3,21819
29477.2,21753.3
29482.3,21702.2
29482.3,21702.2
29484,21685
29482.3,21667.9
29482.3,21208.1
33332.7,21208.1
33332.7,21311.6
33352.9,21413.2
33392.5,21508.8
33450,21594.9
33523.2,21668.1
33609.3,21725.6
33705,21765.2
33806.5,21785.4
33910,21785.4
34011.6,21765.2
34107.2,21725.6
34193.3,21668.1
34266.5,21594.9
34324,21508.8
34363.7,21413.2
34383.9,21311.6
34383.9,21208.1
34363.7,21106.5
34324,21010.9
34266.5,20924.8
34193.3,20851.6
34107.2,20794.1
34011.6,20754.5
33910,20734.3
33806.5,20734.3
33705,20754.5
33609.3,20794.1
33523.2,20851.6
33450,20924.8
33392.5,21010.9
33352.9,21106.5
33332.7,21208.1
29482.3,21208.1
29482.3,18451
29510.1,18417.1
29533.3,18373.7
29547.6,18326.6
29552.4,18277.6
29552.4,17942.9
29640.5,17942.9
29640.5,18277.6
29645.3,18326.6
29659.6,18373.7
29682.9,18417.1
29714.1,18455.2
29752.2,18486.4
29795.6,18509.6
29842.7,18523.9
29891.7,18528.8
30226.4,18528.8
30275.4,18523.9
30322.5,18509.6
30365.9,18486.4
30399.8,18458.7
34501.3,18458.7
37840.6,21797.9
37840.6,26446.2
37627.3,26659.4
37620.1,26659.4
37620.1,26615.5
37600.6,26517.8
37562.5,26425.7
37507.1,26342.9
37436.7,26272.4
37353.8,26217
37261.7,26178.9
37164,26159.4
37064.3,26159.4
36966.6,26178.9
36874.5,26217
36791.7,26272.4
36721.2,26342.9
36665.8,26425.7
36627.7,26517.8
36608.3,26615.5
36608.3,26658.2
36358.3,26658.2
36309.3,26663.1
36262.1,26677.4
36218.7,26700.6
36180.6,26731.8
36149.4,26769.9
36126.2,26813.3
36111.9,26860.4
36107.1,26909.4
36107.1,27421.3
36111.9,27470.3
36126.2,27517.4
36149.4,27560.8
36180.6,27598.9
36218.7,27630.1
36262.1,27653.3
36309.3,27667.6
36358.3,27672.5
36870.1,27672.5
36919.1,27667.6
36966.2,27653.3
37009.6,27630.1
37047.7,27598.9
37079,27560.8
37102.2,27517.4
37116.5,27470.3
37121.3,27421.3
37121.3,27280.6
37127.7,27312.9
37165.8,27405
37221.2,27487.9
37291.7,27558.3
37374.5,27613.7
37466.6,27651.8
37564.3,27671.3
37664,27671.3
37761.7,27651.8
37853.8,27613.7
37936.7,27558.3
38007.1,27487.9
38062.5,27405
38100.6,27312.9
38120.1,27215.2
38120.1,27152.2
38423.2,26849
38436.5,26838.1
38480.1,26785.1
38512.4,26724.5
38532.4,26658.9
38537.4,26607.7
38537.4,26607.7
38539.1,26590.6
38537.4,26573.4
38537.4,26029.5
42032.3,26029.5
42032.3,27088.6
42037.1,27137.6
42051.4,27184.7
42074.6,27228.1
42105.8,27266.2
42143.9,27297.5
42187.3,27320.7
42234.5,27335
42283.5,27339.8
43342.5,27339.8
43391.5,27335
43438.7,27320.7
43482.1,27297.5
43520.2,27266.2
43551.4,27228.1
43574.6,27184.7
43588.9,27137.6
43591.3,27113.6
47112.2,27113.6
47112.2,27217.1
47132.4,27318.7
47172,27414.3
47229.5,27500.4
47302.8,27573.6
47388.8,27631.1
47484.5,27670.7
47586,27690.9
47689.6,27690.9
47791.1,27670.7
47886.8,27631.1
47972.8,27573.6
48046,27500.4
48103.6,27414.3
48143.2,27318.7
48163.4,27217.1
48163.4,27113.6
50261.8,27113.6
50261.8,27217.1
50282,27318.7
50321.6,27414.3
50379.1,27500.4
50452.4,27573.6
50538.4,27631.1
50634.1,27670.7
50735.6,27690.9
50839.2,27690.9
50940.7,27670.7
51036.4,27631.1
51122.4,27573.6
51195.7,27500.4
51253.2,27414.3
51292.8,27318.7
51313,27217.1
51313,27113.6
51292.8,27012
51253.2,26916.4
51195.7,26830.3
51122.4,26757.1
51036.4,26699.6
50940.7,26660
50839.2,26639.8
50735.6,26639.8
50634.1,26660
50538.4,26699.6
50452.4,26757.1
50379.1,26830.3
50321.6,26916.4
50282,27012
50261.8,27113.6
48163.4,27113.6
48143.2,27012
48103.6,26916.4
48046,26830.3
47972.8,26757.1
47886.8,26699.6
47791.1,26660
47689.6,26639.8
47586,26639.8
47484.5,26660
47388.8,26699.6
47302.8,26757.1
47229.5,26830.3
47172,26916.4
47132.4,27012
47112.2,27113.6
43591.3,27113.6
43593.7,27088.6
43593.7,26956.7
44287.6,26956.7
44307.1,26958.6
44385,26950.9
44441.1,26933.9
44460,26928.2
44529.1,26891.3
44589.6,26841.6
44602.1,26826.4
46133.2,25295.3
54177.9,25295.3
54177.9,26673.2
54182.8,26722.2
54197,26769.4
54220.3,26812.8
54251.5,26850.9
54289.6,26882.1
54333,26905.3
54380.1,26919.6
54429.1,26924.4
55807.1,26924.4
55856.1,26919.6
55903.2,26905.3
55946.7,26882.1
55984.7,26850.9
56016,26812.8
56039.2,26769.4
56053.5,26722.2
56058.3,26673.2
56638.6,26673.2
56643.4,26722.2
56657.7,26769.4
56680.9,26812.8
56712.1,26850.9
56750.2,26882.1
56793.6,26905.3
56840.8,26919.6
56889.8,26924.4
57367.8,26923.2
57430.3,26860.7
57430.3,26034.3
57530.3,26034.3
57530.3,26860.7
57592.8,26923.2
58070.9,26924.4
58119.9,26919.6
58167,26905.3
58210.4,26882.1
58248.5,26850.9
58279.7,26812.8
58303,26769.4
58317.2,26722.2
58322.1,26673.2
58320.9,26096.8
58258.4,26034.3
57530.3,26034.3
57430.3,26034.3
56702.3,26034.3
56639.8,26096.8
56638.6,26673.2
56058.3,26673.2
56058.3,25295.3
56053.5,25246.3
56039.2,25199.1
56016,25155.7
55984.7,25117.6
55946.7,25086.4
55922.3,25073.4
56186.7,25072.8
56249.2,25010.3
56249.2,24183.9
56349.2,24183.9
56349.2,25010.3
56411.7,25072.8
56774.2,25073.6
56750.2,25086.4
56712.1,25117.6
56680.9,25155.7
56657.7,25199.1
56643.4,25246.3
56638.6,25295.3
56639.8,25871.8
56702.3,25934.3
57430.3,25934.3
57430.3,25107.8
57530.3,25107.8
57530.3,25934.3
58258.4,25934.3
58320.9,25871.8
58322.1,25295.3
58317.2,25246.3
58303,25199.1
58279.7,25155.7
58248.5,25117.6
58210.4,25086.4
58167,25063.2
58119.9,25048.9
58070.9,25044.1
57592.8,25045.3
57530.3,25107.8
57430.3,25107.8
57367.8,25045.3
57103.6,25044.6
57127.8,25031.7
57165.8,25000.5
57197.1,24962.4
57220.3,24919
57234.6,24871.8
57239.4,24822.8
57238.2,24246.4
57175.7,24183.9
56349.2,24183.9
56249.2,24183.9
55422.7,24183.9
55360.2,24246.4
55359,24822.8
55363.9,24871.8
55378.1,24919
55401.4,24962.4
55432.6,25000.5
55470.7,25031.7
55493.8,25044.1
54429.1,25044.1
54380.1,25048.9
54333,25063.2
54289.6,25086.4
54251.5,25117.6
54220.3,25155.7
54197,25199.1
54182.8,25246.3
54177.9,25295.3
46133.2,25295.3
46834,24594.5
49118.9,24594.5
49118.9,24726.4
49123.7,24775.4
49138,24822.5
49161.2,24865.9
49192.4,24904
49230.5,24935.3
49273.9,24958.5
49321.1,24972.8
49370.1,24977.6
50429.1,24977.6
50478.1,24972.8
50525.3,24958.5
50568.7,24935.3
50606.8,24904
50638,24865.9
50661.2,24822.5
50675.5,24775.4
50680.3,24726.4
50680.3,23667.3
50675.5,23618.3
50661.2,23571.2
50638,23527.8
50606.8,23489.7
50568.7,23458.5
50543.3,23444.9
55359,23444.9
55360.2,24021.4
55422.7,24083.9
56249.2,24083.9
56249.2,23257.4
56349.2,23257.4
56349.2,24083.9
57175.7,24083.9
57238.2,24021.4
57239.4,23444.9
57234.6,23395.9
57220.3,23348.7
57197.1,23305.3
57165.8,23267.2
57127.8,23236
57084.3,23212.8
57037.2,23198.5
56988.2,23193.7
56411.7,23194.9
56349.2,23257.4
56249.2,23257.4
56186.7,23194.9
55610.2,23193.7
55561.2,23198.5
55514.1,23212.8
55470.7,23236
55432.6,23267.2
55401.4,23305.3
55378.1,23348.7
55363.9,23395.9
55359,23444.9
50543.3,23444.9
50525.3,23435.2
50478.1,23420.9
50429.1,23416.1
49370.1,23416.1
49321.1,23420.9
49273.9,23435.2
49230.5,23458.5
49192.4,23489.7
49161.2,23527.8
49138,23571.2
49123.7,23618.3
49118.9,23667.3
49118.9,23799.2
46688.8,23799.2
46669.3,23797.3
46649.8,23799.2
46649.8,23799.2
46591.3,23805
46516.4,23827.7
46447.3,23864.6
46386.8,23914.3
46374.3,23929.5
44142.4,26161.4
43593.7,26161.4
43593.7,26029.5
43588.9,25980.5
43574.6,25933.4
43551.4,25890
43520.2,25851.9
43482.1,25820.7
43438.7,25797.4
43391.5,25783.1
43342.5,25778.3
42283.5,25778.3
42234.5,25783.1
42187.3,25797.4
42143.9,25820.7
42105.8,25851.9
42074.6,25890
42051.4,25933.4
42037.1,25980.5
42032.3,26029.5
38537.4,26029.5
38537.4,24332.7
42033.5,24332.7
42033.5,24486.2
42063.4,24636.8
42122.2,24778.7
42207.5,24906.4
42316.1,25014.9
42443.7,25100.3
42585.6,25159
42736.2,25189
42889.8,25189
43040.4,25159
43182.2,25100.3
43309.9,25014.9
43418.5,24906.4
43503.8,24778.7
43562.6,24636.8
43592.5,24486.2
43592.5,24332.7
43562.6,24182.1
43503.8,24040.2
43418.5,23912.5
43309.9,23804
43182.2,23718.6
43040.4,23659.9
42889.8,23629.9
42736.2,23629.9
42585.6,23659.9
42443.7,23718.6
42316.1,23804
42207.5,23912.5
42122.2,24040.2
42063.4,24182.1
42033.5,24332.7
38537.4,24332.7
38537.4,22183.1
42033.5,22183.1
42033.5,22336.6
42063.4,22487.2
42122.2,22629.1
42207.5,22756.8
42316.1,22865.3
42443.7,22950.7
42585.6,23009.4
42736.2,23039.4
42889.8,23039.4
43040.4,23009.4
43182.2,22950.7
43309.9,22865.3
43418.5,22756.8
43503.8,22629.1
43562.6,22487.2
43592.5,22336.6
43592.5,22183.1
43562.6,22032.5
43536.9,21970.5
49120.1,21970.5
49120.1,22124
49150,22274.6
49208.8,22416.5
49294.1,22544.2
49402.7,22652.7
49530.4,22738.1
49672.2,22796.8
49822.8,22826.8
49976.4,22826.8
50127,22796.8
50268.9,22738.1
50396.5,22652.7
50505.1,22544.2
50590.4,22416.5
50649.2,22274.6
50679.1,22124
50679.1,21970.5
50649.2,21819.9
50590.4,21678
50505.1,21550.3
50396.5,21441.7
50268.9,21356.4
50127,21297.7
49976.4,21267.7
49822.8,21267.7
49672.2,21297.7
49530.4,21356.4
49402.7,21441.7
49294.1,21550.3
49208.8,21678
49150,21819.9
49120.1,21970.5
43536.9,21970.5
43503.8,21890.6
43418.5,21762.9
43309.9,21654.3
43182.2,21569
43040.4,21510.3
42889.8,21480.3
42736.2,21480.3
42585.6,21510.3
42443.7,21569
42316.1,21654.3
42207.5,21762.9
42122.2,21890.6
42063.4,22032.5
42033.5,22183.1
38537.4,22183.1
38537.4,21670.7
38539.1,21653.5
38537.4,21636.4
38537.4,21636.4
38532.4,21585.2
38512.4,21519.6
38480.1,21459
38436.5,21406
38423.2,21395.1
36849,19820.9
49120.1,19820.9
49120.1,19974.4
49150,20125
49208.8,20266.9
49294.1,20394.6
49402.7,20503.1
49530.4,20588.4
49672.2,20647.2
49822.8,20677.2
49976.4,20677.2
50127,20647.2
50268.9,20588.4
50396.5,20503.1
50505.1,20394.6
50590.4,20266.9
50649.2,20125
50679.1,19974.4
50679.1,19820.9
50649.2,19670.3
50590.4,19528.4
50505.1,19400.7
50396.5,19292.1
50268.9,19206.8
50127,19148.1
49976.4,19118.1
49822.8,19118.1
49672.2,19148.1
49530.4,19206.8
49402.7,19292.1
49294.1,19400.7
49208.8,19528.4
49150,19670.3
49120.1,19820.9
36849,19820.9
35839.2,18811
54631.9,18811
54631.9,18984.3
54665.7,19154.3
54732,19314.4
54828.3,19458.6
54950.9,19581.1
55095,19677.4
55255.1,19743.7
55425.1,19777.6
55598.5,19777.6
55768.5,19743.7
55928.6,19677.4
56072.7,19581.1
56195.3,19458.6
56291.6,19314.4
56357.9,19154.3
56391.7,18984.3
56391.7,18811
56357.9,18641
56291.6,18480.8
56195.3,18336.7
56072.7,18214.2
55928.6,18117.9
55768.5,18051.5
55598.5,18017.7
55425.1,18017.7
55255.1,18051.5
55095,18117.9
54950.9,18214.2
54828.3,18336.7
54732,18480.8
54665.7,18641
54631.9,18811
35839.2,18811
34904.1,17876
34893.2,17862.7
34840.2,17819.1
34779.7,17786.8
34714,17766.9
34662.8,17761.8
34662.8,17761.8
34645.7,17760.1
34628.6,17761.8
30399.8,17761.8
30365.9,17734
30322.5,17710.8
30275.4,17696.5
30226.4,17691.7
29891.7,17691.7
29842.7,17696.5
29795.6,17710.8
29752.2,17734
29714.1,17765.3
29682.9,17803.3
29659.6,17846.8
29645.3,17893.9
29640.5,17942.9
29552.4,17942.9
29547.6,17893.9
29533.3,17846.8
29510.1,17803.3
29478.8,17765.3
29440.7,17734
29397.3,17710.8
29350.2,17696.5
29301.2,17691.7
28966.5,17691.7
28917.5,17696.5
28870.4,17710.8
28827,17734
28788.9,17765.3
28757.7,17803.3
28734.4,17846.8
28720.2,17893.9
28715.3,17942.9
28715.3,18277.6
28720.2,18326.6
28734.4,18373.7
28757.7,18417.1
28785.4,18451
28785.4,21540.7
27591.9,22734.3
27507.3,22734.3
27405.7,22754.5
27310.1,22794.1
27224,22851.6
27150.8,22924.8
27093.3,23010.9
27053.7,23106.5
27033.5,23208.1
16007.9,23208.1
16007.9,21208.1
27033.5,21208.1
27033.5,21311.6
27053.7,21413.2
27093.3,21508.8
27150.8,21594.9
27224,21668.1
27310.1,21725.6
27405.7,21765.2
27507.3,21785.4
27610.8,21785.4
27712.4,21765.2
27808,21725.6
27894.1,21668.1
27967.3,21594.9
28024.8,21508.8
28064.4,21413.2
28084.6,21311.6
28084.6,21208.1
28064.4,21106.5
28024.8,21010.9
27967.3,20924.8
27894.1,20851.6
27808,20794.1
27712.4,20754.5
27610.8,20734.3
27507.3,20734.3
27405.7,20754.5
27310.1,20794.1
27224,20851.6
27150.8,20924.8
27093.3,21010.9
27053.7,21106.5
27033.5,21208.1
16007.9,21208.1
16007.9,18811
17624,18811
17624,18984.3
17657.8,19154.3
17724.2,19314.4
17820.5,19458.6
17943,19581.1
18087.1,19677.4
18247.3,19743.7
18417.3,19777.6
18590.6,19777.6
18760.6,19743.7
18920.7,19677.4
19064.9,19581.1
19187.4,19458.6
19283.7,19314.4
19350,19154.3
19383.9,18984.3
19383.9,18811
19350,18641
19283.7,18480.8
19187.4,18336.7
19064.9,18214.2
18920.7,18117.9
18760.6,18051.5
18590.6,18017.7
18417.3,18017.7
18247.3,18051.5
18087.1,18117.9
17943,18214.2
17820.5,18336.7
17724.2,18480.8
17657.8,18641
17624,18811
16007.9,18811
16007.9,17335.5
16026.6,17144.1
16078.5,16972.2
16162.8,16813.7
16276.3,16674.6
16414.7,16560.1
16572.6,16474.7
16744.1,16421.6
16934.8,16401.6
58795.3,16401.6
Z" /> 
</g>
</g> 
</svg>
