<?xml version="1.0" standalone="no"?>
 <!DOCTYPE svg PUBLIC "-//W3C//DTD SVG 1.1//EN" 
 "http://www.w3.org/Graphics/SVG/1.1/DTD/svg11.dtd"> 
<svg
  xmlns:svg="http://www.w3.org/2000/svg"
  xmlns="http://www.w3.org/2000/svg"
  xmlns:xlink="http://www.w3.org/1999/xlink"
  version="1.1"
  width="29.700220cm" height="21.000720cm" viewBox="0 0 116930 82680">
<title>SVG Picture created as audioamplifier-F_SilkS.svg date 2020/12/31 15:42:50 </title>
  <desc>Picture generated by PCBNEW </desc>
<g style="fill:#000000; fill-opacity:1;stroke:#000000; stroke-opacity:1;
stroke-linecap:round; stroke-linejoin:round;"
 transform="translate(0 0) scale(1 1)">
</g>
<g style="fill:#000000; fill-opacity:0.0; 
stroke:#000000; stroke-width:-0.000393701; stroke-opacity:1; 
stroke-linecap:round; stroke-linejoin:round;">
</g>
<g style="fill:#000000; fill-opacity:0.0; 
stroke:#000000; stroke-width:78.7402; stroke-opacity:1; 
stroke-linecap:round; stroke-linejoin:round;">
<circle cx="55059.1" cy="33464.6" r="39.3701" /> 
</g>
<g style="fill:#000000; fill-opacity:0.0; 
stroke:#000000; stroke-width:50; stroke-opacity:1; 
stroke-linecap:round; stroke-linejoin:round;">
<path d="M58622 32480
L58622 32677
" />
<path d="M56850 32480
L58622 32480
" />
<path d="M55551 32480
L55826 32480
" />
<path d="M55551 32874
L55551 32480
" />
<path d="M55551 34448
L55551 34055
" />
<path d="M55787 34448
L55551 34448
" />
<path d="M58622 34448
L56850 34448
" />
<path d="M58622 34251
L58622 34448
" />
<path d="M58622 32677
L58622 34251
" />
<path d="M59803 32677
L58622 32677
" />
<path d="M59803 34251
L59803 32677
" />
<path d="M58622 34251
L59803 34251
" />
</g>
<g style="fill:#000000; fill-opacity:0.0; 
stroke:#000000; stroke-width:47.2441; stroke-opacity:1; 
stroke-linecap:round; stroke-linejoin:round;">
<path d="M29785 18379
L30332 18379
" />
<path d="M29785 18379
L29785 18330
" />
<path d="M30332 18379
L30332 18330
" />
<path d="M29785 18379
L29819 18379
" />
<path d="M30298 18379
L30332 18379
" />
<path d="M29785 18110
L29785 17840
" />
<path d="M29785 17840
L30059 17840
" />
<path d="M28860 18379
L29407 18379
" />
<path d="M28860 18379
L28860 18330
" />
<path d="M29407 18379
L29407 18330
" />
<path d="M28860 18379
L28894 18379
" />
<path d="M29373 18379
L29407 18379
" />
<path d="M28860 18110
L28860 17840
" />
<path d="M28860 17840
L29133 17840
" />
<path d="M23895 45005
L23348 45005
" />
<path d="M23895 45005
L23895 45055
" />
<path d="M23348 45005
L23348 45055
" />
<path d="M23895 45005
L23861 45005
" />
<path d="M23382 45005
L23348 45005
" />
<path d="M23895 45275
L23895 45545
" />
<path d="M23895 45545
L23622 45545
" />
<path d="M25076 45005
L24529 45005
" />
<path d="M25076 45005
L25076 45055
" />
<path d="M24529 45005
L24529 45055
" />
<path d="M25076 45005
L25042 45005
" />
<path d="M24563 45005
L24529 45005
" />
<path d="M25076 45275
L25076 45545
" />
<path d="M25076 45545
L24803 45545
" />
<path d="M28620 45005
L28072 45005
" />
<path d="M28620 45005
L28620 45055
" />
<path d="M28072 45005
L28072 45055
" />
<path d="M28620 45005
L28585 45005
" />
<path d="M28106 45005
L28072 45005
" />
<path d="M28620 45275
L28620 45545
" />
<path d="M28620 45545
L28346 45545
" />
<path d="M29801 45005
L29253 45005
" />
<path d="M29801 45005
L29801 45055
" />
<path d="M29253 45005
L29253 45055
" />
<path d="M29801 45005
L29767 45005
" />
<path d="M29288 45005
L29253 45005
" />
<path d="M29801 45275
L29801 45545
" />
<path d="M29801 45545
L29527 45545
" />
<path d="M39250 45793
L38702 45793
" />
<path d="M39250 45793
L39250 45842
" />
<path d="M38702 45793
L38702 45842
" />
<path d="M39250 45793
L39215 45793
" />
<path d="M38736 45793
L38702 45793
" />
<path d="M39250 46062
L39250 46332
" />
<path d="M39250 46332
L38976 46332
" />
<path d="M37675 45793
L37127 45793
" />
<path d="M37675 45793
L37675 45842
" />
<path d="M37127 45793
L37127 45842
" />
<path d="M37675 45793
L37641 45793
" />
<path d="M37162 45793
L37127 45793
" />
<path d="M37675 46062
L37675 46332
" />
<path d="M37675 46332
L37401 46332
" />
<path d="M42005 45793
L41458 45793
" />
<path d="M42005 45793
L42005 45842
" />
<path d="M41458 45793
L41458 45842
" />
<path d="M42005 45793
L41971 45793
" />
<path d="M41492 45793
L41458 45793
" />
<path d="M42005 46062
L42005 46332
" />
<path d="M42005 46332
L41732 46332
" />
<path d="M43187 45793
L42639 45793
" />
<path d="M43187 45793
L43187 45842
" />
<path d="M42639 45793
L42639 45842
" />
<path d="M43187 45793
L43152 45793
" />
<path d="M42673 45793
L42639 45793
" />
<path d="M43187 46062
L43187 46332
" />
<path d="M43187 46332
L42913 46332
" />
<path d="M36405 27893
L37822 27893
" />
<path d="M37838 27889.2 A1023.62 1023.62 0.0 0 0 37114.2 26141.7" />
<path d="M37114.2 26141.7 A1023.62 1023.62 0.0 0 0 36390.4 27889.2" />
<circle cx="24311" cy="32283.5" r="834.646" /> 
<path d="M24311 32614
L24311 33102
" />
<path d="M24311 31464
L24311 31952
" />
<path d="M24326 32614
L24326 33102
" />
<path d="M24326 31464
L24326 31952
" />
<path d="M24342 32614
L24342 33101
" />
<path d="M24342 31464
L24342 31952
" />
<path d="M24358 31465
L24358 31952
" />
<path d="M24358 32614
L24358 33101
" />
<path d="M24374 31466
L24374 31952
" />
<path d="M24374 32614
L24374 33100
" />
<path d="M24389 31468
L24389 31952
" />
<path d="M24389 32614
L24389 33098
" />
<path d="M24405 31469
L24405 31952
" />
<path d="M24405 32614
L24405 33097
" />
<path d="M24421 31471
L24421 31952
" />
<path d="M24421 32614
L24421 33095
" />
<path d="M24437 31474
L24437 31952
" />
<path d="M24437 32614
L24437 33092
" />
<path d="M24452 31476
L24452 31952
" />
<path d="M24452 32614
L24452 33090
" />
<path d="M24468 31479
L24468 31952
" />
<path d="M24468 32614
L24468 33087
" />
<path d="M24484 31482
L24484 31952
" />
<path d="M24484 32614
L24484 33084
" />
<path d="M24500 31486
L24500 31952
" />
<path d="M24500 32614
L24500 33080
" />
<path d="M24515 31489
L24515 31952
" />
<path d="M24515 32614
L24515 33077
" />
<path d="M24531 31494
L24531 31952
" />
<path d="M24531 32614
L24531 33072
" />
<path d="M24547 31498
L24547 31952
" />
<path d="M24547 32614
L24547 33068
" />
<path d="M24562 31503
L24562 31952
" />
<path d="M24562 32614
L24562 33063
" />
<path d="M24578 31508
L24578 31952
" />
<path d="M24578 32614
L24578 33058
" />
<path d="M24594 31514
L24594 31952
" />
<path d="M24594 32614
L24594 33052
" />
<path d="M24610 31519
L24610 31952
" />
<path d="M24610 32614
L24610 33047
" />
<path d="M24626 31525
L24626 31952
" />
<path d="M24626 32614
L24626 33040
" />
<path d="M24642 31532
L24642 31952
" />
<path d="M24642 32614
L24642 33034
" />
<path d="M24657 31539
L24657 31952
" />
<path d="M24657 32614
L24657 33027
" />
<path d="M24673 31547
L24673 31952
" />
<path d="M24673 32614
L24673 33019
" />
<path d="M24689 31554
L24689 31952
" />
<path d="M24689 32614
L24689 33012
" />
<path d="M24705 31562
L24705 31952
" />
<path d="M24705 32614
L24705 33003
" />
<path d="M24720 31571
L24720 31952
" />
<path d="M24720 32614
L24720 32995
" />
<path d="M24736 31580
L24736 31952
" />
<path d="M24736 32614
L24736 32986
" />
<path d="M24752 31590
L24752 31952
" />
<path d="M24752 32614
L24752 32976
" />
<path d="M24768 31600
L24768 31952
" />
<path d="M24768 32614
L24768 32966
" />
<path d="M24783 31611
L24783 31952
" />
<path d="M24783 32614
L24783 32955
" />
<path d="M24799 31622
L24799 31952
" />
<path d="M24799 32614
L24799 32944
" />
<path d="M24815 31633
L24815 31952
" />
<path d="M24815 32614
L24815 32933
" />
<path d="M24831 31646
L24831 31952
" />
<path d="M24831 32614
L24831 32920
" />
<path d="M24846 31658
L24846 31952
" />
<path d="M24846 32614
L24846 32908
" />
<path d="M24862 31672
L24862 31952
" />
<path d="M24862 32614
L24862 32894
" />
<path d="M24878 31686
L24878 31952
" />
<path d="M24878 32614
L24878 32880
" />
<path d="M24894 31701
L24894 31952
" />
<path d="M24894 32614
L24894 32865
" />
<path d="M24909 31717
L24909 31952
" />
<path d="M24909 32614
L24909 32849
" />
<path d="M24925 31733
L24925 31952
" />
<path d="M24925 32614
L24925 32833
" />
<path d="M24941 31751
L24941 32815
" />
<path d="M24957 31770
L24957 32796
" />
<path d="M24972 31789
L24972 32777
" />
<path d="M24988 31811
L24988 32755
" />
<path d="M25004 31833
L25004 32733
" />
<path d="M25020 31858
L25020 32708
" />
<path d="M25035 31884
L25035 32682
" />
<path d="M25051 31913
L25051 32653
" />
<path d="M25067 31945
L25067 32621
" />
<path d="M25083 31981
L25083 32585
" />
<path d="M25098 32022
L25098 32544
" />
<path d="M25114 32072
L25114 32494
" />
<path d="M25130 32137
L25130 32429
" />
<path d="M23417 31812
L23574 31812
" />
<path d="M23496 31734
L23496 31891
" />
<circle cx="51082.7" cy="32677.2" r="834.646" /> 
<path d="M51082 33007
L51082 33496
" />
<path d="M51082 31858
L51082 32346
" />
<path d="M51098 33007
L51098 33496
" />
<path d="M51098 31858
L51098 32346
" />
<path d="M51114 33007
L51114 33495
" />
<path d="M51114 31858
L51114 32346
" />
<path d="M51129 31859
L51129 32346
" />
<path d="M51129 33007
L51129 33494
" />
<path d="M51145 31860
L51145 32346
" />
<path d="M51145 33007
L51145 33493
" />
<path d="M51161 31861
L51161 32346
" />
<path d="M51161 33007
L51161 33492
" />
<path d="M51177 31863
L51177 32346
" />
<path d="M51177 33007
L51177 33490
" />
<path d="M51192 31865
L51192 32346
" />
<path d="M51192 33007
L51192 33488
" />
<path d="M51208 31867
L51208 32346
" />
<path d="M51208 33007
L51208 33486
" />
<path d="M51224 31870
L51224 32346
" />
<path d="M51224 33007
L51224 33484
" />
<path d="M51240 31873
L51240 32346
" />
<path d="M51240 33007
L51240 33481
" />
<path d="M51255 31876
L51255 32346
" />
<path d="M51255 33007
L51255 33477
" />
<path d="M51271 31879
L51271 32346
" />
<path d="M51271 33007
L51271 33474
" />
<path d="M51287 31883
L51287 32346
" />
<path d="M51287 33007
L51287 33470
" />
<path d="M51303 31887
L51303 32346
" />
<path d="M51303 33007
L51303 33466
" />
<path d="M51318 31892
L51318 32346
" />
<path d="M51318 33007
L51318 33462
" />
<path d="M51334 31896
L51334 32346
" />
<path d="M51334 33007
L51334 33457
" />
<path d="M51350 31902
L51350 32346
" />
<path d="M51350 33007
L51350 33451
" />
<path d="M51366 31907
L51366 32346
" />
<path d="M51366 33007
L51366 33446
" />
<path d="M51382 31913
L51382 32346
" />
<path d="M51382 33007
L51382 33440
" />
<path d="M51398 31919
L51398 32346
" />
<path d="M51398 33007
L51398 33434
" />
<path d="M51413 31926
L51413 32346
" />
<path d="M51413 33007
L51413 33427
" />
<path d="M51429 31933
L51429 32346
" />
<path d="M51429 33007
L51429 33420
" />
<path d="M51445 31940
L51445 32346
" />
<path d="M51445 33007
L51445 33413
" />
<path d="M51461 31948
L51461 32346
" />
<path d="M51461 33007
L51461 33405
" />
<path d="M51476 31956
L51476 32346
" />
<path d="M51476 33007
L51476 33397
" />
<path d="M51492 31965
L51492 32346
" />
<path d="M51492 33007
L51492 33388
" />
<path d="M51508 31974
L51508 32346
" />
<path d="M51508 33007
L51508 33379
" />
<path d="M51524 31984
L51524 32346
" />
<path d="M51524 33007
L51524 33370
" />
<path d="M51539 31994
L51539 32346
" />
<path d="M51539 33007
L51539 33360
" />
<path d="M51555 32004
L51555 32346
" />
<path d="M51555 33007
L51555 33349
" />
<path d="M51571 32015
L51571 32346
" />
<path d="M51571 33007
L51571 33338
" />
<path d="M51587 32027
L51587 32346
" />
<path d="M51587 33007
L51587 33326
" />
<path d="M51602 32039
L51602 32346
" />
<path d="M51602 33007
L51602 33314
" />
<path d="M51618 32052
L51618 32346
" />
<path d="M51618 33007
L51618 33301
" />
<path d="M51634 32066
L51634 32346
" />
<path d="M51634 33007
L51634 33288
" />
<path d="M51650 32080
L51650 32346
" />
<path d="M51650 33007
L51650 33274
" />
<path d="M51665 32095
L51665 32346
" />
<path d="M51665 33007
L51665 33259
" />
<path d="M51681 32111
L51681 32346
" />
<path d="M51681 33007
L51681 33243
" />
<path d="M51697 32127
L51697 32346
" />
<path d="M51697 33007
L51697 33226
" />
<path d="M51712 32145
L51712 33209
" />
<path d="M51728 32163
L51728 33190
" />
<path d="M51744 32183
L51744 33170
" />
<path d="M51760 32204
L51760 33149
" />
<path d="M51775 32227
L51775 33126
" />
<path d="M51791 32251
L51791 33102
" />
<path d="M51807 32278
L51807 33075
" />
<path d="M51823 32307
L51823 33047
" />
<path d="M51838 32338
L51838 33015
" />
<path d="M51854 32374
L51854 32979
" />
<path d="M51870 32415
L51870 32938
" />
<path d="M51886 32465
L51886 32888
" />
<path d="M51901 32531
L51901 32822
" />
<path d="M50189 32206
L50346 32206
" />
<path d="M50267 32127
L50267 32285
" />
<circle cx="35039.4" cy="45964.6" r="834.646" /> 
<path d="M34708 45964
L34220 45964
" />
<path d="M35858 45964
L35370 45964
" />
<path d="M34708 45980
L34220 45980
" />
<path d="M35858 45980
L35370 45980
" />
<path d="M34708 45996
L34220 45996
" />
<path d="M35857 45996
L35370 45996
" />
<path d="M35857 46011
L35370 46011
" />
<path d="M34708 46011
L34221 46011
" />
<path d="M35855 46027
L35370 46027
" />
<path d="M34708 46027
L34222 46027
" />
<path d="M35854 46043
L35370 46043
" />
<path d="M34708 46043
L34224 46043
" />
<path d="M35853 46059
L35370 46059
" />
<path d="M34708 46059
L34225 46059
" />
<path d="M35851 46074
L35370 46074
" />
<path d="M34708 46074
L34227 46074
" />
<path d="M35848 46090
L35370 46090
" />
<path d="M34708 46090
L34229 46090
" />
<path d="M35846 46106
L35370 46106
" />
<path d="M34708 46106
L34232 46106
" />
<path d="M35843 46122
L35370 46122
" />
<path d="M34708 46122
L34235 46122
" />
<path d="M35840 46137
L35370 46137
" />
<path d="M34708 46137
L34238 46137
" />
<path d="M35836 46153
L35370 46153
" />
<path d="M34708 46153
L34242 46153
" />
<path d="M35833 46169
L35370 46169
" />
<path d="M34708 46169
L34245 46169
" />
<path d="M35828 46185
L35370 46185
" />
<path d="M34708 46185
L34250 46185
" />
<path d="M35824 46200
L35370 46200
" />
<path d="M34708 46200
L34254 46200
" />
<path d="M35819 46216
L35370 46216
" />
<path d="M34708 46216
L34259 46216
" />
<path d="M35814 46232
L35370 46232
" />
<path d="M34708 46232
L34264 46232
" />
<path d="M35808 46248
L35370 46248
" />
<path d="M34708 46248
L34270 46248
" />
<path d="M35803 46264
L35370 46264
" />
<path d="M34708 46264
L34275 46264
" />
<path d="M35796 46279
L35370 46279
" />
<path d="M34708 46279
L34281 46279
" />
<path d="M35790 46295
L35370 46295
" />
<path d="M34708 46295
L34288 46295
" />
<path d="M35783 46311
L35370 46311
" />
<path d="M34708 46311
L34295 46311
" />
<path d="M35775 46327
L35370 46327
" />
<path d="M34708 46327
L34303 46327
" />
<path d="M35768 46342
L35370 46342
" />
<path d="M34708 46342
L34310 46342
" />
<path d="M35759 46358
L35370 46358
" />
<path d="M34708 46358
L34318 46358
" />
<path d="M35751 46374
L35370 46374
" />
<path d="M34708 46374
L34327 46374
" />
<path d="M35742 46390
L35370 46390
" />
<path d="M34708 46390
L34336 46390
" />
<path d="M35732 46405
L35370 46405
" />
<path d="M34708 46405
L34346 46405
" />
<path d="M35722 46421
L35370 46421
" />
<path d="M34708 46421
L34356 46421
" />
<path d="M35711 46437
L35370 46437
" />
<path d="M34708 46437
L34366 46437
" />
<path d="M35700 46453
L35370 46453
" />
<path d="M34708 46453
L34377 46453
" />
<path d="M35688 46468
L35370 46468
" />
<path d="M34708 46468
L34389 46468
" />
<path d="M35676 46484
L35370 46484
" />
<path d="M34708 46484
L34401 46484
" />
<path d="M35664 46500
L35370 46500
" />
<path d="M34708 46500
L34414 46500
" />
<path d="M35650 46516
L35370 46516
" />
<path d="M34708 46516
L34428 46516
" />
<path d="M35636 46531
L35370 46531
" />
<path d="M34708 46531
L34442 46531
" />
<path d="M35621 46547
L35370 46547
" />
<path d="M34708 46547
L34457 46547
" />
<path d="M35605 46563
L35370 46563
" />
<path d="M34708 46563
L34473 46563
" />
<path d="M35588 46579
L35370 46579
" />
<path d="M34708 46579
L34489 46579
" />
<path d="M35571 46594
L34507 46594
" />
<path d="M35552 46610
L34525 46610
" />
<path d="M35533 46626
L34545 46626
" />
<path d="M35511 46642
L34566 46642
" />
<path d="M35488 46657
L34589 46657
" />
<path d="M35464 46673
L34614 46673
" />
<path d="M35438 46689
L34640 46689
" />
<path d="M35409 46705
L34669 46705
" />
<path d="M35377 46720
L34701 46720
" />
<path d="M35341 46736
L34737 46736
" />
<path d="M35300 46752
L34777 46752
" />
<path d="M35250 46768
L34827 46768
" />
<path d="M35185 46783
L34893 46783
" />
<path d="M35509 45070
L35509 45228
" />
<path d="M35588 45149
L35431 45149
" />
<circle cx="35039.4" cy="37303.1" r="834.646" /> 
<path d="M34708 37303
L34220 37303
" />
<path d="M35858 37303
L35370 37303
" />
<path d="M34708 37318
L34220 37318
" />
<path d="M35858 37318
L35370 37318
" />
<path d="M34708 37334
L34220 37334
" />
<path d="M35857 37334
L35370 37334
" />
<path d="M35857 37350
L35370 37350
" />
<path d="M34708 37350
L34221 37350
" />
<path d="M35855 37366
L35370 37366
" />
<path d="M34708 37366
L34222 37366
" />
<path d="M35854 37381
L35370 37381
" />
<path d="M34708 37381
L34224 37381
" />
<path d="M35853 37397
L35370 37397
" />
<path d="M34708 37397
L34225 37397
" />
<path d="M35851 37413
L35370 37413
" />
<path d="M34708 37413
L34227 37413
" />
<path d="M35848 37429
L35370 37429
" />
<path d="M34708 37429
L34229 37429
" />
<path d="M35846 37444
L35370 37444
" />
<path d="M34708 37444
L34232 37444
" />
<path d="M35843 37460
L35370 37460
" />
<path d="M34708 37460
L34235 37460
" />
<path d="M35840 37476
L35370 37476
" />
<path d="M34708 37476
L34238 37476
" />
<path d="M35836 37492
L35370 37492
" />
<path d="M34708 37492
L34242 37492
" />
<path d="M35833 37507
L35370 37507
" />
<path d="M34708 37507
L34245 37507
" />
<path d="M35828 37523
L35370 37523
" />
<path d="M34708 37523
L34250 37523
" />
<path d="M35824 37539
L35370 37539
" />
<path d="M34708 37539
L34254 37539
" />
<path d="M35819 37555
L35370 37555
" />
<path d="M34708 37555
L34259 37555
" />
<path d="M35814 37570
L35370 37570
" />
<path d="M34708 37570
L34264 37570
" />
<path d="M35808 37587
L35370 37587
" />
<path d="M34708 37587
L34270 37587
" />
<path d="M35803 37602
L35370 37602
" />
<path d="M34708 37602
L34275 37602
" />
<path d="M35796 37618
L35370 37618
" />
<path d="M34708 37618
L34281 37618
" />
<path d="M35790 37634
L35370 37634
" />
<path d="M34708 37634
L34288 37634
" />
<path d="M35783 37650
L35370 37650
" />
<path d="M34708 37650
L34295 37650
" />
<path d="M35775 37665
L35370 37665
" />
<path d="M34708 37665
L34303 37665
" />
<path d="M35768 37681
L35370 37681
" />
<path d="M34708 37681
L34310 37681
" />
<path d="M35759 37697
L35370 37697
" />
<path d="M34708 37697
L34318 37697
" />
<path d="M35751 37712
L35370 37712
" />
<path d="M34708 37712
L34327 37712
" />
<path d="M35742 37728
L35370 37728
" />
<path d="M34708 37728
L34336 37728
" />
<path d="M35732 37744
L35370 37744
" />
<path d="M34708 37744
L34346 37744
" />
<path d="M35722 37760
L35370 37760
" />
<path d="M34708 37760
L34356 37760
" />
<path d="M35711 37775
L35370 37775
" />
<path d="M34708 37775
L34366 37775
" />
<path d="M35700 37791
L35370 37791
" />
<path d="M34708 37791
L34377 37791
" />
<path d="M35688 37807
L35370 37807
" />
<path d="M34708 37807
L34389 37807
" />
<path d="M35676 37823
L35370 37823
" />
<path d="M34708 37823
L34401 37823
" />
<path d="M35664 37838
L35370 37838
" />
<path d="M34708 37838
L34414 37838
" />
<path d="M35650 37854
L35370 37854
" />
<path d="M34708 37854
L34428 37854
" />
<path d="M35636 37870
L35370 37870
" />
<path d="M34708 37870
L34442 37870
" />
<path d="M35621 37886
L35370 37886
" />
<path d="M34708 37886
L34457 37886
" />
<path d="M35605 37901
L35370 37901
" />
<path d="M34708 37901
L34473 37901
" />
<path d="M35588 37917
L35370 37917
" />
<path d="M34708 37917
L34489 37917
" />
<path d="M35571 37933
L34507 37933
" />
<path d="M35552 37949
L34525 37949
" />
<path d="M35533 37964
L34545 37964
" />
<path d="M35511 37980
L34566 37980
" />
<path d="M35488 37996
L34589 37996
" />
<path d="M35464 38012
L34614 38012
" />
<path d="M35438 38027
L34640 38027
" />
<path d="M35409 38043
L34669 38043
" />
<path d="M35377 38059
L34701 38059
" />
<path d="M35341 38075
L34737 38075
" />
<path d="M35300 38090
L34777 38090
" />
<path d="M35250 38106
L34827 38106
" />
<path d="M35185 38122
L34893 38122
" />
<path d="M35509 36409
L35509 36567
" />
<path d="M35588 36488
L35431 36488
" />
<circle cx="28346.5" cy="42027.6" r="834.646" /> 
<path d="M28015 42027
L27527 42027
" />
<path d="M29165 42027
L28677 42027
" />
<path d="M28015 42043
L27527 42043
" />
<path d="M29165 42043
L28677 42043
" />
<path d="M28015 42059
L27527 42059
" />
<path d="M29164 42059
L28677 42059
" />
<path d="M29164 42074
L28677 42074
" />
<path d="M28015 42074
L27528 42074
" />
<path d="M29162 42090
L28677 42090
" />
<path d="M28015 42090
L27529 42090
" />
<path d="M29161 42106
L28677 42106
" />
<path d="M28015 42106
L27531 42106
" />
<path d="M29160 42122
L28677 42122
" />
<path d="M28015 42122
L27532 42122
" />
<path d="M29158 42137
L28677 42137
" />
<path d="M28015 42137
L27534 42137
" />
<path d="M29155 42153
L28677 42153
" />
<path d="M28015 42153
L27537 42153
" />
<path d="M29153 42169
L28677 42169
" />
<path d="M28015 42169
L27539 42169
" />
<path d="M29150 42185
L28677 42185
" />
<path d="M28015 42185
L27542 42185
" />
<path d="M29147 42200
L28677 42200
" />
<path d="M28015 42200
L27545 42200
" />
<path d="M29143 42216
L28677 42216
" />
<path d="M28015 42216
L27549 42216
" />
<path d="M29140 42232
L28677 42232
" />
<path d="M28015 42232
L27552 42232
" />
<path d="M29135 42248
L28677 42248
" />
<path d="M28015 42248
L27557 42248
" />
<path d="M29131 42263
L28677 42263
" />
<path d="M28015 42263
L27561 42263
" />
<path d="M29126 42279
L28677 42279
" />
<path d="M28015 42279
L27566 42279
" />
<path d="M29121 42295
L28677 42295
" />
<path d="M28015 42295
L27571 42295
" />
<path d="M29115 42311
L28677 42311
" />
<path d="M28015 42311
L27577 42311
" />
<path d="M29110 42327
L28677 42327
" />
<path d="M28015 42327
L27582 42327
" />
<path d="M29103 42342
L28677 42342
" />
<path d="M28015 42342
L27588 42342
" />
<path d="M29097 42358
L28677 42358
" />
<path d="M28015 42358
L27595 42358
" />
<path d="M29090 42374
L28677 42374
" />
<path d="M28015 42374
L27602 42374
" />
<path d="M29082 42390
L28677 42390
" />
<path d="M28015 42390
L27610 42390
" />
<path d="M29075 42405
L28677 42405
" />
<path d="M28015 42405
L27617 42405
" />
<path d="M29066 42421
L28677 42421
" />
<path d="M28015 42421
L27625 42421
" />
<path d="M29058 42437
L28677 42437
" />
<path d="M28015 42437
L27634 42437
" />
<path d="M29049 42453
L28677 42453
" />
<path d="M28015 42453
L27643 42453
" />
<path d="M29039 42468
L28677 42468
" />
<path d="M28015 42468
L27653 42468
" />
<path d="M29029 42484
L28677 42484
" />
<path d="M28015 42484
L27663 42484
" />
<path d="M29018 42500
L28677 42500
" />
<path d="M28015 42500
L27674 42500
" />
<path d="M29007 42516
L28677 42516
" />
<path d="M28015 42516
L27685 42516
" />
<path d="M28996 42531
L28677 42531
" />
<path d="M28015 42531
L27696 42531
" />
<path d="M28983 42547
L28677 42547
" />
<path d="M28015 42547
L27709 42547
" />
<path d="M28971 42563
L28677 42563
" />
<path d="M28015 42563
L27721 42563
" />
<path d="M28957 42579
L28677 42579
" />
<path d="M28015 42579
L27735 42579
" />
<path d="M28943 42594
L28677 42594
" />
<path d="M28015 42594
L27749 42594
" />
<path d="M28928 42610
L28677 42610
" />
<path d="M28015 42610
L27764 42610
" />
<path d="M28912 42626
L28677 42626
" />
<path d="M28015 42626
L27780 42626
" />
<path d="M28896 42642
L28677 42642
" />
<path d="M28015 42642
L27796 42642
" />
<path d="M28878 42657
L27814 42657
" />
<path d="M28859 42673
L27833 42673
" />
<path d="M28840 42689
L27852 42689
" />
<path d="M28818 42705
L27874 42705
" />
<path d="M28796 42720
L27896 42720
" />
<path d="M28771 42736
L27921 42736
" />
<path d="M28745 42752
L27947 42752
" />
<path d="M28716 42768
L27976 42768
" />
<path d="M28684 42783
L28008 42783
" />
<path d="M28648 42799
L28044 42799
" />
<path d="M28607 42815
L28085 42815
" />
<path d="M28557 42831
L28135 42831
" />
<path d="M28492 42846
L28200 42846
" />
<path d="M28816 41133
L28816 41291
" />
<path d="M28895 41212
L28738 41212
" />
<path d="M51149 36070
L51149 37582
" />
<path d="M50425 36070
L50425 37582
" />
<path d="M51149 27409
L51149 28921
" />
<path d="M50425 27409
L50425 28921
" />
<path d="M48000 36070
L48000 37582
" />
<path d="M47275 36070
L47275 37582
" />
<path d="M48000 27409
L48000 28921
" />
<path d="M47275 27409
L47275 28921
" />
<path d="M25165 40401
L25165 41913
" />
<path d="M24440 40401
L24440 41913
" />
<path d="M27921 35677
L27921 37188
" />
<path d="M27196 35677
L27196 37188
" />
<path d="M27921 21503
L27921 23015
" />
<path d="M27196 21503
L27196 23015
" />
<path d="M31858 44338
L31858 45850
" />
<path d="M31133 44338
L31133 45850
" />
<path d="M35401 40314
L35401 41826
" />
<path d="M34677 40314
L34677 41826
" />
<path d="M38157 30559
L38157 32070
" />
<path d="M37433 30559
L37433 32070
" />
<path d="M34220 27015
L34220 28527
" />
<path d="M33496 27015
L33496 28527
" />
<path d="M34220 21503
L34220 23015
" />
<path d="M33496 21503
L33496 23015
" />
<path d="M31858 40401
L31858 41913
" />
<path d="M31133 40401
L31133 41913
" />
<path d="M31858 27015
L31858 28527
" />
<path d="M31133 27015
L31133 28527
" />
<path d="M31858 35677
L31858 37188
" />
<path d="M31133 35677
L31133 37188
" />
<path d="M25165 35677
L25165 37188
" />
<path d="M24440 35677
L24440 37188
" />
<path d="M25165 27015
L25165 28527
" />
<path d="M24440 27015
L24440 28527
" />
</g>
<g style="fill:#000000; fill-opacity:0.0; 
stroke:#000000; stroke-width:50; stroke-opacity:1; 
stroke-linecap:round; stroke-linejoin:round;">
<path d="M51045 40576
L48954 40576
" />
<path d="M48954 40576
L48954 46824
" />
<path d="M48954 46824
L51045 46824
" />
<path d="M51045 46824
L51045 40576
" />
</g>
<g style="fill:#000000; fill-opacity:0.0; 
stroke:#000000; stroke-width:300; stroke-opacity:1; 
stroke-linecap:round; stroke-linejoin:round;">
<circle cx="50500" cy="40100.8" r="150" /> 
</g>
<g style="fill:#000000; fill-opacity:0.0; 
stroke:#000000; stroke-width:50; stroke-opacity:1; 
stroke-linecap:round; stroke-linejoin:round;">
<path d="M48954 25171
L51045 25171
" />
<path d="M51045 25171
L51045 18923
" />
<path d="M51045 18923
L48954 18923
" />
<path d="M48954 18923
L48954 25171
" />
</g>
<g style="fill:#000000; fill-opacity:0.0; 
stroke:#000000; stroke-width:300; stroke-opacity:1; 
stroke-linecap:round; stroke-linejoin:round;">
<circle cx="49500" cy="25647.2" r="150" /> 
</g>
<g style="fill:#000000; fill-opacity:0.0; 
stroke:#000000; stroke-width:50; stroke-opacity:1; 
stroke-linecap:round; stroke-linejoin:round;">
<path d="M43958 36246
L41868 36246
" />
<path d="M41868 36246
L41868 42494
" />
<path d="M41868 42494
L43958 42494
" />
<path d="M43958 42494
L43958 36246
" />
</g>
<g style="fill:#000000; fill-opacity:0.0; 
stroke:#000000; stroke-width:300; stroke-opacity:1; 
stroke-linecap:round; stroke-linejoin:round;">
<circle cx="43413.4" cy="35770.1" r="150" /> 
</g>
<g style="fill:#000000; fill-opacity:0.0; 
stroke:#000000; stroke-width:50; stroke-opacity:1; 
stroke-linecap:round; stroke-linejoin:round;">
<path d="M41868 27533
L43958 27533
" />
<path d="M43958 27533
L43958 21285
" />
<path d="M43958 21285
L41868 21285
" />
<path d="M41868 21285
L41868 27533
" />
</g>
<g style="fill:#000000; fill-opacity:0.0; 
stroke:#000000; stroke-width:300; stroke-opacity:1; 
stroke-linecap:round; stroke-linejoin:round;">
<circle cx="42413.4" cy="28009.4" r="150" /> 
</g>
<g style="fill:#000000; fill-opacity:0.0; 
stroke:#000000; stroke-width:47.2441; stroke-opacity:1; 
stroke-linecap:round; stroke-linejoin:round;">
<path d="M33255 33011
L34673 33011
" />
<path d="M34688.4 33007.3 A1023.62 1023.62 0.0 0 0 33964.6 31259.8" />
<path d="M33964.6 31259.8 A1023.62 1023.62 0.0 0 0 33240.8 33007.3" />
<path d="M27350 29074
L28767 29074
" />
<path d="M28782.9 29070.3 A1023.62 1023.62 0.0 0 0 28059.1 27322.8" />
<path d="M28059.1 27322.8 A1023.62 1023.62 0.0 0 0 27335.2 29070.3" />
<path d="M27350 33011
L28767 33011
" />
<path d="M28782.9 33007.3 A1023.62 1023.62 0.0 0 0 28059.1 31259.8" />
<path d="M28059.1 31259.8 A1023.62 1023.62 0.0 0 0 27335.2 33007.3" />
<path d="M20118 30807
L20118 30393
" />
<path d="M19704 30393
L20118 30393
" />
<path d="M17716 34094
L14251 34094
" />
<path d="M14251 34094
L14251 30472
" />
<path d="M20039 33031
L20039 34094
" />
<path d="M20039 34094
L19291 34094
" />
<path d="M14251 30472
L20039 30472
" />
<path d="M20039 30472
L20039 31496
" />
<path d="M54685 27460
L54685 27874
" />
<path d="M55098 27874
L54685 27874
" />
<path d="M57086 24173
L60551 24173
" />
<path d="M60551 24173
L60551 27795
" />
<path d="M54763 25236
L54763 24173
" />
<path d="M54763 24173
L55511 24173
" />
<path d="M60551 27795
L54763 27795
" />
<path d="M54763 27795
L54763 26771
" />
</g>
<g style="fill:#000000; fill-opacity:0.0; 
stroke:#000000; stroke-width:5.90551; stroke-opacity:1; 
stroke-linecap:round; stroke-linejoin:round;">
<text x="56722.4" y="32131.8"
textLength="1126.71" font-size="524.967" lengthAdjust="spacingAndGlyphs"
text-anchor="middle" opacity="0">J12</text>
<path d="M56403 31719
L56403 32000
L56384 32056
L56347 32094
L56291 32113
L56253 32113
" />
<path d="M56797 32113
L56572 32113
" />
<path d="M56684 32113
L56684 31719
L56647 31775
L56609 31813
L56572 31831
" />
<path d="M56947 31756
L56966 31738
L57003 31719
L57097 31719
L57134 31738
L57153 31756
L57172 31794
L57172 31831
L57153 31888
L56928 32113
L57172 32113
" />
</g>
<g style="fill:#000000; fill-opacity:0.0; 
stroke:#000000; stroke-width:59.0551; stroke-opacity:1; 
stroke-linecap:round; stroke-linejoin:round;">
<text x="30059.1" y="17692.9"
textLength="1057.55" font-size="524.934" lengthAdjust="spacingAndGlyphs"
text-anchor="middle" opacity="0">J13</text>
<path d="M29740 17280
L29740 17561
L29721 17617
L29684 17655
L29627 17674
L29590 17674
" />
<path d="M30134 17674
L29909 17674
" />
<path d="M30021 17674
L30021 17280
L29984 17336
L29946 17374
L29909 17392
" />
<path d="M30265 17280
L30508 17280
L30377 17430
L30434 17430
L30471 17449
L30490 17467
L30508 17505
L30508 17599
L30490 17636
L30471 17655
L30434 17674
L30321 17674
L30284 17655
L30265 17636
" />
<text x="29133.9" y="17692.9"
textLength="1126.64" font-size="524.934" lengthAdjust="spacingAndGlyphs"
text-anchor="middle" opacity="0">J11</text>
<path d="M28815 17280
L28815 17561
L28796 17617
L28758 17655
L28702 17674
L28665 17674
" />
<path d="M29208 17674
L28983 17674
" />
<path d="M29096 17674
L29096 17280
L29058 17336
L29021 17374
L28983 17392
" />
<path d="M29583 17674
L29358 17674
" />
<path d="M29471 17674
L29471 17280
L29433 17336
L29396 17374
L29358 17392
" />
<text x="23622" y="46086.6"
textLength="1126.64" font-size="524.934" lengthAdjust="spacingAndGlyphs"
text-anchor="middle" opacity="0">J10</text>
<path d="M23303 45674
L23303 45955
L23284 46011
L23247 46049
L23190 46067
L23153 46067
" />
<path d="M23697 46067
L23472 46067
" />
<path d="M23584 46067
L23584 45674
L23547 45730
L23509 45767
L23472 45786
" />
<path d="M23940 45674
L23978 45674
L24015 45692
L24034 45711
L24053 45749
L24071 45824
L24071 45917
L24053 45992
L24034 46030
L24015 46049
L23978 46067
L23940 46067
L23903 46049
L23884 46030
L23865 45992
L23847 45917
L23847 45824
L23865 45749
L23884 45711
L23903 45692
L23940 45674
" />
<text x="24803.1" y="46086.6"
textLength="751.687" font-size="524.934" lengthAdjust="spacingAndGlyphs"
text-anchor="middle" opacity="0">J9</text>
<path d="M24671 45674
L24671 45955
L24653 46011
L24615 46049
L24559 46067
L24521 46067
" />
<path d="M24878 46067
L24953 46067
L24990 46049
L25009 46030
L25046 45974
L25065 45899
L25065 45749
L25046 45711
L25028 45692
L24990 45674
L24915 45674
L24878 45692
L24859 45711
L24840 45749
L24840 45842
L24859 45880
L24878 45899
L24915 45917
L24990 45917
L25028 45899
L25046 45880
L25065 45842
" />
<text x="28346.5" y="46086.6"
textLength="751.687" font-size="524.934" lengthAdjust="spacingAndGlyphs"
text-anchor="middle" opacity="0">J8</text>
<path d="M28215 45674
L28215 45955
L28196 46011
L28158 46049
L28102 46067
L28065 46067
" />
<path d="M28458 45842
L28421 45824
L28402 45805
L28383 45767
L28383 45749
L28402 45711
L28421 45692
L28458 45674
L28533 45674
L28571 45692
L28590 45711
L28608 45749
L28608 45767
L28590 45805
L28571 45824
L28533 45842
L28458 45842
L28421 45861
L28402 45880
L28383 45917
L28383 45992
L28402 46030
L28421 46049
L28458 46067
L28533 46067
L28571 46049
L28590 46030
L28608 45992
L28608 45917
L28590 45880
L28571 45861
L28533 45842
" />
<text x="29527.6" y="46086.6"
textLength="751.687" font-size="524.934" lengthAdjust="spacingAndGlyphs"
text-anchor="middle" opacity="0">J7</text>
<path d="M29396 45674
L29396 45955
L29377 46011
L29340 46049
L29283 46067
L29246 46067
" />
<path d="M29546 45674
L29808 45674
L29640 46067
" />
<text x="38976.4" y="46874"
textLength="751.687" font-size="524.934" lengthAdjust="spacingAndGlyphs"
text-anchor="middle" opacity="0">J5</text>
<path d="M38845 46461
L38845 46742
L38826 46799
L38788 46836
L38732 46855
L38695 46855
" />
<path d="M39220 46461
L39032 46461
L39013 46649
L39032 46630
L39070 46611
L39163 46611
L39201 46630
L39220 46649
L39238 46686
L39238 46780
L39220 46817
L39201 46836
L39163 46855
L39070 46855
L39032 46836
L39013 46817
" />
<text x="37401.6" y="46874"
textLength="751.687" font-size="524.934" lengthAdjust="spacingAndGlyphs"
text-anchor="middle" opacity="0">J4</text>
<path d="M37270 46461
L37270 46742
L37251 46799
L37214 46836
L37157 46855
L37120 46855
" />
<path d="M37626 46592
L37626 46855
" />
<path d="M37532 46442
L37439 46724
L37682 46724
" />
<text x="41732.3" y="46874"
textLength="751.687" font-size="524.934" lengthAdjust="spacingAndGlyphs"
text-anchor="middle" opacity="0">J3</text>
<path d="M41601 46461
L41601 46742
L41582 46799
L41544 46836
L41488 46855
L41451 46855
" />
<path d="M41751 46461
L41994 46461
L41863 46611
L41919 46611
L41957 46630
L41976 46649
L41994 46686
L41994 46780
L41976 46817
L41957 46836
L41919 46855
L41807 46855
L41769 46836
L41751 46817
" />
<text x="42913.4" y="46874"
textLength="751.687" font-size="524.934" lengthAdjust="spacingAndGlyphs"
text-anchor="middle" opacity="0">J2</text>
<path d="M42782 46461
L42782 46742
L42763 46799
L42725 46836
L42669 46855
L42632 46855
" />
<path d="M42950 46499
L42969 46480
L43007 46461
L43100 46461
L43138 46480
L43157 46499
L43175 46536
L43175 46574
L43157 46630
L42932 46855
L43175 46855
" />
<text x="37114.2" y="25960.6"
textLength="864.173" font-size="524.934" lengthAdjust="spacingAndGlyphs"
text-anchor="middle" opacity="0">Q4</text>
<path d="M37076 25979
L37039 25960
L37001 25923
L36945 25866
L36907 25848
L36870 25848
" />
<path d="M36889 25941
L36851 25923
L36814 25885
L36795 25810
L36795 25679
L36814 25604
L36851 25566
L36889 25548
L36964 25548
L37001 25566
L37039 25604
L37057 25679
L37057 25810
L37039 25885
L37001 25923
L36964 25941
L36889 25941
" />
<path d="M37395 25679
L37395 25941
" />
<path d="M37301 25529
L37207 25810
L37451 25810
" />
<text x="24311" y="31200.8"
textLength="1220.38" font-size="524.934" lengthAdjust="spacingAndGlyphs"
text-anchor="middle" opacity="0">CS1</text>
<path d="M24057 31144
L24039 31163
L23982 31182
L23945 31182
L23889 31163
L23851 31125
L23832 31088
L23814 31013
L23814 30957
L23832 30882
L23851 30844
L23889 30807
L23945 30788
L23982 30788
L24039 30807
L24057 30825
" />
<path d="M24207 31163
L24264 31182
L24357 31182
L24395 31163
L24414 31144
L24432 31107
L24432 31069
L24414 31032
L24395 31013
L24357 30994
L24282 30975
L24245 30957
L24226 30938
L24207 30900
L24207 30863
L24226 30825
L24245 30807
L24282 30788
L24376 30788
L24432 30807
" />
<path d="M24807 31182
L24582 31182
" />
<path d="M24695 31182
L24695 30788
L24657 30844
L24620 30882
L24582 30900
" />
<text x="51082.7" y="31594.5"
textLength="1164.14" font-size="524.934" lengthAdjust="spacingAndGlyphs"
text-anchor="middle" opacity="0">CL1</text>
<path d="M50857 31538
L50838 31556
L50782 31575
L50745 31575
L50688 31556
L50651 31519
L50632 31482
L50613 31407
L50613 31350
L50632 31275
L50651 31238
L50688 31200
L50745 31182
L50782 31182
L50838 31200
L50857 31219
" />
<path d="M51213 31575
L51026 31575
L51026 31182
" />
<path d="M51551 31575
L51326 31575
" />
<path d="M51438 31575
L51438 31182
L51401 31238
L51363 31275
L51326 31294
" />
<g transform="rotate(-90 36318.9 45964.6)">
<text x="36318.9" y="46161.4"
textLength="845.426" font-size="524.934" lengthAdjust="spacingAndGlyphs"
text-anchor="middle" opacity="0">C4</text>
</g>
<path d="M36459 46030
L36478 46048
L36497 46105
L36497 46142
L36478 46198
L36440 46236
L36403 46255
L36328 46273
L36272 46273
L36197 46255
L36159 46236
L36122 46198
L36103 46142
L36103 46105
L36122 46048
L36140 46030
" />
<path d="M36234 45692
L36497 45692
" />
<path d="M36084 45786
L36365 45880
L36365 45636
" />
<g transform="rotate(-90 36318.9 37303.1)">
<text x="36318.9" y="37500"
textLength="845.426" font-size="524.934" lengthAdjust="spacingAndGlyphs"
text-anchor="middle" opacity="0">C3</text>
</g>
<path d="M36459 37368
L36478 37387
L36497 37443
L36497 37481
L36478 37537
L36440 37574
L36403 37593
L36328 37612
L36272 37612
L36197 37593
L36159 37574
L36122 37537
L36103 37481
L36103 37443
L36122 37387
L36140 37368
" />
<path d="M36103 37237
L36103 36993
L36253 37125
L36253 37068
L36272 37031
L36290 37012
L36328 36993
L36422 36993
L36459 37012
L36478 37031
L36497 37068
L36497 37181
L36478 37218
L36459 37237
" />
<g transform="rotate(-90 29626 42027.6)">
<text x="29626" y="42224.4"
textLength="845.426" font-size="524.934" lengthAdjust="spacingAndGlyphs"
text-anchor="middle" opacity="0">C1</text>
</g>
<path d="M29766 42093
L29785 42111
L29804 42168
L29804 42205
L29785 42261
L29747 42299
L29710 42318
L29635 42336
L29579 42336
L29504 42318
L29466 42299
L29429 42261
L29410 42205
L29410 42168
L29429 42111
L29447 42093
" />
<path d="M29804 41718
L29804 41943
" />
<path d="M29804 41830
L29410 41830
L29466 41868
L29504 41905
L29522 41943
" />
<g transform="rotate(-90 51543.3 36826.8)">
<text x="51543.3" y="37023.6"
textLength="1164.14" font-size="524.934" lengthAdjust="spacingAndGlyphs"
text-anchor="middle" opacity="0">TH4</text>
</g>
<path d="M51327 37332
L51327 37107
" />
<path d="M51721 37220
L51327 37220
" />
<path d="M51721 36976
L51327 36976
" />
<path d="M51515 36976
L51515 36751
" />
<path d="M51721 36751
L51327 36751
" />
<path d="M51458 36395
L51721 36395
" />
<path d="M51308 36489
L51590 36583
L51590 36339
" />
<g transform="rotate(-90 51543.3 28165.4)">
<text x="51543.3" y="28362.2"
textLength="1164.14" font-size="524.934" lengthAdjust="spacingAndGlyphs"
text-anchor="middle" opacity="0">TH3</text>
</g>
<path d="M51327 28671
L51327 28446
" />
<path d="M51721 28559
L51327 28559
" />
<path d="M51721 28315
L51327 28315
" />
<path d="M51515 28315
L51515 28090
" />
<path d="M51721 28090
L51327 28090
" />
<path d="M51327 27940
L51327 27696
L51477 27827
L51477 27771
L51496 27734
L51515 27715
L51552 27696
L51646 27696
L51683 27715
L51702 27734
L51721 27771
L51721 27884
L51702 27921
L51683 27940
" />
<g transform="rotate(-90 48393.7 36826.8)">
<text x="48393.7" y="37023.6"
textLength="1164.14" font-size="524.934" lengthAdjust="spacingAndGlyphs"
text-anchor="middle" opacity="0">TH2</text>
</g>
<path d="M48178 37332
L48178 37107
" />
<path d="M48571 37220
L48178 37220
" />
<path d="M48571 36976
L48178 36976
" />
<path d="M48365 36976
L48365 36751
" />
<path d="M48571 36751
L48178 36751
" />
<path d="M48215 36583
L48196 36564
L48178 36526
L48178 36433
L48196 36395
L48215 36376
L48253 36358
L48290 36358
L48346 36376
L48571 36601
L48571 36358
" />
<g transform="rotate(-90 48393.7 28165.4)">
<text x="48393.7" y="28362.2"
textLength="1164.14" font-size="524.934" lengthAdjust="spacingAndGlyphs"
text-anchor="middle" opacity="0">TH1</text>
</g>
<path d="M48178 28671
L48178 28446
" />
<path d="M48571 28559
L48178 28559
" />
<path d="M48571 28315
L48178 28315
" />
<path d="M48365 28315
L48365 28090
" />
<path d="M48571 28090
L48178 28090
" />
<path d="M48571 27696
L48571 27921
" />
<path d="M48571 27809
L48178 27809
L48234 27846
L48271 27884
L48290 27921
" />
<g transform="rotate(-90 25559.1 41157.5)">
<text x="25559.1" y="41354.3"
textLength="1201.63" font-size="524.934" lengthAdjust="spacingAndGlyphs"
text-anchor="middle" opacity="0">RE2</text>
</g>
<path d="M25737 41401
L25549 41532
" />
<path d="M25737 41626
L25343 41626
L25343 41476
L25362 41438
L25380 41419
L25418 41401
L25474 41401
L25512 41419
L25530 41438
L25549 41476
L25549 41626
" />
<path d="M25530 41232
L25530 41101
" />
<path d="M25737 41044
L25737 41232
L25343 41232
L25343 41044
" />
<path d="M25380 40895
L25362 40876
L25343 40838
L25343 40745
L25362 40707
L25380 40688
L25418 40670
L25455 40670
L25512 40688
L25737 40913
L25737 40670
" />
<g transform="rotate(-90 28315 36433.1)">
<text x="28315" y="36629.9"
textLength="1201.63" font-size="524.934" lengthAdjust="spacingAndGlyphs"
text-anchor="middle" opacity="0">RE1</text>
</g>
<path d="M28493 36676
L28305 36808
" />
<path d="M28493 36901
L28099 36901
L28099 36751
L28118 36714
L28136 36695
L28174 36676
L28230 36676
L28268 36695
L28286 36714
L28305 36751
L28305 36901
" />
<path d="M28286 36508
L28286 36376
" />
<path d="M28493 36320
L28493 36508
L28099 36508
L28099 36320
" />
<path d="M28493 35945
L28493 36170
" />
<path d="M28493 36058
L28099 36058
L28155 36095
L28193 36133
L28211 36170
" />
<g transform="rotate(-90 28315 22259.8)">
<text x="28315" y="22456.7"
textLength="1239.13" font-size="524.934" lengthAdjust="spacingAndGlyphs"
text-anchor="middle" opacity="0">RC1</text>
</g>
<path d="M28493 22522
L28305 22653
" />
<path d="M28493 22747
L28099 22747
L28099 22597
L28118 22559
L28136 22541
L28174 22522
L28230 22522
L28268 22541
L28286 22559
L28305 22597
L28305 22747
" />
<path d="M28455 22128
L28474 22147
L28493 22203
L28493 22241
L28474 22297
L28436 22334
L28399 22353
L28324 22372
L28268 22372
L28193 22353
L28155 22334
L28118 22297
L28099 22241
L28099 22203
L28118 22147
L28136 22128
" />
<path d="M28493 21753
L28493 21978
" />
<path d="M28493 21866
L28099 21866
L28155 21903
L28193 21941
L28211 21978
" />
<g transform="rotate(-90 32252 45094.5)">
<text x="32252" y="45291.3"
textLength="1220.38" font-size="524.934" lengthAdjust="spacingAndGlyphs"
text-anchor="middle" opacity="0">R13</text>
</g>
<path d="M32430 45347
L32242 45478
" />
<path d="M32430 45572
L32036 45572
L32036 45422
L32055 45385
L32073 45366
L32111 45347
L32167 45347
L32205 45366
L32223 45385
L32242 45422
L32242 45572
" />
<path d="M32430 44972
L32430 45197
" />
<path d="M32430 45085
L32036 45085
L32092 45122
L32130 45160
L32148 45197
" />
<path d="M32036 44841
L32036 44597
L32186 44728
L32186 44672
L32205 44635
L32223 44616
L32261 44597
L32355 44597
L32392 44616
L32411 44635
L32430 44672
L32430 44785
L32411 44822
L32392 44841
" />
<g transform="rotate(-90 35795.3 41070.9)">
<text x="35795.3" y="41267.7"
textLength="1220.38" font-size="524.934" lengthAdjust="spacingAndGlyphs"
text-anchor="middle" opacity="0">R12</text>
</g>
<path d="M35973 41323
L35785 41455
" />
<path d="M35973 41548
L35579 41548
L35579 41398
L35598 41361
L35617 41342
L35654 41323
L35710 41323
L35748 41342
L35767 41361
L35785 41398
L35785 41548
" />
<path d="M35973 40949
L35973 41173
" />
<path d="M35973 41061
L35579 41061
L35635 41098
L35673 41136
L35692 41173
" />
<path d="M35617 40799
L35598 40780
L35579 40742
L35579 40649
L35598 40611
L35617 40592
L35654 40574
L35692 40574
L35748 40592
L35973 40817
L35973 40574
" />
<g transform="rotate(-90 38551.2 31315)">
<text x="38551.2" y="31511.8"
textLength="1220.38" font-size="524.934" lengthAdjust="spacingAndGlyphs"
text-anchor="middle" opacity="0">R11</text>
</g>
<path d="M38729 31568
L38541 31699
" />
<path d="M38729 31793
L38335 31793
L38335 31643
L38354 31605
L38373 31586
L38410 31568
L38466 31568
L38504 31586
L38523 31605
L38541 31643
L38541 31793
" />
<path d="M38729 31193
L38729 31418
" />
<path d="M38729 31305
L38335 31305
L38391 31343
L38429 31380
L38448 31418
" />
<path d="M38729 30818
L38729 31043
" />
<path d="M38729 30930
L38335 30930
L38391 30968
L38429 31005
L38448 31043
" />
<g transform="rotate(-90 34614.2 27771.7)">
<text x="34614.2" y="27968.5"
textLength="1220.38" font-size="524.934" lengthAdjust="spacingAndGlyphs"
text-anchor="middle" opacity="0">R10</text>
</g>
<path d="M34792 28024
L34604 28155
" />
<path d="M34792 28249
L34398 28249
L34398 28099
L34417 28062
L34436 28043
L34473 28024
L34529 28024
L34567 28043
L34586 28062
L34604 28099
L34604 28249
" />
<path d="M34792 27649
L34792 27874
" />
<path d="M34792 27762
L34398 27762
L34454 27799
L34492 27837
L34511 27874
" />
<path d="M34398 27406
L34398 27368
L34417 27331
L34436 27312
L34473 27293
L34548 27274
L34642 27274
L34717 27293
L34754 27312
L34773 27331
L34792 27368
L34792 27406
L34773 27443
L34754 27462
L34717 27481
L34642 27499
L34548 27499
L34473 27481
L34436 27462
L34417 27443
L34398 27406
" />
<g transform="rotate(-90 34614.2 22259.8)">
<text x="34614.2" y="22456.7"
textLength="845.426" font-size="524.934" lengthAdjust="spacingAndGlyphs"
text-anchor="middle" opacity="0">R9</text>
</g>
<path d="M34792 22325
L34604 22456
" />
<path d="M34792 22550
L34398 22550
L34398 22400
L34417 22362
L34436 22344
L34473 22325
L34529 22325
L34567 22344
L34586 22362
L34604 22400
L34604 22550
" />
<path d="M34792 22137
L34792 22062
L34773 22025
L34754 22006
L34698 21969
L34623 21950
L34473 21950
L34436 21969
L34417 21988
L34398 22025
L34398 22100
L34417 22137
L34436 22156
L34473 22175
L34567 22175
L34604 22156
L34623 22137
L34642 22100
L34642 22025
L34623 21988
L34604 21969
L34567 21950
" />
<g transform="rotate(-90 32252 41157.5)">
<text x="32252" y="41354.3"
textLength="845.426" font-size="524.934" lengthAdjust="spacingAndGlyphs"
text-anchor="middle" opacity="0">R8</text>
</g>
<path d="M32430 41223
L32242 41354
" />
<path d="M32430 41448
L32036 41448
L32036 41298
L32055 41260
L32073 41241
L32111 41223
L32167 41223
L32205 41241
L32223 41260
L32242 41298
L32242 41448
" />
<path d="M32205 40998
L32186 41035
L32167 41054
L32130 41073
L32111 41073
L32073 41054
L32055 41035
L32036 40998
L32036 40923
L32055 40885
L32073 40866
L32111 40848
L32130 40848
L32167 40866
L32186 40885
L32205 40923
L32205 40998
L32223 41035
L32242 41054
L32280 41073
L32355 41073
L32392 41054
L32411 41035
L32430 40998
L32430 40923
L32411 40885
L32392 40866
L32355 40848
L32280 40848
L32242 40866
L32223 40885
L32205 40923
" />
<g transform="rotate(-90 32252 27771.7)">
<text x="32252" y="27968.5"
textLength="845.426" font-size="524.934" lengthAdjust="spacingAndGlyphs"
text-anchor="middle" opacity="0">R7</text>
</g>
<path d="M32430 27837
L32242 27968
" />
<path d="M32430 28062
L32036 28062
L32036 27912
L32055 27874
L32073 27856
L32111 27837
L32167 27837
L32205 27856
L32223 27874
L32242 27912
L32242 28062
" />
<path d="M32036 27706
L32036 27443
L32430 27612
" />
<g transform="rotate(-90 32252 36433.1)">
<text x="32252" y="36629.9"
textLength="845.426" font-size="524.934" lengthAdjust="spacingAndGlyphs"
text-anchor="middle" opacity="0">R6</text>
</g>
<path d="M32430 36498
L32242 36629
" />
<path d="M32430 36723
L32036 36723
L32036 36573
L32055 36536
L32073 36517
L32111 36498
L32167 36498
L32205 36517
L32223 36536
L32242 36573
L32242 36723
" />
<path d="M32036 36161
L32036 36236
L32055 36273
L32073 36292
L32130 36329
L32205 36348
L32355 36348
L32392 36329
L32411 36311
L32430 36273
L32430 36198
L32411 36161
L32392 36142
L32355 36123
L32261 36123
L32223 36142
L32205 36161
L32186 36198
L32186 36273
L32205 36311
L32223 36329
L32261 36348
" />
<g transform="rotate(-90 25559.1 36433.1)">
<text x="25559.1" y="36629.9"
textLength="845.426" font-size="524.934" lengthAdjust="spacingAndGlyphs"
text-anchor="middle" opacity="0">R2</text>
</g>
<path d="M25737 36498
L25549 36629
" />
<path d="M25737 36723
L25343 36723
L25343 36573
L25362 36536
L25380 36517
L25418 36498
L25474 36498
L25512 36517
L25530 36536
L25549 36573
L25549 36723
" />
<path d="M25380 36348
L25362 36329
L25343 36292
L25343 36198
L25362 36161
L25380 36142
L25418 36123
L25455 36123
L25512 36142
L25737 36367
L25737 36123
" />
<g transform="rotate(-90 25559.1 27771.7)">
<text x="25559.1" y="27968.5"
textLength="845.426" font-size="524.934" lengthAdjust="spacingAndGlyphs"
text-anchor="middle" opacity="0">R1</text>
</g>
<path d="M25737 27837
L25549 27968
" />
<path d="M25737 28062
L25343 28062
L25343 27912
L25362 27874
L25380 27856
L25418 27837
L25474 27837
L25512 27856
L25530 27874
L25549 27912
L25549 28062
" />
<path d="M25737 27462
L25737 27687
" />
<path d="M25737 27574
L25343 27574
L25399 27612
L25437 27649
L25455 27687
" />
</g>
<g style="fill:#000000; fill-opacity:0.0; 
stroke:#000000; stroke-width:5.90551; stroke-opacity:1; 
stroke-linecap:round; stroke-linejoin:round;">
<g transform="rotate(-90 51751.9 41948.9)">
<text x="51751.9" y="42145.9"
textLength="865.035" font-size="525.509" lengthAdjust="spacingAndGlyphs"
text-anchor="middle" opacity="0">Q8</text>
</g>
<path d="M51967 41986
L51948 42023
L51911 42061
L51855 42117
L51836 42155
L51836 42192
" />
<path d="M51930 42174
L51911 42211
L51873 42249
L51798 42267
L51667 42267
L51592 42249
L51554 42211
L51536 42174
L51536 42099
L51554 42061
L51592 42023
L51667 42005
L51798 42005
L51873 42023
L51911 42061
L51930 42099
L51930 42174
" />
<path d="M51704 41779
L51686 41817
L51667 41836
L51629 41855
L51611 41855
L51573 41836
L51554 41817
L51536 41779
L51536 41704
L51554 41667
L51573 41648
L51611 41629
L51629 41629
L51667 41648
L51686 41667
L51704 41704
L51704 41779
L51723 41817
L51742 41836
L51780 41855
L51855 41855
L51892 41836
L51911 41817
L51930 41779
L51930 41704
L51911 41667
L51892 41648
L51855 41629
L51780 41629
L51742 41648
L51723 41667
L51704 41704
" />
<g transform="rotate(-90 48248.1 23799.2)">
<text x="48248.1" y="23996.2"
textLength="795.94" font-size="525.509" lengthAdjust="spacingAndGlyphs"
text-anchor="middle" opacity="0">Q7</text>
</g>
<path d="M48463 23836
L48445 23874
L48407 23911
L48351 23968
L48332 24005
L48332 24043
" />
<path d="M48426 24024
L48407 24061
L48370 24099
L48295 24118
L48163 24118
L48088 24099
L48051 24061
L48032 24024
L48032 23949
L48051 23911
L48088 23874
L48163 23855
L48295 23855
L48370 23874
L48407 23911
L48426 23949
L48426 24024
" />
<path d="M48032 23724
L48032 23461
L48426 23630
" />
<g transform="rotate(-90 44665.3 37618.2)">
<text x="44665.3" y="37815.2"
textLength="795.94" font-size="525.509" lengthAdjust="spacingAndGlyphs"
text-anchor="middle" opacity="0">Q6</text>
</g>
<path d="M44881 37655
L44862 37693
L44824 37730
L44768 37787
L44749 37824
L44749 37862
" />
<path d="M44843 37843
L44824 37880
L44787 37918
L44712 37937
L44580 37937
L44505 37918
L44468 37880
L44449 37843
L44449 37768
L44468 37730
L44505 37693
L44580 37674
L44712 37674
L44787 37693
L44824 37730
L44843 37768
L44843 37843
" />
<path d="M44449 37336
L44449 37411
L44468 37449
L44487 37468
L44543 37505
L44618 37524
L44768 37524
L44806 37505
L44824 37486
L44843 37449
L44843 37374
L44824 37336
L44806 37317
L44768 37299
L44674 37299
L44637 37317
L44618 37336
L44599 37374
L44599 37449
L44618 37486
L44637 37505
L44674 37524
" />
<g transform="rotate(-90 41161.5 26161.4)">
<text x="41161.5" y="26358.4"
textLength="795.94" font-size="525.509" lengthAdjust="spacingAndGlyphs"
text-anchor="middle" opacity="0">Q5</text>
</g>
<path d="M41377 26198
L41358 26236
L41320 26273
L41264 26330
L41245 26367
L41245 26405
" />
<path d="M41339 26386
L41320 26424
L41283 26461
L41208 26480
L41077 26480
L41001 26461
L40964 26424
L40945 26386
L40945 26311
L40964 26273
L41001 26236
L41077 26217
L41208 26217
L41283 26236
L41320 26273
L41339 26311
L41339 26386
" />
<path d="M40945 25861
L40945 26048
L41133 26067
L41114 26048
L41095 26011
L41095 25917
L41114 25879
L41133 25861
L41170 25842
L41264 25842
L41302 25861
L41320 25879
L41339 25917
L41339 26011
L41320 26048
L41302 26067
" />
</g>
<g style="fill:#000000; fill-opacity:0.0; 
stroke:#000000; stroke-width:59.0551; stroke-opacity:1; 
stroke-linecap:round; stroke-linejoin:round;">
<text x="33964.6" y="31078.7"
textLength="795.079" font-size="524.934" lengthAdjust="spacingAndGlyphs"
text-anchor="middle" opacity="0">Q3</text>
<path d="M33927 31097
L33889 31078
L33852 31041
L33795 30985
L33758 30966
L33720 30966
" />
<path d="M33739 31059
L33702 31041
L33664 31003
L33645 30928
L33645 30797
L33664 30722
L33702 30685
L33739 30666
L33814 30666
L33852 30685
L33889 30722
L33908 30797
L33908 30928
L33889 31003
L33852 31041
L33814 31059
L33739 31059
" />
<path d="M34039 30666
L34283 30666
L34152 30816
L34208 30816
L34245 30835
L34264 30853
L34283 30891
L34283 30985
L34264 31022
L34245 31041
L34208 31059
L34095 31059
L34058 31041
L34039 31022
" />
<text x="28059.1" y="27141.7"
textLength="864.173" font-size="524.934" lengthAdjust="spacingAndGlyphs"
text-anchor="middle" opacity="0">Q2</text>
<path d="M28021 27160
L27984 27141
L27946 27104
L27890 27047
L27852 27029
L27815 27029
" />
<path d="M27834 27122
L27796 27104
L27759 27066
L27740 26991
L27740 26860
L27759 26785
L27796 26748
L27834 26729
L27909 26729
L27946 26748
L27984 26785
L28002 26860
L28002 26991
L27984 27066
L27946 27104
L27909 27122
L27834 27122
" />
<path d="M28152 26766
L28171 26748
L28209 26729
L28302 26729
L28340 26748
L28359 26766
L28377 26804
L28377 26841
L28359 26898
L28134 27122
L28377 27122
" />
<text x="28059.1" y="31078.7"
textLength="864.173" font-size="524.934" lengthAdjust="spacingAndGlyphs"
text-anchor="middle" opacity="0">Q1</text>
<path d="M28021 31097
L27984 31078
L27946 31041
L27890 30985
L27852 30966
L27815 30966
" />
<path d="M27834 31059
L27796 31041
L27759 31003
L27740 30928
L27740 30797
L27759 30722
L27796 30685
L27834 30666
L27909 30666
L27946 30685
L27984 30722
L28002 30797
L28002 30928
L27984 31003
L27946 31041
L27909 31059
L27834 31059
" />
<path d="M28377 31059
L28152 31059
" />
<path d="M28265 31059
L28265 30666
L28227 30722
L28190 30760
L28152 30778
" />
<text x="16358.3" y="34744.1"
textLength="751.687" font-size="524.934" lengthAdjust="spacingAndGlyphs"
text-anchor="middle" opacity="0">J6</text>
<path d="M16227 34331
L16227 34612
L16208 34669
L16170 34706
L16114 34725
L16077 34725
" />
<path d="M16583 34331
L16508 34331
L16470 34350
L16452 34369
L16414 34425
L16395 34500
L16395 34650
L16414 34687
L16433 34706
L16470 34725
L16545 34725
L16583 34706
L16601 34687
L16620 34650
L16620 34556
L16601 34519
L16583 34500
L16545 34481
L16470 34481
L16433 34500
L16414 34519
L16395 34556
" />
<text x="58444.9" y="23917.3"
textLength="751.687" font-size="524.934" lengthAdjust="spacingAndGlyphs"
text-anchor="middle" opacity="0">J1</text>
<path d="M58313 23504
L58313 23786
L58294 23842
L58257 23879
L58201 23898
L58163 23898
" />
<path d="M58707 23898
L58482 23898
" />
<path d="M58594 23898
L58594 23504
L58557 23561
L58519 23598
L58482 23617
" />
<text x="18503.9" y="17440.9"
textLength="864.173" font-size="524.934" lengthAdjust="spacingAndGlyphs"
text-anchor="middle" opacity="0">H4</text>
<path d="M18203 17422
L18203 17028
" />
<path d="M18203 17215
L18428 17215
" />
<path d="M18428 17422
L18428 17028
" />
<path d="M18785 17159
L18785 17422
" />
<path d="M18691 17009
L18597 17290
L18841 17290
" />
<text x="18503.9" y="43425.2"
textLength="864.173" font-size="524.934" lengthAdjust="spacingAndGlyphs"
text-anchor="middle" opacity="0">H3</text>
<path d="M18203 43406
L18203 43012
" />
<path d="M18203 43200
L18428 43200
" />
<path d="M18428 43406
L18428 43012
" />
<path d="M18578 43012
L18822 43012
L18691 43162
L18747 43162
L18785 43181
L18803 43200
L18822 43237
L18822 43331
L18803 43368
L18785 43387
L18747 43406
L18635 43406
L18597 43387
L18578 43368
" />
<text x="55511.8" y="17440.9"
textLength="864.173" font-size="524.934" lengthAdjust="spacingAndGlyphs"
text-anchor="middle" opacity="0">H2</text>
<path d="M55211 17422
L55211 17028
" />
<path d="M55211 17215
L55436 17215
" />
<path d="M55436 17422
L55436 17028
" />
<path d="M55605 17065
L55624 17047
L55661 17028
L55755 17028
L55793 17047
L55811 17065
L55830 17103
L55830 17140
L55811 17197
L55586 17422
L55830 17422
" />
<text x="55511.8" y="43425.2"
textLength="864.173" font-size="524.934" lengthAdjust="spacingAndGlyphs"
text-anchor="middle" opacity="0">H1</text>
<path d="M55211 43406
L55211 43012
" />
<path d="M55211 43200
L55436 43200
" />
<path d="M55436 43406
L55436 43012
" />
<path d="M55830 43406
L55605 43406
" />
<path d="M55718 43406
L55718 43012
L55680 43068
L55643 43106
L55605 43125
" />
<g >
</g>
</g> 
</svg>
